<?xml version="1.0" encoding="UTF-8" standalone="no"?>
<svg
   version="1.1"
   id="svg2"
   xml:space="preserve"
   width="803.14667"
   height="678.62262"
   viewBox="0 0 803.14667 678.62262"
   sodipodi:docname="grochow_finansuje.svg"
   inkscape:version="1.1 (c68e22c387, 2021-05-23)"
   xmlns:inkscape="http://www.inkscape.org/namespaces/inkscape"
   xmlns:sodipodi="http://sodipodi.sourceforge.net/DTD/sodipodi-0.dtd"
   xmlns="http://www.w3.org/2000/svg"
   xmlns:svg="http://www.w3.org/2000/svg"
   xmlns:rdf="http://www.w3.org/1999/02/22-rdf-syntax-ns#"
   xmlns:cc="http://creativecommons.org/ns#"
   xmlns:dc="http://purl.org/dc/elements/1.1/"><metadata
     id="metadata8"><rdf:RDF><cc:Work
         rdf:about=""><dc:format>image/svg+xml</dc:format><dc:type
           rdf:resource="http://purl.org/dc/dcmitype/StillImage" /></cc:Work></rdf:RDF></metadata><defs
     id="defs6" /><sodipodi:namedview
     pagecolor="#ffffff"
     bordercolor="#666666"
     borderopacity="1"
     objecttolerance="10"
     gridtolerance="10"
     guidetolerance="10"
     inkscape:pageopacity="0"
     inkscape:pageshadow="2"
     inkscape:window-width="1920"
     inkscape:window-height="1017"
     id="namedview4"
     inkscape:pagecheckerboard="1"
     showgrid="false"
     inkscape:zoom="0.53720395"
     inkscape:cx="720.39678"
     inkscape:cy="88.420794"
     inkscape:window-x="-8"
     inkscape:window-y="-8"
     inkscape:window-maximized="1"
     inkscape:current-layer="g10"
     inkscape:snap-text-baseline="true" /><g
     id="g10"
     inkscape:groupmode="layer"
     inkscape:label="ink_ext_XXXXXX"
     transform="matrix(1.3333333,0,0,-1.3333333,0,863.76931)"
     style="display:inline"><path
       d="M 2.7922356,136.06777 H 605.15224 v 508.967 H 2.7922356 v -508.967"
       style="fill:#ffffff;fill-opacity:1;fill-rule:nonzero;stroke:none;stroke-width:0.1"
       id="path14" /><path
       d="m 172.17424,235.73277 c -0.149,1.525 -2.182,1.244 -2.393,2.77 0.13,2.027 -2.25,2.617 -2.99,4.146 -1.547,1.046 -3.141,2.138 -4.514,3.483 -1.22,1.791 -2.921,2.732 -4.184,4.449 -0.636,0.786 -0.303,1.985 -1.244,2.576 -1.221,0.412 -2.114,1.742 -3.207,2.399 -1.416,-0.091 -2.986,0.48 -3.596,1.828 0.242,1.552 -0.284,2.878 -1.114,4.04 -0.544,3.111 -2.591,5.602 -3.444,8.589 -1.179,1.721 -1.938,3.64 -2.573,5.605 l -2.097,2.245 c -1.154,1.436 -1.915,3.114 -2.551,4.819 -0.609,2.795 -3.486,4.642 -3.987,7.477 -0.655,3.295 -2.641,6.016 -3.186,9.359 -0.349,3.004 -2.028,5.471 -2.873,8.283 -0.616,1.852 -0.396,4.076 -0.309,6.106 -0.348,1.265 -1.355,2.222 -1.373,3.617 -1.329,2.115 -1.614,4.671 -2.554,6.96 0.067,1.831 -1.917,2.811 -2.16,4.516 0.026,1.893 -1.72,3.072 -1.414,5.126 -0.766,1.609 -1.593,3.202 -2.247,4.86 -1.327,1.195 -1.305,3.028 -1.614,4.705 -0.499,1.614 -0.433,3.467 -1.46,4.865 -0.433,1.371 -0.237,2.99 -0.588,4.405 0,1.458 -0.786,2.619 -0.72,4.122 -0.503,1.265 -0.26,2.548 -0.522,3.924 -0.029,0.524 -1.561,4.602 -1.31,4.994 0.249,0.399 -0.191,0.691 0.01,1.105 -0.453,0.915 -0.505,1.989 -0.848,2.951 -0.469,0.37 -0.352,1.026 -0.695,1.508 -0.089,0.727 -0.495,1.308 -0.49,2.069 -0.469,0.397 -0.53,1.026 -0.576,1.622 -0.291,0.366 -0.118,0.959 -0.512,1.243 -0.209,0.844 -0.825,1.545 -1.033,2.388 -0.406,0.551 -0.599,1.062 -1.055,1.63 -1.148,0.54 -1.792,1.272 -2.838,2.058 -0.205,0.683 -1.2315,0.709 -1.287,1.521 -1.032,0.998 -2.4633,1.308 -3.222704,2.684 0.0672,0.317 -0.0816,0.665 -0.3066,0.868 -0.2109,0.529 0.3867,0.703 0.3586,1.183 -0.3274,0.531 -0.0055,1.074 -0.0973,1.635 0.4645,0.474 0.865304,1.043 1.056704,1.689 0.6128,0.489 0.2449,1.399 0.7304,2.004 -0.0101,0.565 0.1891,0.924 0.2149,1.467 0.0605,0.994 0.459,1.847 1.0465,2.615 0.2699,0.246 0.0257,0.561 -0.0715,0.828 -0.3117,0.364 -0.8567,0.31 -1.3336,0.375 -0.252,-0.176 -0.334,-0.388 -0.2883,-0.67 -0.0738,-0.846 -1.229704,-0.882 -1.404304,-1.573 -0.6813,-0.537 -0.3281,-1.513 -0.8137,-2.136 -0.9605,-0.422 -0.8765,-1.774 -1.4937,-2.594 -0.3582,-0.657 -0.8559,-1.278 -0.8504,-2.09 -0.1992,-0.249 0.0457,-0.662 -0.207,-0.875 0.0746,-0.755 -0.475,-1.277 -0.7274,-1.856 0.0817,-0.132 -0.2012,-0.36 0.0613,-0.476 -0.2519,-0.544 0.0868,-1.043 0.3137,-1.508 -0.1355,-0.639 0.5488,-1.06 0.7274,-1.556 1.016,-0.527 1.88,-1.773 2.916,-2.36 0.832804,-0.717 1.551504,-1.319 2.185504,-2.204 0.9043,-0.521 0.943,-1.461 1.6805,-2.192 1.514,-0.562 1.744,-2.118 2.343,-3.392 0.19,-0.863 0.725,-1.593 0.766,-2.501 0.706,-0.505 0.116,-1.437 0.74,-1.989 0.01,-0.499 0.369,-0.733 0.348,-1.244 l -0.081,-0.465 c -0.149,0.057 -0.301,0.111 -0.458,0.154 -0.912,0.699 -2.288,0.285 -3.245,-0.043 -1.179,-0.396 -2.0521,0.634 -3.145,0.783 -1.568804,-0.387 -3.028604,0.176 -4.646104,0 -0.4762,0.176 -0.9118,0.438 -1.4153,0.57 -1.1109,-0.825 -1.9379,-2.36 -3.3957,-2.618 -1.2,-0.874 -2.8168,-0.918 -4.2976,-1.2 -0.8961,-0.561 -1.986,-0.657 -3.0766,-0.737 -1.7457,-0.698 -4.0074,-0.091 -5.7547,-0.725 -1.4855,-1.852 -3.6828,-2.203 -6.0176,-2.044 -1.3964,-0.286 -2.8773,-0.328 -4.3629,-0.376 -1.4601,-0.388 -2.5734,-1.742 -4.0128,-2.197 -1.0481,-0.609 -0.3907,-1.946 -1.3079,-2.619 -1.9203,-0.725 -1.7414,-2.88 -2.6835,-4.276 -0.3036,-2.048 0.5695,-3.686 0.2628,-5.666 0.2407,-1.444 0.7207,-2.817 1.3102,-4.121 0.1969,-0.79 0.7176,-1.572 0.3695,-2.467 -0.4332,-1.247 0.5473,-2.219 0.3711,-3.444 -0.3918,-0.353 -0.0902,-0.981 -0.4808,-1.31 -0.0215,-0.543 -0.2809,-0.982 -0.4121,-1.462 -0.0235,-0.651 -0.3711,-1.176 -0.3043,-1.828 0.2601,-1.533 0.9128,-2.881 1.1972,-4.404 0.4156,-0.632 0.8266,-1.263 1.2434,-1.881 0.0203,-1.417 0.5664,-2.615 0.6996,-3.987 0.9141,-1.025 -0.3531,-1.92 -0.6996,-2.813 0.1758,-2.638 2.4207,-4.423 3.0531,-6.864 1.9863,-2.294 3.0734,-4.953 4.1215,-7.635 0.9801,-3.623 2.8125,-6.911 4.4473,-10.275 1.7668,-3.201 3.8808,-6.255 5.6472,-9.46 0.8266,-1.79 2.2039,-3.336 2.4664,-5.344 -1.0691,-1.637 1.4149,-2.203 1.525,-3.598 l -0.2175,-1.525 c 0.0425,-1.464 1.3292,-2.489 2.0472,-3.554 1.027,-1.88 1.6797,-3.927 3.4067,-5.455 0.7597,-2.592 3.7445,-4.029 4.9007,-6.43 1.8766,-2.835 3.7946,-5.625 5.6075,-8.48 0.737104,-1.048 2.134304,-1.834 2.351104,-3.075 3.3165,-4.494 7.8725,-7.525 11.0375,-12.15 4.054,-5.253 9.529,-9.001 13.976,-14.017 3.289,-3.053 6.78,-5.776 9.157,-9.42 0.872,-1.238 2.117,-2.052 2.945,-3.296 0.237,-1.174 1.046,-2.442 2.285,-2.721 1.33,-1.18 3.47,-0.372 5.129,-0.677 0.894,0.305 1.287,1.37 1.567,2.175 0.217,1.789 2.114,2.467 3.36,3.406 1.635,1.094 3.619,-0.589 5.189,0.633 0.175,0.523 -0.131,1.046 -0.108,1.53 0.066,0.499 0.807,0.957 0.367,1.412 -0.346,0.7 -1.326,1.068 -1.373,1.984 0.306,0.829 0.11,1.637 0.068,2.508 0.498,0.986 1.612,1.394 2.7,1.42 1.619,-1.376 3.952,0.02 5.76,-0.783 1.134,0.043 1.81,-1.136 2.987,-0.79 0.741,0.872 1.941,0.699 2.727,1.464 1.067,0.805 0.02,1.917 -0.22,2.771 -0.067,1.371 -0.937,2.394 -0.98,3.768 -0.154,2.508 3.007,2.532 3.447,4.665 0.893,1.491 -0.567,2.792 -0.158,4.494"
       style="fill:#0492d2;fill-opacity:1;fill-rule:nonzero;stroke:none;stroke-width:0.1"
       id="path22" /><path
       d="m 199.98724,402.63577 c -0.296,-0.067 -0.273,-0.406 -0.317,-0.663 0.068,-0.225 0.343,-0.271 0.547,-0.318 0.132,0.093 0.363,0.228 0.271,0.437 -0.139,0.205 -0.158,0.564 -0.501,0.544"
       style="fill:#ee2722;fill-opacity:1;fill-rule:nonzero;stroke:none;stroke-width:0.1"
       id="path24" /><path
       d="m 142.56424,266.98577 c 1.418,-1.373 1.218,-3.423 2.091,-5.016 0.286,-0.761 0.7,-1.434 0.831,-2.24 l 0.15,-0.117 c -0.281,-1.042 0.485,-1.76 0.634,-2.671 1.113,-3.824 2.616,-7.594 2.314,-11.87 -0.7,-1.782 -0.941,-4.187 -3.142,-4.883 -2.375,0.088 -4.602,0.807 -6.914,1.223 -1.373,0.409 -2.308,1.878 -3.708,2.248 l -0.477,-0.528 c 0.304,-2.904 1.703,-5.998 0.414,-8.897 -0.938,-1.242 -2.505,-1.198 -3.554,-2.31 -1.218,-0.587 -2.374,0.241 -3.663,0.108 -1.834,0.653 -3.555,1.635 -5.451,2.161 -3.118,2.116 -4.145,5.669 -5.802,8.68 l -1.09,2.876 c -0.849,1.852 -2.44,3.38 -2.267,5.651 -0.479,0.872 -1.834,1.717 -0.977,2.832 0.564,0.851 1.565,1.676 2.61,1.395 1.682,-1.462 1.834,-3.753 3.077,-5.499 1.678,-2.83 2.117,-6.169 4.185,-8.828 1.053,-1.569 2.573,-2.878 3.993,-4.185 0.85,-0.307 2.16,-0.37 2.988,0.041 0.807,-0.041 1.373,0.609 1.721,1.266 0.087,3.227 -0.128,6.126 -0.258,9.267 -0.203,1.329 -2.03,2.309 -1.049,3.82 0,1.131 -1.395,2.263 -0.22,3.296 0.48,0.496 1.092,0.956 1.724,0.664 1.83,-0.843 1.937,-2.983 3.357,-4.227 1.68,-2.291 4.232,-2.966 6.061,-4.965 0.873,-0.484 1.919,-0.554 2.879,-0.792 0.657,0.197 0.894,0.792 1.047,1.355 0.11,0.784 -0.413,1.33 -0.72,1.94 -0.917,2.553 -0.5,5.667 -1.567,8.161 -0.941,2.567 -1.552,5.292 -2.988,7.647 -0.242,0.896 -0.699,2.16 0,2.99 1.135,1.873 2.615,-0.136 3.771,-0.593"
       style="fill:#ffffff;fill-opacity:1;fill-rule:nonzero;stroke:none;stroke-width:0.1"
       id="path26" /><path
       d="m 125.72424,294.89777 c 0.046,-0.27 0.186,-0.526 0,-0.774 0.432,-1.184 0.865,-2.527 1.53,-3.712 1.29,-5.529 4.391,-11.126 2.409,-17.202 -0.391,-1.097 -1.572,-1.937 -2.685,-2.121 -2.937,0.026 -6.485,-0.683 -8.945,0.82 -1.253,1.254 -2.432,2.326 -3.939,2.939 l -0.157,-0.161 c 0.66,-2.089 0.249,-4.552 -0.706,-6.394 -0.772,-2.436 -3.39,-3.758 -5.806,-3.982 -2.246,0.183 -4.003,1.502 -6.1674,1.91 -2.094104,1.209 -3.411304,3.231 -5.141804,4.962 -0.4316,0.819 -0.409,1.867 -0.8636,2.681 0.3628,1.963 -0.6325,3.507 -0.5461,5.422 0.1578,0.478 0.5031,1.021 1.0464,1.182 0.7708,0.344 1.4356,-0.295 2.0704,-0.704 0.9578,-1.022 0.4343,-2.685 0.6593,-4.03 0.595,-2.436 1.753904,-4.779 3.870704,-6.46 2.0031,-0.368 3.4361,-2.458 5.7361,-1.8 2.022,0.411 2.706,2.64 3.437,4.208 0.133,3.667 -1.415,6.807 -1.846,10.332 -0.319,0.841 -1.021,1.824 -0.455,2.775 0.228,0.482 0.728,0.73 1.163,0.94 0.546,0.134 1.092,-0.027 1.523,-0.278 0.959,-1.161 0.708,-2.8 1.137,-4.161 1.003,-2.935 3.483,-5.804 6.352,-7.262 2.181,-0.707 4.961,-1.001 7.215,-0.164 1.297,1.257 1.34,3.125 1.41,4.922 -0.572,4.004 -1.14,8.032 -2.687,11.626 -0.455,1.323 -1.158,2.576 -1.912,3.78 -0.181,0.545 0.049,1.208 0.615,1.412 0.682,0.226 1.321,-0.119 1.683,-0.706"
       style="fill:#ffffff;fill-opacity:1;fill-rule:nonzero;stroke:none;stroke-width:0.1"
       id="path28" /><path
       d="m 166.30124,517.29177 c -0.363,0.526 -1.205,1.025 -1.271,1.754 -0.613,0.82 -1.548,1.366 -2.661,1.182 -0.96,0.773 -2.116,1.187 -3.007,1.981 -1.364,-0.111 -2.049,1.34 -3.346,1.412 -1.25,0.636 -2.618,1.022 -4.188,0.929 -0.498,0.504 -1.163,0.686 -1.546,1.324 -0.5,-0.409 -1.297,-0.204 -1.843,0 -1.161,1.276 -2.956,0.476 -4.325,1.25 -2.001,-0.091 -3.347,1.388 -5.3,1.482 -2.209,0.706 -4.759,0.591 -7.034,1.135 -3.986,1.526 -8.601,1.549 -12.995,2.072 -2.574,0.437 -5.145,0.297 -7.76,0.546 -1.302,0.48 -2.912,0.16 -4.166,0.706 -3.667,0.274 -7.123604,1.021 -10.922904,1.045 -0.5714,-0.228 -1.23,-0.228 -1.914,-0.228 -0.7051,0.228 -1.3203,0.936 -1.7977,1.549 -1.2707,0.569 -1.8179,-0.998 -2.9312,-0.998 -0.5492,-0.07 -1.3004,0.157 -1.825,-0.163 -1.4785,0.613 -3.1633,0.227 -4.7321,0.119 -0.7035,0.473 -1.6179,-0.026 -2.4144,0.225 -1.3383,-0.551 -2.8649,0.61 -4.2531,-0.181 -1.2547,-0.163 -2.2555,0.294 -3.3911,0.385 -0.6585,-0.548 -1.3441,0.135 -2.0281,0.155 -0.4746,0.07 -0.6113,-0.499 -0.9281,-0.744 -0.5059,-0.166 -0.9859,-0.686 -1.573,-0.347 -1.4348,-0.611 -2.7325,0.525 -4.1665,-0.088 -0.8886,0.137 -2.0023,1.412 -2.7273,0 -0.4562,-0.251 -0.802,0.157 -1.1871,0.269 -0.4109,-0.451 -0.9524,-0.655 -1.2055,-1.205 -1.2269,-0.549 -2.1414,-1.912 -3.7761,-1.477 -0.7098,-0.274 -0.4333,-1.022 -0.6633,-1.524 -0.3617,-0.274 -0.8832,-0.321 -1.3633,-0.227 -0.0668,-0.274 -0.4797,-0.502 -0.4797,-0.867 0.6379,-0.954 -0.568,-1.365 -0.8227,-2.136 -0.4058,-0.936 0.4141,-1.487 0.8227,-2.119 0.1164,-0.569 0.868,-0.866 0.7063,-1.551 0.775,-0.774 0.9117,-1.842 1.3667,-2.776 0.0922,-0.452 0.5899,-0.633 1.0461,-0.545 0.5469,0.504 1.3438,0.364 1.8438,0.977 0.6125,0.07 1.3898,0.161 1.8691,-0.271 1.9551,0.432 4.1407,0.248 6.1168,0.61 0.7051,0.825 1.9586,0.484 2.9356,0.484 0.3426,-0.112 0.6156,-0.411 1.0527,-0.386 1.0203,0.112 2.0449,0.249 3.0484,0.453 2.4106,0.68 5.1157,0.502 7.7153,0.365 0.6789,-0.274 1.6828,0.137 2.2719,-0.365 0.8691,0.569 1.7527,-0.204 2.6867,0.049 0.7758,0.657 1.9562,0.566 2.8898,0.497 1.3653,0.134 2.8696,0.023 4.0488,-0.546 0.1387,0.295 0.3196,0.639 0.6598,0.82 0.7762,0.295 1.3895,-0.251 1.843,-0.729 0.4801,0.183 0.9594,0.183 1.4355,0 1.368,-0.981 3.1192,-0.109 4.686404,-0.642 2.6198,-0.447 5.5108,-0.269 8.2418,-0.383 3.207,-0.157 5.985,-1.316 9.191,-1.433 2.801,-0.636 5.829,-0.755 8.558,-1.525 2.641,-0.045 4.895,-0.955 7.446,-1.208 0.725,-0.608 1.794,-0.363 2.66,-0.634 0.684,0.385 1.21,-0.274 1.869,-0.274 0.612,-0.181 1.089,-0.727 1.679,-0.934 1.211,0.411 1.732,-1.14 2.963,-0.817 1.138,-0.911 2.593,-1.161 3.778,-2.028 0.819,0.365 1.499,-0.225 2.344,-0.111 0.546,-0.114 1.022,-0.639 1.636,-0.434 1.228,-0.661 2.914,-0.161 3.873,-1.48 0.77,-0.499 1.227,0.481 1.977,0.388 0.98,0.181 1.343,1.319 2.185,1.754 1.16,-0.484 2.232,0.408 3.438,0.201 1.137,-0.201 1.526,1.205 2.389,1.549 0.045,0.934 1.296,1.118 1.475,1.958 -0.385,0.456 -0.132,1.229 -0.204,1.751"
       style="fill:#0492d2;fill-opacity:1;fill-rule:nonzero;stroke:none;stroke-width:0.1"
       id="path30" /><path
       d="m 57.503936,465.22477 c -0.1402,1.156 -1.8051,1.19 -2.0754,2.317 -0.8675,0.618 -1.0058,1.704 -2.0402,2.198 -0.5047,0.567 -1.0805,0.72 -1.5234,1.204 -0.986,0.437 -1.8536,1.158 -2.9567,1.303 -1.2156,0.225 -1.2258,1.5 -1.6426,2.426 -0.2015,1.073 -0.891,1.774 -1.6714,2.509 -0.3122,0.646 -0.3176,1.409 -0.7399,1.992 0.1367,0.737 -0.5008,1.191 -0.2617,1.903 0.2539,0.673 -0.3672,1.686 0.4141,2.139 -0.0055,0.905 0.4343,1.66 0.9347,2.336 0.8188,0.667 0.2707,1.944 0.7555,2.759 -0.0102,0.365 0.1734,0.665 0.1578,1.024 0.6176,0.64 0.1332,1.503 0.3375,2.261 0.4344,0.424 0.1449,1.156 0.577,1.58 -0.1372,0.725 0.6437,1.113 0.3828,1.86 0.6492,0.605 0.3504,1.699 0.8531,2.406 0.9781,0.416 1.1687,1.407 1.4914,2.278 0.2094,1.101 0.7937,2.036 1.1375,3.073 h 0.0336 l 0.0031,0.163 c 0.3488,0.558 0.459,1.254 0.8887,1.743 0.2246,1.107 0.7992,2.102 1.4676,2.987 0.4668,0.673 -0.75,1.035 -0.1153,1.671 -0.1422,0.383 -0.5742,0.318 -0.8148,0.719 -0.3442,0.319 -0.1098,0.758 -0.2211,1.11 0.1891,0.791 0.3105,1.492 0.6141,2.25 -0.1239,0.533 -0.7891,0.259 -1.1457,0.442 -1.1262,-0.217 -1.6317,-1.122 -1.9704,-2.105 -0.1386,-0.448 -0.8148,-0.636 -0.5617,-1.267 -0.5156,-0.704 -0.5597,-1.658 -1.2594,-2.331 -0.0531,-0.267 -0.0585,-0.543 -0.155,-0.794 -0.1442,-0.887 -0.6973,-1.495 -0.8992,-2.367 -0.0461,-0.693 -0.5793,-1.234 -0.584,-1.973 -0.3071,-0.936 -0.8567,-1.774 -0.9676,-2.765 -0.8988,-0.651 -0.5524,-1.994 -1.2211,-2.824 0.0289,-0.727 -0.802,-0.887 -0.725,-1.627 -0.4348,-0.776 -0.4957,-1.697 -0.7051,-2.571 -0.2496,-0.445 -0.3722,-0.934 -0.3773,-1.5 -0.2047,-0.507 -0.5852,-0.916 -0.4465,-1.578 -0.1207,-0.545 -0.6699,-0.964 -0.4109,-1.583 -0.5165,-0.47 -0.1594,-1.182 -0.4958,-1.746 l -0.23,-6.202 0.1285,-0.282 c 0.0101,-0.693 0.1984,-1.389 0.5762,-1.872 -0.2247,-0.528 0.0554,-1.058 0.2961,-1.505 0.0761,-0.647 0.5667,-1.11 0.7253,-1.705 -0.0207,-0.3 0.0274,-0.564 0.1219,-0.799 0.5871,-0.764 1.0633,-1.345 1.2363,-2.277 0.9934,-1.228 2.1754,-2.014 3.3317,-3.082 0.3773,-0.531 1.1973,-1.136 1.5348,-1.801 1.1136,-0.97 2.3613,-1.94 3.3082,-2.84 0.1558,-0.548 0.8148,-0.77 1.0394,-1.331 0.6715,-0.487 1.4277,-1.384 2.3305,-1.645 0.5625,0.028 0.7875,-0.634 1.4097,-0.44 0.7512,0.207 1.5407,0.031 2.2696,0.124 0.6078,0.044 1.0265,0.602 1.2465,1.143 -0.393,1.888 -2.4946,1.609 -3.386,2.892"
       style="fill:#0492d2;fill-opacity:1;fill-rule:nonzero;stroke:none;stroke-width:0.1"
       id="path32" /><path
       d="m 252.24424,500.67377 c -0.275,0.73 0.702,1.159 0.389,1.909 l -1.757,1.961 c -0.112,0.406 0.025,0.744 -0.34,0.998 -0.549,0.134 -1.162,0.026 -1.572,-0.339 -1.183,-0.411 -1.637,1.048 -2.459,1.591 -1.022,0.023 -1.976,0.181 -2.885,0.432 -0.891,0.339 -1.438,-0.634 -2.372,-0.225 l -0.82,0.455 c -0.839,0.207 -1.158,-0.934 -1.795,-1.322 -0.726,-0.429 -1.276,0.274 -1.842,0.546 -0.478,0.184 -1.096,0.091 -1.481,0.435 -0.707,0.566 -1.205,-0.321 -1.795,-0.479 -0.728,-0.432 -1.253,0.295 -1.984,0.202 -1.433,-0.476 -3.137,-0.406 -4.754,-0.476 -0.641,-0.344 -1.228,-1.138 -2.07,-0.657 -2.301,0.178 -4.371,-0.779 -6.761,-0.662 -1.478,-0.499 -3.344,-0.093 -4.641,-0.977 -2.776,-0.546 -5.92,-0.141 -8.648,-0.891 -1.004,-0.227 -2.071,-1.432 -3.1,-0.432 l -0.815,-0.475 c -0.867,-0.365 -1.345,0.543 -1.981,0.864 -0.617,0.067 -1.276,0.067 -1.843,0.225 -1.093,1.096 -2.757,0.819 -4.281,0.866 -0.729,-0.047 -1.295,-0.499 -2.068,-0.499 -0.548,-0.414 -0.616,-1.231 -1.298,-1.41 -1.344,0.473 -2.322,-0.618 -3.617,-0.551 -0.408,-0.222 -0.71,-0.726 -1.257,-0.592 -0.862,0.233 -1.409,-0.657 -2.23,-0.657 -0.818,-0.794 -1.977,-0.298 -3.069,-0.432 -1.297,-0.362 -2.686,1.001 -3.596,-0.344 -0.865,-1.182 -2.206,-0.476 -3.436,-0.589 -1.026,-0.546 -2.346,-0.844 -3.508,-0.546 -0.432,-0.458 -1.637,-0.616 -1.25,-1.523 -0.068,-0.482 -0.456,-0.821 -0.865,-1.007 -1.753,-0.088 -3.252,-0.613 -5.029,-0.817 -1.414,0.274 -2.415,-0.794 -3.619,-1.185 -2.524,-0.338 -4.735,-1.497 -7.306,-1.746 l -1.703,-0.714 c -2.167,-0.724 -4.532,-0.951 -6.602,-1.908 -2.844,-0.616 -5.647,-1.342 -8.308,-2.367 -0.526,-0.409 -1.092,-0.933 -1.797,-1.022 -1.119,0.202 -1.777,-0.959 -2.733,-1.256 -0.862,-0.864 -2.047,-0.888 -3.048,-1.363 -0.322,-0.067 -0.796,-0.321 -0.618,-0.773 -0.362,-0.293 -0.679,-0.681 -1.204,-0.596 -0.998,-0.881 -2.641,-0.473 -3.32,-1.909 -0.23,-0.504 -1.051,-0.863 -0.663,-1.479 -0.201,-0.455 -0.705,-0.592 -1.134,-0.43 -0.779,-0.615 -1.711,0.544 -2.346,-0.387 -0.388,-1.092 -1.504,-1.482 -2.529,-1.593 -0.236,0 -0.382,-0.076 -0.487,-0.187 -0.122,0.049 -0.242,0.104 -0.342,0.176 -0.641,0.173 -0.832,-0.634 -1.393,-0.776 -0.797,-0.096 -1.491,-0.367 -2.041,-0.822 -2.178,-1.645 -4.762,-2.395 -6.385,-4.606 -0.156,-0.761 -1.1893,-0.57 -1.3178,-1.291 -0.6504,-0.458 -1.2864,-1.11 -1.7207,-1.651 -0.6278,-0.307 -1.179704,-0.76 -1.628504,-1.368 0.071,-0.515 -0.2715,-0.825 -0.6079,-1.073 -0.1019,-0.523 -0.6656,-0.815 -1.0851,-1.123 -0.3035,-0.809 -1.266,-1.223 -1.7184,-1.813 -0.6082,-1.236 -1.1636,-2.599 -2.1496,-3.665 l -0.1328,-1.417 c 0.018,-0.197 0.2809,-0.38 0.243,-0.644 -0.2832,-0.326 -0.1567,-0.895 -0.1465,-1.303 -0.1992,-0.148 -0.102,-0.51 -0.0707,-0.676 0.1547,-0.613 -0.061,-1.306 0.4379,-1.821 0.4371,-1.096 0.9094,-2.144 1.2418,-3.264 0.5562,-0.336 0.3011,-1.027 0.4293,-1.671 0.3066,-0.483 0.005,-1.125 0.1324,-1.624 -0.902,-0.995 -1.1434,-2.131 -2.3281,-2.946 -0.2664,-0.344 -0.3375,-0.802 -0.6336,-1.065 -1.1797,-0.616 -2.2774,-1.449 -3.1633,-2.54 -0.0207,-0.546 0.534,-0.963 0.9773,-1.286 0.3805,0.145 1.0582,-0.142 1.3543,0.236 0.5996,0.54 1.3981,1.174 2.1129,1.626 0.5524,0.639 1.5406,0.466 2.1067,1.105 0.2679,0.442 1.075,0.033 1.2793,0.647 1.1261,0.496 1.6953,1.319 2.594104,2.087 -0.203904,0.727 0.327,1.215 0.6996,1.642 -0.0516,0.393 0.0707,0.725 0.2047,1.037 0.1703,0.396 -0.2914,0.499 -0.4375,0.748 0.6,0.641 -0.4059,0.897 -0.3281,1.523 -0.264104,0.298 -0.1106,0.812 -0.552804,1.063 0.0571,0.724 -0.7148,1.115 -0.5765,1.87 -0.459,0.254 -0.2551,0.797 -0.4696,1.081 -0.0921,0.363 0.0247,0.722 0.2145,1.017 -0.4238,0.685 0.127,1.334 0.2656,1.979 -0.0969,1.689 1.265604,2.793 1.383204,4.339 l 1.2059,1.71 c 0.8043,1.063 2.501,0.965 3.278,2.291 0.826,0.145 0.933,1.136 1.71,1.488 0.112,0.137 0.24,0.272 0.353,0.414 0.239,-0.388 0.531,-0.942 1.056,-0.96 1.067,-1.394 2.977,-0.895 3.866,-2.576 1.001,-0.204 2.093,-1.004 2.41,-2.025 0.506,-1.161 1.869,-1.257 2.778,-1.911 0.435,-0.251 0.454,-0.777 0.931,-0.936 1.116,-0.433 0.755,-1.708 1.642,-2.344 -0.253,-0.797 0.889,-1.068 0.659,-1.798 1.093,-0.908 2.277,-1.546 3.778,-1.477 0.388,0.021 0.774,0.223 1.093,-0.16 0.475,-1.342 2.319,-0.864 2.503,-2.415 0.523,-0.613 1.323,-1.089 2.231,-1.019 1.93,0.566 3.253,-1.164 5.256,-0.554 1.004,-0.109 1.887,-0.628 2.94,-0.427 0.791,-0.501 1.772,-0.478 2.681,-0.613 1.368,-1.143 2.548,0.476 3.939,0.43 1.162,-0.57 2.139,0.32 3.161,0.61 1.276,0.253 1.958,-1.017 3.233,-0.61 0.252,0.162 0.686,-0.091 0.865,0.227 0.026,0.318 -0.388,0.458 -0.5,0.706 -0.162,0.298 0.068,0.57 0.23,0.82 1.955,0.843 4.345,0.634 6.122,1.912 1.886,1.683 4.82,0.91 6.824,2.345 2.005,-0.069 3.551,0.885 5.302,1.477 1.323,0.955 3.05,1.004 4.53,1.643 2.16,0.294 3.914,1.632 6.212,1.585 1.8,1.076 3.916,1.412 5.895,2.077 1.23,0.383 2.755,0.044 3.94,0.543 2.636,1.05 6.098,0.117 8.535,1.64 1.455,0.776 3.344,0.499 4.958,0.866 1.549,0 2.712,0.867 4.212,0.932 1.614,-0.479 3.116,0.341 4.481,0.977 1.391,0.093 2.415,1.141 3.873,1.097 l 1.363,1.547 c 0.113,1.135 0.979,1.981 1.525,2.933 0.228,0.907 0.731,2.004 1.795,2.138 0.388,0.207 0.802,-0.18 1.164,0.114 0.774,0.844 1.818,1.345 2.845,1.731 1.161,0.525 1.592,1.777 2.823,2.139 1.41,-0.093 2.068,1.618 3.388,1.683 1.277,0 2.32,0.911 3.617,0.502 0.573,-0.316 0.823,0.272 1.14,0.593 0.411,0.478 0.983,0.546 1.593,0.496 0.368,0.254 0.704,0.706 0.979,1.097 0.09,0.659 1.275,1.135 0.593,1.865 -0.068,0.318 -0.138,0.776 0.157,1.027 -0.131,0.887 0.731,1.432 0.344,2.34 0.138,0.595 0.75,0.66 1.135,1.004 0.984,0.569 1.734,-0.913 2.618,-0.07 0.413,0.822 -0.569,1.026 -0.978,1.637 -0.866,0.597 0.32,1.206 -0.385,1.868 0.52,1.135 1.817,1.117 2.567,2.027 1.438,0.75 3.415,0.613 4.987,0.546 0.294,0.021 0.57,0.362 0.546,0.706 0.547,0.797 0.682,1.772 0.911,2.732 -0.275,1.088 0.797,1.655 1.482,2.232 l 0.157,0.931 -0.75,0.819"
       style="fill:#f9a721;fill-opacity:1;fill-rule:nonzero;stroke:none;stroke-width:0.1"
       id="path34" /><path
       d="m 64.818836,431.68377 c 0.3218,-0.355 0.0867,-0.776 -0.0153,-1.143 0.0973,-0.161 0.1278,-0.445 -0.0054,-0.593 -0.4125,-0.209 -0.9903,-0.041 -1.3063,-0.432 -0.568,-0.457 -0.6281,-1.577 -1.5734,-1.715 -0.5824,-0.294 -0.4231,-0.92 -0.7555,-1.319 -0.4566,-0.835 -0.9598,-1.735 -0.8199,-2.759 -0.7891,-1.05 -0.1762,-2.543 -0.436,-3.828 0.0922,-0.644 0.4489,-1.325 0.127,-1.979 0.4754,-0.452 0.9812,-0.786 0.9762,-1.534 0.291,-0.426 0.8019,-0.566 1.1121,-0.949 l 1.2183,-0.178 c 0.7512,-0.88 2.1063,-0.817 3.1629,-0.711 0.8785,0.323 1.591,0.925 2.5555,1.13 0.4953,0.207 0.4062,1.117 1.2258,0.814 0.7476,0.088 1.182,0.696 1.9554,0.704 0.7817,0.388 1.5641,0.727 2.1938,1.363 0.3672,0.375 1.0008,0.636 1.3172,1.128 0.4879,0.587 0.7098,1.511 1.6039,1.733 0.132,0.194 0.3828,0.279 0.6324,0.224 0.2563,-0.48 1.1391,0.337 0.986,-0.555 0.2558,-0.236 0.6019,-0.352 0.546,-0.735 -0.3136,-0.422 -0.3214,-0.998 -0.6863,-1.412 -0.3984,-1.596 0.2496,-2.956 0.7477,-4.278 0.6488,-0.688 0.8535,-1.826 1.8441,-2.201 0.7914,-0.158 1.5102,-0.463 2.1676,-0.98 0.8094,-0.14 1.3297,-1.037 2.0519,-1.327 0.5266,0.062 0.8356,-0.422 1.3762,-0.375 1.0574,-0.492 2.1801,0.01 3.1762,0.295 2.3394,1 4.4527,2.482 5.5973,4.767 0.3464,0.421 0.8464,0.612 1.3421,0.744 0.595,-0.075 1.2657,-0.282 1.4938,-0.889 0.3695,-0.699 -0.2125,-1.387 -0.0531,-2.132 -0.3375,-0.39 -0.291,-0.972 -0.7735,-1.264 -0.0754,-0.921 -1.2648,-0.893 -1.5195,-1.65 -0.1484,-0.014 -0.2352,-0.177 -0.3477,-0.275 -0.1421,-0.691 -0.9515,-0.835 -1.4019,-1.324 -0.7981,-0.171 -1.2016,-0.98 -2.0734,-0.941 -0.4508,-0.57 -1.3446,-0.526 -2.0387,-0.735 -1.6676,-0.233 -3.5387,-0.789 -5.1473,0.018 -1.0426,-0.266 -1.6492,0.484 -2.5203,0.623 -0.8043,0.533 -2.009,0.497 -2.3645,1.408 -0.7367,0.62 -1.6167,1.655 -2.4687,2.208 -0.1781,0.217 -0.2547,0.479 -0.273,0.761 -0.7333,0.804 -0.8192,2.022 -1.8387,2.596 -0.8211,0.205 -1.3578,-0.331 -2.0649,-0.429 -0.9339,-0.334 -1.4339,-1.104 -2.4746,-1.275 -0.7703,-0.882 -2.0699,-0.476 -2.9027,-1.241 -1.2922,-0.254 -2.6609,-0.254 -4,-0.391 -1.0449,-0.3 -2.0965,0.01 -2.9344,0.546 -0.1426,0.413 -0.6894,0.403 -0.9805,0.719 -1.4601,0.788 -2.2562,2.219 -3.0531,3.517 -0.0101,0.595 -0.4824,0.993 -0.5445,1.557 -0.4645,1.193 -0.8496,2.517 -0.6688,3.885 -0.2726,0.794 -0.3593,1.95 0.2731,2.656 -0.0457,0.414 0.4058,0.624 0.4707,0.986 -0.118,0.941 0.4012,1.712 0.5059,2.602 0.5195,0.571 1.3214,1.239 1.4597,2.134 0.8024,0.815 1.5094,2.076 2.7934,1.916 0.3984,0.326 0.6527,1.032 1.3476,0.928 0.661,0.024 1.3075,0 1.7821,-0.413"
       style="fill:#0492d2;fill-opacity:1;fill-rule:nonzero;stroke:none;stroke-width:0.1"
       id="path36" /><path
       d="m 200.75824,405.43377 c -0.204,0.572 0.414,1.231 -0.225,1.684 -0.16,1.14 -0.071,2.32 -0.477,3.437 1.157,1.64 -1.458,2.413 -0.816,4.095 -0.595,0.843 -0.552,1.96 -1.551,2.62 -0.43,1.728 -2.524,1.683 -3.097,3.274 -1.204,0.642 -2.459,1.187 -3.727,1.642 -1.167,-0.204 -2.12,0.841 -3.326,0.388 -0.162,-0.504 -0.982,-0.711 -0.864,-1.21 0.974,-0.727 2.345,-0.499 3.319,-1.296 1.164,0.16 2.139,-0.435 3.007,-1.159 0.91,-0.411 1.338,-1.476 2.411,-1.639 1.572,-0.272 1.551,-1.981 2.002,-3.094 -0.113,-0.799 -0.955,-0.481 -1.363,-0.934 -0.322,-0.706 0.773,-1.07 1.093,-1.528 0.794,-0.975 1.727,-2.043 1.434,-3.347 0.591,-0.82 0.089,-1.702 -0.342,-2.454 -0.843,-0.024 -0.298,-0.934 -0.914,-1.138 -1.205,0.343 -1.864,1.57 -2.569,2.503 -0.455,0.662 -0.091,1.299 0.046,1.984 -0.276,0.362 -0.551,0.882 -1.026,1.024 -1.499,0.269 -1.797,1.976 -2.957,2.682 -0.551,0.75 -1.687,1.208 -1.639,2.232 -0.117,0.497 -0.658,0.432 -0.935,0.821 -1.025,-0.278 -2.231,-0.05 -3.048,0.656 -0.842,2.163 -3.321,1.252 -4.688,2.571 -1.276,-0.227 -2.142,0.864 -3.507,0.549 -0.521,0.248 -1.045,0.545 -1.64,0.659 -1.366,-0.569 -2.501,0.342 -3.868,0.274 -0.436,0.158 -0.886,0.569 -1.366,0.272 -0.933,0.388 -2.091,0.14 -3,0.202 -0.503,-0.339 -1.187,-0.45 -1.824,-0.316 -0.613,0.411 -1.457,0.254 -2.071,0.703 -0.953,0.184 -1.979,0.298 -2.935,0.319 -1.092,-0.706 -2.251,0.183 -3.459,-0.27 l -0.862,0.771 c -0.799,0.044 -1.53,0.298 -2.235,0.598 -0.543,0.246 -0.954,0.864 -1.547,0.996 -0.909,-0.272 -1.889,-0.248 -2.66,0.318 -0.704,-0.181 -0.935,0.752 -1.593,0.659 -1.027,-0.222 -2.05,-0.017 -3.121,-0.16 l -0.43,-0.269 c -0.571,-0.96 -0.07,-2.118 0,-3.119 0.385,-0.82 1.319,-1.206 1.978,-1.801 0.342,-0.181 0.685,-0.545 0.75,-0.931 0.05,-0.977 -1.02,-1.158 -1.682,-1.477 -1.046,-0.364 -1.523,0.999 -2.571,0.821 -0.75,0.773 -1.935,0.041 -2.778,0.587 -0.566,-0.611 -1.297,-0.161 -2.02,-0.205 -1.096,-0.566 -2.351,-0.75 -3.352,-1.59 -0.705,-0.067 -1.225,-0.727 -2.002,-0.478 -1.682,0.066 -1.276,-2.458 -3.071,-2.029 -1.846,-0.747 -2.571,-2.819 -3.004,-4.596 -0.524,-0.954 -1.568,-1.707 -1.844,-2.777 0.458,-1.501 -1.091,-2.251 -1.981,-3.161 0.091,-0.595 -0.455,-1.161 0.069,-1.64 -0.112,-0.683 0.498,-1.48 -0.339,-1.862 -0.321,-0.073 -0.797,-0.161 -1.028,0.155 -0.134,0.298 -0.453,0.522 -0.339,0.933 0.912,0.914 -0.364,1.868 0.069,2.848 -0.249,0.771 0.362,1.34 0.547,2.023 -0.185,0.295 -0.046,1.024 -0.66,0.864 -0.888,-0.681 -0.775,-1.862 -0.938,-2.887 -0.634,-1.073 -0.11,-2.62 -0.657,-3.714 0.434,-0.82 0.023,-2.002 0.657,-2.728 0.32,-0.779 -0.608,-1.366 -0.042,-2.093 -0.684,-1.094 1.024,-1.666 0.547,-2.827 0.339,-1.021 0.247,-2.02 0.271,-3.186 0.98,-0.748 0.227,-2.043 0.914,-2.934 0.316,-0.41 -0.115,-0.843 -0.047,-1.205 l 1.247,-1.141 c -0.088,-2.069 2.323,-3.09 1.986,-5.252 -0.204,-0.297 -0.049,-0.661 0,-0.98 0.975,-0.639 1.185,-1.752 1.521,-2.618 -0.294,-0.683 0.343,-1.114 0.161,-1.795 1.205,-1.409 1.409,-3.212 2.229,-4.759 0.796,-1.022 1.093,-2.253 1.866,-3.277 1.459,-2.846 3.731,-5.416 6.325,-7.531 1.439,-0.932 2.758,-2.12 4.278,-2.844 2.463,-1.711 5.147,-2.941 8.197,-3.281 2.113,-0.044 4.094,-0.704 6.096,-1.163 1.072,-0.885 2.096,-1.793 3.283,-2.5 0.614,0.021 1.384,-0.07 1.911,0.274 0.178,0.254 0.045,0.502 0,0.77 0.474,0.912 1.685,0.505 2.526,0.753 0.568,-0.546 1.16,0.137 1.798,0.068 1.114,-0.821 2.342,0.091 3.503,0.16 0.498,0.383 1.159,0.681 1.798,0.432 l 1.955,0.706 c 0.527,0.295 1.256,0.067 1.64,0.66 1.368,0.224 2.593,0.773 3.666,1.639 2.134,1.933 4.851,2.548 7.144,4.095 2.027,1.823 3.985,3.758 6.078,5.466 0.886,0.636 1.821,1.519 1.958,2.614 0.568,0.75 -0.024,1.979 0.772,2.617 1.368,0.998 1.342,2.572 1.915,3.893 0.293,0.932 -0.501,1.43 -0.664,2.186 0.595,0.589 -0.045,1.473 0.551,2.069 -0.163,0.452 -0.776,0.569 -0.551,1.205 0.141,0.592 0.845,0.388 1.093,0.82 0.183,2.299 1.912,3.94 2.507,6.055 0.064,0.615 -0.411,1.298 0.224,1.797 -0.16,1.002 1.001,1.798 0.274,2.685 0,0.592 0.727,0.726 0.818,1.319 -0.27,0.636 0.364,1.614 -0.43,2.116 -0.254,0.683 0.113,1.228 0.546,1.706 -0.252,0.365 -0.043,0.777 0.161,1.095 -0.345,0.89 0.929,1.704 -0.07,2.46 0.547,1.321 -1.368,1.156 -1.732,2.113 0.094,1.164 -0.43,2.164 -0.547,3.282 0.161,0.543 0.777,0.543 1.095,0.975 0.909,0.254 0.567,-1.158 1.525,-0.975 0.411,0.385 -0.32,0.543 -0.231,0.928 -0.066,0.435 0.164,0.774 0.501,1.048"
       style="fill:#ee2722;fill-opacity:1;fill-rule:nonzero;stroke:none;stroke-width:0.1"
       id="path38" /><path
       d="m 122.87024,426.00177 c 0.742,0.186 1.484,-0.065 2.226,-0.107 0.678,0.143 1.422,0.034 2.05,0.063 0.874,0.072 1.379,-0.479 2.221,-0.472 0.72,-0.4 1.784,-0.038 2.487,-0.504 0.561,0.127 0.855,-0.388 1.386,-0.365 0.361,-0.294 1.001,-0.318 1.415,-0.126 0.501,0.093 1.044,0.026 1.35,-0.344 0.894,0.039 1.446,0.763 2.385,0.538 0.676,-0.075 1.266,-0.274 1.925,-0.381 0.648,0.208 0.422,0.766 0.543,1.26 -0.226,0.468 -0.42,0.993 -0.98,1.123 -0.577,-0.065 -0.883,0.45 -1.462,0.344 -1.134,0.471 -2.149,1.192 -3.386,1.42 -1.848,0.07 -3.8,0.139 -5.39,0.91 -0.316,0.09 -0.679,0.026 -0.942,0.209 -1.378,0.298 -2.749,0.624 -4.284,0.572 -0.482,-0.24 -1.093,-0.186 -1.649,-0.178 -0.841,0.385 -1.723,-0.13 -2.63,-0.057 -0.49,0.121 -1.154,0.132 -1.665,0.018 -0.446,0.155 -0.715,-0.323 -1.108,-0.036 -1.075,0.075 -2.279,-0.16 -2.818,-1.193 -0.107,-0.68 -0.28,-1.318 -0.537,-1.942 0.363,-0.37 0.373,-1.014 0.848,-1.35 1.037,-0.538 2.145,0.062 3.059,0.364 1.489,0.386 3.376,0.743 4.956,0.234"
       style="fill:#ee2722;fill-opacity:1;fill-rule:nonzero;stroke:none;stroke-width:0.1"
       id="path40" /><path
       d="m 74.163736,380.92777 -1.3285,-3.991 1.3285,-1.769 2.6601,1.769 0.4446,3.991 -1.7742,0.438"
       style="fill:#0492d2;fill-opacity:1;fill-rule:nonzero;stroke:none;stroke-width:0.1"
       id="path42" /><path
       d="m 315.46124,384.88477 c -0.769,1.114 -2.116,1.55 -3.391,1.091 -0.797,-0.457 -1.752,-1.228 -1.363,-2.39 0.388,-0.794 1.231,-1.111 2.066,-0.887 0.414,0.57 1.165,0.225 1.599,0.704 0.201,0.662 1.179,0.707 1.089,1.482"
       style="fill:#ee2722;fill-opacity:1;fill-rule:nonzero;stroke:none;stroke-width:0.1"
       id="path44" /><path
       d="m 279.57424,376.69177 c 0.341,-0.821 0.294,-2.161 1.524,-2.233 0.478,-0.479 0.91,0 1.482,-0.225 0.338,0.316 0.907,0.09 1.202,0.547 0,0.226 0.228,0.475 0,0.658 0.138,1.253 -0.568,2.257 -0.613,3.507 -0.775,1.224 0.634,2.205 0.388,3.549 -0.525,0.957 -1.687,1.091 -2.734,1.135 -0.682,-0.227 -1.432,-0.86 -1.52,-1.637 0.088,-1.616 -0.231,-3.709 0.271,-5.301"
       style="fill:#ee2722;fill-opacity:1;fill-rule:nonzero;stroke:none;stroke-width:0.1"
       id="path46" /><path
       d="m 331.57424,350.19977 c -0.386,0.753 0.047,1.433 -0.157,2.25 -0.681,0.96 -0.613,2.302 -1.708,3.008 -0.615,0.66 -1.024,1.685 -2.071,1.726 -1.433,1.233 -3.554,0.825 -4.754,2.573 -1.071,1.643 -2.573,2.941 -2.895,4.876 -0.091,0.75 -0.747,1.52 -0.27,2.225 1.052,0.506 2.298,0.389 3.436,0.659 1.337,0.776 2.98,0.845 4.208,1.87 1.001,0.432 1.961,1.387 2.575,2.343 0.23,1.209 0.957,2.621 0.207,3.823 -1.367,1.865 -3.304,3.005 -5.673,2.78 -1.979,-0.204 -3.727,-0.915 -5.347,-1.961 -1.342,-1.001 -2.5,-2.162 -3.344,-3.551 -0.136,-0.591 -0.524,-1.161 -0.434,-1.753 -0.409,-0.727 -0.09,-1.73 -0.499,-2.455 0.07,-2.436 0.591,-4.831 1.479,-6.988 1.456,-2.209 3.073,-4.71 5.53,-6.006 0.271,-0.436 0.476,-0.82 0.983,-1.052 0.588,-1.296 2.159,-1.157 3.114,-2.067 0.639,-1.319 1.567,-2.504 1.8,-3.982 -0.391,-1.116 -1.278,-2.28 -2.46,-2.621 -0.228,-0.313 -0.478,-0.592 -0.498,-0.999 0.203,-0.473 0.703,-0.473 1.091,-0.636 2.317,0 4.141,2.049 5.03,3.983 0.293,0.611 0.771,1.163 0.657,1.955 m -11.585,22.783 c 1.276,1.84 3.304,2.802 5.626,2.342 l 0.496,-0.318 c 0.414,-0.457 0.753,-1.001 0.546,-1.638 -0.111,-1.456 -1.632,-2.187 -2.798,-2.616 -1.366,-0.389 -2.889,-0.892 -4.366,-0.616 -0.729,0.907 0.179,1.955 0.496,2.846 v 0"
       style="fill:#ee2722;fill-opacity:1;fill-rule:nonzero;stroke:none;stroke-width:0.1"
       id="path48" /><path
       d="m 307.47424,374.18977 c 0.254,-2.596 -0.156,-5.031 -0.476,-7.444 -0.116,-1.593 -0.21,-2.982 -0.433,-4.529 0,-1.251 -0.069,-2.55 0.433,-3.551 0.587,-0.546 1.202,-0.07 1.955,-0.205 0.8,0.475 1.64,0.982 2.297,1.638 -0.476,0.887 -0.636,1.89 -0.703,2.938 0.408,3.301 0.683,6.736 1.021,9.99 0.209,0.408 0.324,0.865 0.344,1.324 -0.753,0.841 -1.818,1.132 -2.891,1.249 -0.592,-0.297 -1.226,-0.819 -1.547,-1.41"
       style="fill:#ee2722;fill-opacity:1;fill-rule:nonzero;stroke:none;stroke-width:0.1"
       id="path50" /><path
       d="m 298.53024,368.22577 c -0.566,1.251 -1.708,2.273 -2.028,3.615 1.343,1.663 3.895,-0.064 5.306,1.41 0.208,0.231 0.729,-0.021 0.75,0.438 -1.16,2.231 -4.142,1.523 -5.939,0.976 -1.526,-0.75 -3.412,-1.026 -4.371,-2.658 0.066,-1.301 0.388,-2.646 1.254,-3.621 1.384,-2.939 3.435,-5.554 4.643,-8.559 0.773,-2.407 2.227,-5.005 1.251,-7.645 -0.547,-0.572 -0.889,-1.371 -1.639,-1.71 -0.249,-0.09 -0.704,-0.228 -0.935,0.067 -0.156,0.161 -0.548,0.161 -0.706,-0.067 -0.179,-0.818 -1.678,-1.202 -0.979,-2.115 0.594,-1.072 1.823,-0.727 2.783,-0.727 1.836,0.747 3.478,2.118 4.753,3.732 1.457,1.774 1.18,4.369 0.663,6.487 -0.869,3.776 -3.143,6.963 -4.806,10.377"
       style="fill:#ee2722;fill-opacity:1;fill-rule:nonzero;stroke:none;stroke-width:0.1"
       id="path52" /><path
       d="m 254.99124,347.58277 c -0.451,4.643 -0.723,9.353 -3.229,13.154 -0.161,0.474 -0.636,0.888 -1.184,0.821 -0.815,-0.065 -1.979,0.499 -2.571,-0.476 -1.048,-1.845 -2.553,-3.484 -3.074,-5.533 -0.682,-0.96 -0.634,-2.203 -1.297,-3.166 -0.226,-0.183 -0.407,0.067 -0.547,0.228 -0.225,3.802 -0.612,7.627 -0.929,11.515 0.092,0.89 -0.297,2.095 0.545,2.529 -0.318,0.135 -0.25,0.523 -0.502,0.753 -1.114,1.001 -2.999,0.569 -3.913,-0.55 0.163,-6.689 1.066,-13.357 1.73,-19.978 0.138,-3.779 1.251,-7.216 1.364,-10.929 0.111,-0.524 0.592,-0.75 1.003,-0.976 1.023,-0.389 1.659,0.545 2.454,0.913 0.252,0.678 1.117,0.953 1.03,1.748 -1.117,1.844 -0.597,4.259 -0.663,6.396 0.454,4.257 1.797,8.106 3.074,12.016 0.133,0.254 0.204,0.704 0.59,0.704 0.912,-0.543 0.912,-1.776 1.25,-2.728 0.251,-2.321 0.889,-4.553 0.889,-6.94 0.523,-2.524 0.297,-5.375 0.82,-7.923 0.271,-0.957 -0.205,-2.229 0.817,-2.885 1.276,-0.363 2.052,0.773 3.048,1.249 0.14,0.475 0.844,0.592 0.777,1.091 -1.388,2.618 -0.911,6.006 -1.482,8.967"
       style="fill:#ee2722;fill-opacity:1;fill-rule:nonzero;stroke:none;stroke-width:0.1"
       id="path54" /><path
       d="m 284.76324,336.61377 c -0.66,4.62 -0.502,9.443 -0.774,14.197 -0.091,1.184 0.044,2.395 -0.321,3.554 -0.021,3.142 -0.361,6.396 -0.543,9.609 l -0.32,0.429 c -0.909,0.409 -2.231,1.133 -3.12,0.23 -0.567,-0.553 -0.91,-1.189 -0.98,-1.92 0.822,-1.313 0.413,-2.956 0.755,-4.476 0.271,-5.078 0.593,-10.243 0.771,-15.408 0.117,-3.145 0.889,-6.147 0.592,-9.329 0.135,-0.461 0.115,-1.029 0.659,-1.255 0.932,0 1.961,0.342 2.507,1.206 1.821,0.207 0.432,2.139 0.774,3.163"
       style="fill:#ee2722;fill-opacity:1;fill-rule:nonzero;stroke:none;stroke-width:0.1"
       id="path56" /><path
       d="m 275.70524,348.99177 c -0.274,0.756 -1.095,0.686 -1.55,1.208 -0.568,3.146 -1.774,6.032 -3.274,8.804 -1.8,3.166 -5.08,5.099 -8.675,5.076 -0.634,0.206 -1.34,-0.223 -1.912,0.164 -0.707,-0.48 -2.046,-1.183 -1.749,-2.303 0.226,-0.383 0.637,-0.794 1.042,-1.022 0.434,-0.114 0.961,-0.114 1.301,0.204 1.458,-0.02 2.754,-0.453 3.891,-1.296 2.484,-1.911 3.596,-4.805 4.69,-7.488 0.044,-0.364 0.589,-0.729 0.158,-1.091 -1.39,0.114 -2.752,-0.16 -3.979,-0.615 -3.214,-1.389 -6.536,-3.348 -8.511,-6.554 -0.664,-1.503 0.543,-2.551 1.455,-3.482 2.047,-1.231 4.819,-1.392 7.168,-0.711 4.136,1.437 8.058,4.304 10.648,8.196 -0.225,0.363 -0.612,0.504 -0.703,0.91 m -5.303,-3.708 c -1.663,-1.501 -3.618,-2.341 -5.576,-3.167 -0.91,-0.16 -2.072,-0.475 -2.778,0.278 -0.545,0.569 -1.365,1.184 -1.047,2.071 1.823,2.347 4.415,3.552 6.938,4.526 1.233,0.252 1.916,-0.928 2.507,-1.727 -0.406,-0.683 0.365,-1.342 -0.044,-1.981 v 0"
       style="fill:#ee2722;fill-opacity:1;fill-rule:nonzero;stroke:none;stroke-width:0.1"
       id="path58" /><path
       d="m 235.60424,333.17677 c -0.639,-0.525 -1.68,-0.546 -2.411,-0.228 -2.757,0.934 -4.623,3.712 -5.553,6.283 -1.187,4.071 -0.184,8.489 2.73,11.401 1.047,0.864 2.275,-0.595 3.278,0.455 0.203,0.752 1.067,0.522 1.411,1.094 -0.528,0.841 -1.411,1.299 -2.23,1.639 -3.345,0.791 -5.574,-2.324 -7.17,-4.642 -2.775,-3.758 -2.867,-10.041 -0.59,-14.047 1.751,-2.979 4.801,-5.551 8.462,-5.302 1.025,0.16 2.026,0.432 2.892,0.977 0.523,1.165 1.933,1.392 2.412,2.574 l -1.273,1.412 c -1.117,0.293 -1.093,-1.158 -1.958,-1.616"
       style="fill:#ee2722;fill-opacity:1;fill-rule:nonzero;stroke:none;stroke-width:0.1"
       id="path60" /><path
       d="m 207.70224,317.97377 c -5.78,4.034 -11.585,7.922 -17,12.743 l -0.113,0.271 c 1.57,1.211 3.114,2.67 4.71,3.919 1.96,1.159 3.595,3.143 5.893,3.504 0.82,0.727 2.209,1.34 2.301,2.572 -0.571,0.776 -1.617,1.184 -2.573,0.912 -0.59,-0.367 -1.206,-0.754 -1.751,-1.298 -2.394,-1.409 -4.62,-3.236 -6.874,-4.984 -0.866,-0.499 -1.182,-1.666 -2.253,-1.686 -0.433,0.388 -0.344,1.071 -0.589,1.593 0.11,1.503 -0.593,2.799 -0.664,4.303 -0.474,1.114 -0.59,2.393 -0.862,3.619 0,1.162 -0.185,2.39 -0.118,3.642 l -0.27,0.388 c -0.749,0.111 -1.48,0.657 -2.23,0.158 -0.728,-0.207 -1.137,-0.844 -1.32,-1.528 0.316,-1.181 0.183,-2.363 0.385,-3.59 0.55,-3.578 1.208,-7.129 2.183,-10.54 0.049,-0.888 -1.07,-1.433 -0.813,-2.455 0.175,-1.161 1.905,-1.345 1.905,-2.622 0.757,-4.007 1.982,-7.76 2.739,-11.743 0.516,-1.159 -0.346,-3.347 1.52,-3.663 0.545,0.41 1.681,0 1.753,0.981 0.726,0.678 1.386,1.541 1.409,2.504 -0.683,0.54 -0.705,1.365 -0.822,2.138 -1.154,2.002 -1.271,4.459 -2.068,6.598 l 0.163,0.231 c 0.154,0 0.357,0.018 0.495,-0.046 4.029,-3.071 8.4,-5.874 12.133,-9.563 1.389,-0.613 2.321,0.73 3.161,1.527 0.322,0.433 0.48,0.932 0.592,1.479 -0.251,0.341 -0.656,0.478 -1.022,0.636"
       style="fill:#ee2722;fill-opacity:1;fill-rule:nonzero;stroke:none;stroke-width:0.1"
       id="path62" /><path
       d="m 213.16124,344.42477 c -0.839,0.064 -1.407,-0.553 -2.18,-0.553 -1.164,-0.908 -2.551,-1.224 -3.554,-2.455 -1.843,-2.005 -4.096,-3.805 -5.029,-6.235 -0.613,-1.524 -0.568,-3.552 0.388,-4.92 1.046,-2.181 3.393,-3.753 5.826,-3.593 1.823,-0.23 3.162,0.703 4.549,1.526 3.37,2.571 6.103,5.897 8.195,9.397 -0.158,1.231 -0.25,2.615 -1.161,3.597 -1.659,2.39 -4.301,3.073 -7.034,3.236 m 1.46,-11.636 c -1.71,-1.432 -3.278,-3.551 -5.667,-3.003 -1.71,0.636 -2.936,2.437 -3.162,4.141 -0.208,2.413 1.978,4.277 3.708,5.896 0.59,0.044 1.231,-0.343 1.798,0.112 0.639,0.936 1.774,0.641 2.505,1.324 1.774,0.019 3.116,-1.552 3.729,-3.006 0.069,-2.258 -1.547,-3.821 -2.911,-5.464 v 0"
       style="fill:#ee2722;fill-opacity:1;fill-rule:nonzero;stroke:none;stroke-width:0.1"
       id="path64" /><path
       d="m 183.33124,322.34777 c 0.02,0.247 0.178,0.27 0.27,0.496 -0.113,0.184 -0.368,0.298 -0.546,0.433 -1.001,1.98 -1.619,4.095 -3.278,5.808 -2.548,3.024 -5.784,5.413 -9.56,6.047 -2.82,0.408 -5.576,-0.207 -7.419,-2.227 -0.862,-1.507 -2.456,-3.277 -1.206,-5.028 1.778,-1.394 2.095,1.456 3.279,2.113 -0.068,0.344 -0.14,0.796 0.271,0.998 1.139,0.613 2.481,0.846 3.89,0.642 3.961,-0.776 7.511,-4.073 9.382,-7.689 -0.07,-0.137 -0.21,-0.322 -0.364,-0.322 -2.052,0.226 -4.371,0.479 -6.467,0 -3.027,-0.521 -5.572,-2.185 -8.014,-4.095 -1.067,-1.48 -2.047,-2.986 -1.706,-5.035 0.911,-2.614 3.438,-4.663 5.898,-5.684 4.688,-1.685 10.494,-0.681 15.451,-0.662 l 0.661,0.501 c 0.545,1.048 2.754,1.915 1.528,3.322 -0.276,3.644 -1.049,7.083 -2.07,10.382 m -1.961,-10.316 c -0.411,-1.52 -2.367,-0.928 -3.664,-1.156 -1.433,-0.408 -2.982,0.088 -4.415,0 -3.048,0.521 -6.53,2.318 -7.485,5.577 -0.092,2.211 2.318,2.936 3.819,3.779 1.573,0.312 3.6,1.792 4.918,0 l 0.705,-0.35 c 0.48,-0.493 1.117,-0.698 1.799,-0.54 0.977,0.155 1.614,1.293 2.683,0.998 0.731,-1.728 1.001,-3.642 1.481,-5.457 0,-0.983 0.639,-1.964 0.159,-2.851 v 0"
       style="fill:#ee2722;fill-opacity:1;fill-rule:nonzero;stroke:none;stroke-width:0.1"
       id="path66" /><path
       d="m 159.63824,305.58877 c -2.12,-0.452 -4.371,-0.245 -6.442,-0.609 -2.71,-0.37 -5.304,-1.301 -8.101,-1.092 -0.301,0.113 -0.707,0.411 -0.707,0.771 1.365,2.508 2.663,5.033 4.44,7.373 2.206,3.189 4.437,6.394 6.485,9.677 0.75,1.114 1.725,2.186 1.48,3.642 l -0.117,0.341 c -1.048,0.612 -2.185,1.135 -3.437,0.591 -1.455,0 -2.709,-0.591 -4.097,-0.754 -3.113,-0.686 -5.799,-2.387 -8.965,-2.959 -0.98,-0.295 -0.572,-1.611 -0.98,-2.296 0.322,-0.366 0.183,-0.932 0.618,-1.25 0.339,-0.388 0.75,-0.598 1.297,-0.502 2.525,2.074 5.642,2.711 8.578,3.776 0.933,0.114 2.068,0.73 2.891,0.114 0.18,-0.251 -0.067,-0.479 -0.205,-0.659 -3.416,-5.188 -7.103,-10.264 -10.378,-15.522 -0.66,-0.753 -1.159,-1.572 -1.643,-2.387 -0.382,-0.819 0.233,-1.5 0.484,-2.188 1.207,-1.115 2.868,-1.294 4.526,-1.091 3.009,0.521 6.188,0.905 9.243,1.478 1.57,-0.16 3.483,0.371 4.914,-0.457 0.639,-0.383 1.137,0.212 1.638,0.502 0.458,0.846 1.546,0.981 1.756,1.954 0.589,0.938 -0.547,1.302 -0.776,2.029 -0.864,1.14 -1.685,-0.205 -2.502,-0.482"
       style="fill:#ee2722;fill-opacity:1;fill-rule:nonzero;stroke:none;stroke-width:0.1"
       id="path68" /><path
       d="m 291.88624,333.99877 c 0.204,0.295 0.413,0.611 0.32,1.045 -0.049,0.274 -0.388,0.408 -0.598,0.546 -1.111,-0.321 -1.884,1.024 -2.883,0.158 -1.662,-0.773 -0.706,-2.408 -1.05,-3.82 0.183,-0.82 -0.049,-1.892 0.933,-2.347 0.683,-0.913 1.684,-0.566 2.618,-0.866 0.636,0.204 1.181,0.775 1.252,1.456 -0.616,1.115 -1.141,2.53 -0.592,3.828"
       style="fill:#0492d2;fill-opacity:1;fill-rule:nonzero;stroke:none;stroke-width:0.1"
       id="path70" /><path
       d="m 314.93824,304.18477 c -0.682,0.163 -0.955,-0.432 -1.365,-0.779 -0.319,-0.136 -0.616,-0.09 -0.885,0.071 -1.458,-1.364 -3.621,-1.157 -5.577,-1.157 -2.549,0.725 -5.144,2.638 -6.279,5.189 -0.298,1.158 -0.89,2.183 -0.822,3.502 0.093,1.614 -0.364,3.37 -0.161,4.916 0.254,0.475 -0.07,1.185 0.503,1.529 1.251,0.041 2.727,-0.052 4.031,-0.206 3.044,0.359 6.029,0.794 8.463,2.547 1.526,1.183 3.96,2.455 3.502,4.707 -0.315,1.025 -1.41,1.847 -2.18,2.62 -3.461,2.159 -8.425,1.206 -11.631,-0.82 -2.527,-1.229 -4.669,-3.662 -5.466,-6.282 -1.427,-2.618 -1.567,-5.597 -1.591,-8.784 l 0.164,-0.385 c 0.131,-2.729 0.747,-5.375 2.797,-7.376 3.115,-3.805 7.964,-4.664 12.561,-3.621 0.362,0.048 0.592,0.433 1.021,0.279 1.004,0.519 2.028,0.951 2.915,1.699 0.161,0.391 0.208,0.846 0.481,1.211 0.251,0.485 -0.162,0.825 -0.481,1.14 m -13.015,17.589 c 1.297,1.274 2.388,2.797 4.162,3.168 1.111,0.499 2.3,0.839 3.668,0.77 0.84,-0.339 1.815,-0.77 2.27,-1.704 0.027,-0.435 0.457,-0.89 0.073,-1.299 -2.711,-1.978 -6.326,-3.212 -9.723,-2.027 -0.292,0.298 -0.791,0.654 -0.45,1.092 v 0"
       style="fill:#0492d2;fill-opacity:1;fill-rule:nonzero;stroke:none;stroke-width:0.1"
       id="path72" /><path
       d="m 280.68824,316.69777 c -0.158,0.371 -0.139,0.823 -0.433,1.144 -0.202,1.409 -1.367,2.498 -1.48,3.867 -0.704,0.791 -2,1.228 -3.07,0.724 -0.571,-0.659 -1.319,-1.294 -1.299,-2.253 0.114,-0.929 1.045,-1.516 1.573,-2.297 2.025,-4.211 3.07,-8.899 3.114,-13.866 -0.135,-1.673 -0.112,-3.225 -0.659,-4.748 -0.156,-0.187 -0.499,-0.115 -0.704,-0.047 -2.574,1.57 -5.576,3.326 -7.146,6.167 -0.867,1.298 -0.957,2.94 -1.255,4.487 -0.386,1.044 -0.044,2.415 -0.771,3.318 -1.003,0.23 -2.594,0.592 -3.396,-0.315 -0.362,-0.482 -0.607,-1.004 -0.589,-1.641 0.41,-1.686 0.457,-3.484 1.026,-5.091 -0.023,-0.532 0.252,-0.916 0.456,-1.372 0.227,-3.049 -0.254,-5.874 -1.482,-8.468 -0.657,-0.497 -0.817,-1.637 -1.796,-1.57 -1.754,0.613 -3.142,2.208 -4.162,3.753 -2.235,4.19 -4.368,8.404 -4.536,13.455 -0.542,0.957 -1.953,0.68 -2.999,0.657 -0.73,-0.295 -1.003,-1.069 -1.093,-1.749 0.363,-1.981 0.568,-4.052 1.093,-5.962 1.251,-3.39 2.594,-6.761 4.756,-9.764 1.82,-2.3 4.303,-3.819 7.307,-3.463 0.682,0.21 1.246,0.683 1.867,1.051 1.409,1.817 3.412,3.502 3.822,5.775 0.249,0.434 0.045,1.028 0.497,1.366 0.163,0.025 0.298,-0.024 0.435,-0.042 1,-1.001 2.118,-1.754 3.207,-2.504 1.389,-0.478 2.599,-1.389 4.052,-1.639 2.3,-0.593 3.485,1.618 4.69,3.006 1.275,2.71 1.231,5.757 1.092,8.832 -0.3,3.227 -0.841,6.367 -2.117,9.189"
       style="fill:#0492d2;fill-opacity:1;fill-rule:nonzero;stroke:none;stroke-width:0.1"
       id="path74" /><path
       d="m 289.63324,317.84177 c -0.138,1.132 -0.205,2.364 -0.047,3.432 -0.228,0.456 -0.683,0.773 -1.205,0.706 -0.934,0.249 -1.889,0.137 -2.662,-0.362 -0.569,-0.615 -1.003,-1.412 -0.662,-2.253 0.613,-1.707 0.592,-3.668 0.867,-5.509 -0.205,-1.254 0.382,-2.302 0.339,-3.548 0.162,-2.416 0.979,-4.6 0.979,-6.992 0.205,-0.411 0.317,-0.863 0.66,-1.203 0.479,-0.183 1.161,-0.134 1.684,-0.07 0.639,0.935 1.71,1.203 2.346,2.142 0.202,0.59 -0.344,1.022 -0.548,1.523 -1.071,3.844 -1.48,7.944 -1.751,12.134"
       style="fill:#0492d2;fill-opacity:1;fill-rule:nonzero;stroke:none;stroke-width:0.1"
       id="path76" /><path
       d="m 247.57724,291.77977 c 0.066,0.363 0.475,0.363 0.656,0.658 -0.043,0.638 0.775,0.957 0.549,1.595 -0.935,0.658 -0.775,1.888 -1.685,2.615 -1.619,4.964 -4.871,10.246 -9.9,12.767 -2.232,0.849 -4.826,1.621 -7.259,0.659 -1.774,-0.998 -3.071,-2.907 -3.438,-4.843 0.66,-0.593 1.388,-0.932 2.346,-0.821 l 0.977,0.481 c 0.455,0.564 0.661,1.229 0.823,1.91 0.244,0.724 1.046,0.708 1.633,0.612 5.167,-0.999 8.314,-6.35 10.448,-10.604 l 0.112,-0.502 c -0.067,-0.181 -0.271,-0.272 -0.452,-0.316 -2.594,0.181 -5.329,0.021 -7.646,-0.825 -1.506,-0.587 -2.982,-1.228 -4.371,-2.129 -1.435,-1.302 -3.416,-2.397 -3.917,-4.305 0.026,-1.984 1.457,-3.777 3.212,-4.602 4.141,-1.844 9.329,-0.815 13.332,0.618 1,0.455 2.027,0.82 3.005,1.369 1.32,0.061 2.413,1.132 3.165,2.113 0.11,0.641 -0.047,1.21 0.158,1.797 -0.293,0.817 -1.547,0.817 -1.748,1.753 m -2.666,-3.214 c -1.092,-0.815 -2.413,-1.039 -3.618,-1.63 -2.003,-0.481 -3.959,-1.073 -6.098,-1.207 -1.751,0.155 -3.551,1.04 -4.279,2.728 -0.412,0.887 0.501,1.366 0.82,2.029 2.662,2.32 5.918,3.387 9.627,3.276 0.84,-0.272 1.798,-0.272 2.501,-0.89 0.343,-0.593 0.297,-1.366 0.977,-1.754 0.367,-0.095 0.821,0 1.093,-0.274 -0.226,-0.817 -0.682,-1.524 -1.023,-2.278 v 0"
       style="fill:#0492d2;fill-opacity:1;fill-rule:nonzero;stroke:none;stroke-width:0.1"
       id="path78" /><path
       d="m 200.71824,289.82277 c -0.894,1.841 -1.478,4.601 0.113,6.327 0.703,0.204 1.408,0.431 2.023,0.884 0.184,0.776 1.161,0.688 1.366,1.412 -0.75,0.501 -1.366,1.275 -2.298,1.324 -1.072,0.044 -1.822,-0.708 -2.734,-1.047 -1.929,-1.302 -2.479,-3.373 -3.319,-5.189 0.043,-1.683 -0.25,-3.804 0.701,-5.237 1.074,-3.14 3.713,-5.463 5.191,-8.422 1.321,-2.071 2.867,-4.048 3.667,-6.324 1.637,-2.804 0.751,-6.714 -0.731,-9.287 -0.364,-1.663 -2.136,-2.729 -2.501,-4.366 0.043,-0.433 0.567,-0.613 0.863,-0.613 3.687,0.084 4.572,4.298 6.079,6.781 1.863,3.596 1.567,8.782 -0.771,12.058 -2.166,4.095 -5.464,7.605 -7.649,11.699"
       style="fill:#0492d2;fill-opacity:1;fill-rule:nonzero;stroke:none;stroke-width:0.1"
       id="path80" /><path
       d="m 229.34324,276.75877 c -1.634,-1.05 -4.07,-0.732 -5.962,-0.706 -1.501,-0.43 -2.796,0.32 -4.026,0.936 -2.662,2.227 -0.591,5.527 0.041,8.028 1.189,2.121 1.941,4.397 3.166,6.489 -0.135,1.113 0.799,1.845 0.776,2.845 0.478,0.727 0.454,1.661 0.591,2.502 -0.274,0.957 -1.004,1.87 -1.957,2.253 l -0.931,0.163 c -1.619,0.563 -3.575,0.361 -5.191,-0.047 -2.433,-0.636 -4.734,-1.757 -6.984,-2.641 -0.821,-0.297 -1.255,-1.156 -1.439,-1.911 -0.113,-0.817 0.799,-0.732 1.164,-1.249 0.889,-0.365 1.43,0.358 2.07,0.771 0.886,0.457 1.704,1.067 2.686,1.363 1.842,0.387 3.961,1.596 5.828,0.436 0.43,-0.436 0.451,-1.003 0.496,-1.593 -0.661,-2.822 -1.843,-5.467 -3.002,-8.08 -1.182,-2.64 -2.685,-5.191 -2.685,-8.238 0.181,-0.39 -0.139,-0.982 0.273,-1.252 0.183,-1.094 1.299,-1.754 2.096,-2.366 0.773,-0.434 1.633,-0.665 2.497,-0.911 3.03,-0.388 6.51,-0.481 9.518,-0.115 l 2.548,1.8 c 0.046,0.222 -0.066,0.362 -0.092,0.547 -0.34,0.524 -0.794,1.045 -1.481,0.976"
       style="fill:#0492d2;fill-opacity:1;fill-rule:nonzero;stroke:none;stroke-width:0.1"
       id="path82" /><path
       d="m 191.59324,286.97777 c -0.983,0.116 -1.913,-0.365 -2.35,-1.249 -0.797,-1.984 -2.251,-3.692 -2.935,-5.688 -0.548,-0.889 -0.475,-2.052 -0.999,-2.943 -0.227,-0.317 -0.524,0.072 -0.639,0.273 -0.589,1.389 -1.248,2.763 -1.204,4.418 -0.254,0.367 -0.411,0.727 -0.5,1.141 -0.162,0.724 -0.933,0.908 -1.57,0.885 -1.145,0.271 -1.986,-0.75 -2.578,-1.596 -0.27,-0.905 0.207,-1.632 0.592,-2.344 1.596,-4.78 3.921,-9.236 6.009,-13.809 0.548,-1.029 1.256,-2.009 1.596,-3.121 0.524,-0.774 1.09,-1.299 2.114,-1.042 1.115,0.472 1.825,1.722 2.464,2.681 0.244,0.869 -0.639,1.273 -1.095,1.912 -2.889,4.987 -2.736,12.492 0.998,17.047 0.684,0.937 2.207,1.389 2.118,2.731 -0.48,0.544 -1.297,0.908 -2.021,0.704"
       style="fill:#0492d2;fill-opacity:1;fill-rule:nonzero;stroke:none;stroke-width:0.1"
       id="path84" /><path
       d="m 180.61924,263.65277 c -0.368,1.475 -1.685,2.615 -2.139,3.975 -1.706,3.397 -4.529,6.971 -8.012,8.857 -1.57,0.933 -3.462,1.115 -5.303,1.363 -3.279,-0.044 -5.87,-1.751 -8.306,-3.82 -1.616,-1.498 -2.206,-3.433 -3.663,-5.028 -0.233,-0.572 -0.184,-1.281 -0.435,-1.845 0.411,-0.636 0.867,-1.459 1.753,-1.438 2.345,0.913 2.026,3.598 3.323,5.264 2.275,1.906 4.623,3.825 7.829,3.32 1.912,-0.527 3.642,-1.456 5.235,-2.78 l 2.183,-2.452 c 0.141,-0.23 0,-0.504 -0.226,-0.665 -4.78,-2.072 -10.469,-2.979 -13.313,-8.348 -0.23,-0.48 -0.204,-1.051 -0.549,-1.477 -0.428,-1.551 -0.5,-3.735 0.82,-4.962 1.205,-0.842 2.461,-1.799 3.939,-2.097 2.387,-0.545 4.323,0.724 6.554,0.931 0.684,0.435 1.663,0.23 2.275,0.824 3.005,1.385 5.602,3.753 8.147,6.01 1.211,0.385 0.363,1.821 0.935,2.568 0.163,0.815 -0.5,1.344 -1.047,1.8 m -4.21,-2.301 c 0.092,-1.866 -1.433,-3.143 -2.778,-4.255 -2.275,-1.437 -4.803,-2.322 -7.531,-2.62 -1.525,0.093 -2.683,1.324 -3.509,2.571 -0.314,1.138 0.346,2.001 0.503,3.008 1.981,3.551 6.146,3.729 9.172,5.734 l 1.685,1.135 c 0.635,0.116 0.614,-0.613 0.934,-0.931 0.5,-1.518 2.162,-2.892 1.524,-4.642 v 0"
       style="fill:#0492d2;fill-opacity:1;fill-rule:nonzero;stroke:none;stroke-width:0.1"
       id="path86" /><path
       d="m 307.41224,241.82277 c 0.184,-0.411 0.625,-0.469 0.944,-0.791 -1.816,-4.653 -5.24,-8.535 -9.234,-10.976 -2.294,-1.252 -5.222,-1.726 -7.64,-0.901 -1.159,0.758 -2.659,1.573 -2.315,3.295 1.33,3.795 4.348,6.599 7.38,8.777 1.171,0.755 2.536,1.352 4.013,1.551 0.365,0.484 -0.289,0.74 -0.418,1.109 -1.754,2.546 -3.575,5.306 -6.601,6.735 -1.384,0.614 -2.829,0.772 -4.358,0.459 -0.28,-0.409 -0.828,-0.526 -1.302,-0.508 -0.481,0.14 -1.005,0.477 -1.323,0.826 -0.567,1.102 0.669,2.133 1.295,2.803 0.682,-0.281 1.322,0.336 2.036,0.264 3.745,0.846 7.598,-0.418 10.201,-3.303 2.198,-2.557 4.119,-5.297 5.429,-8.442 0.597,-0.44 1.435,-0.179 1.893,-0.898 m -4.684,-5.082 c 0.282,0.761 -0.675,1.267 -0.407,2.067 -0.801,0.701 -1.784,1.78 -3.003,1.233 -2.413,-1.597 -4.843,-3.445 -6.207,-6.305 -0.124,-0.997 0.869,-1.457 1.57,-1.921 0.911,-0.622 2.044,-0.019 2.951,0.351 1.86,1.303 3.712,2.625 5.096,4.575 z m -44.076,7.844 c 3.05,-3.349 4.969,-7.95 7.869,-11.576 0.025,4.612 0.204,9.876 2.852,13.94 1.44,1.023 3.43,1.335 4.526,-0.061 5.282,-5.649 7.558,-13.491 13.155,-18.772 0.357,-1.292 0.354,-2.856 -1.05,-3.557 -1.594,-0.902 -2.3,0.701 -3.468,1.278 -3.567,5.729 -6.431,12.197 -10.695,17.177 -3.105,-7.222 -1.056,-14.588 2.001,-21.264 -0.036,-1.28 -1.049,-1.598 -2.144,-1.751 l -1.559,0.771 c -5.054,6.939 -9.322,15.04 -13.785,22.172 0.23,1.093 1.242,1.602 2.298,1.643"
       style="fill:#f9a721;fill-opacity:1;fill-rule:nonzero;stroke:none;stroke-width:0.1"
       id="path88" /><path
       d="m 464.39824,247.31777 c -0.377,3.255 -2.074,5.827 -3.784,6.691 -6.826,2.588 -0.88,-7.69 -1.21,-10.763 0.063,-0.593 0.091,-1.181 0.096,-1.781 0.016,-1.193 -0.049,-2.383 -0.174,-3.542 0.083,-2.606 -0.183,-5.22 -1.572,-7.286 -0.404,-0.067 -0.566,0.381 -1.023,0.221 l -2.562,1.947 c -2.493,3.484 -4.721,7.17 -6.155,11.14 -0.7,1.973 -1.666,3.975 -1.646,6.114 -0.732,1.423 -2.175,1.404 -3.525,1.435 -0.597,-0.285 -1.056,-0.903 -1.368,-1.49 -0.425,-1.425 0.423,-2.762 0.771,-4.114 0.481,-1.4 0.827,-2.854 1.417,-4.209 1.034,-2.162 1.549,-4.513 2.821,-6.567 0.626,-0.784 1.114,-1.637 1.496,-2.522 1.438,-2.498 3.379,-4.686 6.005,-6.051 l 0.005,-0.114 c 0.945,-0.08 1.589,-0.869 2.61,-0.748 0.337,-0.523 0.949,0.045 1.38,-0.127 0.852,0.693 1.31,1.617 1.996,2.32 0.27,0.287 0.168,0.694 0.504,0.932 0.124,0.598 0.716,0.845 0.768,1.474 0.714,0.799 0.861,1.841 1.428,2.721 0.695,1.655 0.838,3.556 0.926,5.484 l 0.241,0.211 c 0.636,-0.307 0.995,-0.879 1.458,-1.43 1.901,-1.819 4.187,-3.37 6.897,-2.987 1.907,0.481 0.691,3.555 -1.919,5.558 -1.225,1.102 -2.369,2.172 -3.364,3.346 -0.321,0.394 -0.634,0.797 -0.929,1.217 -0.302,0.419 -0.566,0.863 -0.833,1.339 -0.271,0.481 -0.524,1.003 -0.755,1.581"
       style="fill:#f9a721;fill-opacity:1;fill-rule:nonzero;stroke:none;stroke-width:0.1"
       id="path90" /><path
       d="m 506.08724,253.97777 c -0.288,-3.239 0.855,-6.074 2.338,-7.243 6.116,-3.861 2.38,7.287 3.307,10.21 0.068,0.581 0.159,1.173 0.262,1.75 0.226,1.151 0.52,2.291 0.882,3.394 0.435,2.549 1.216,5.04 2.967,6.761 0.408,-0.013 0.475,-0.489 0.959,-0.417 l 2.091,-2.403 c 1.74,-3.875 3.159,-7.894 3.768,-12.032 0.289,-2.054 0.826,-4.193 0.377,-6.26 0.425,-1.528 1.845,-1.793 3.146,-2.089 0.632,0.15 1.199,0.662 1.614,1.173 0.69,1.3 0.146,2.759 0.072,4.145 -0.179,1.461 -0.236,2.936 -0.539,4.363 -0.582,2.31 -0.607,4.693 -1.443,6.935 -0.445,0.886 -0.752,1.817 -0.947,2.746 -0.902,2.716 -2.353,5.227 -4.619,7.066 l 0.021,0.112 c -0.91,0.266 -1.383,1.161 -2.395,1.249 -0.21,0.577 -0.927,0.147 -1.308,0.393 -0.971,-0.502 -1.594,-1.308 -2.407,-1.859 -0.315,-0.226 -0.299,-0.632 -0.671,-0.797 -0.242,-0.552 -0.854,-0.688 -1.033,-1.283 -0.859,-0.626 -1.21,-1.621 -1.934,-2.359 -1.001,-1.467 -1.534,-3.282 -1.982,-5.14 l -0.276,-0.159 c -0.562,0.431 -0.792,1.059 -1.139,1.685 -1.482,2.14 -3.4,4.106 -6.1,4.264 -1.944,-0.081 -1.374,-3.317 0.76,-5.78 0.974,-1.308 1.867,-2.578 2.588,-3.915 0.254,-0.443 0.474,-0.897 0.673,-1.365 0.21,-0.461 0.383,-0.939 0.548,-1.457 0.163,-0.525 0.29,-1.081 0.42,-1.688"
       style="fill:#f9a721;fill-opacity:1;fill-rule:nonzero;stroke:none;stroke-width:0.1"
       id="path92" /><path
       d="m 534.47124,282.49477 1.368,-0.292 c 1.114,0.86 1.921,2.227 1.763,3.73 1.515,1.567 0.122,3.807 0.699,5.711 -0.246,0.425 -0.949,0.596 -1.2,1.051 -0.285,0.111 -0.782,-0.04 -0.935,0.386 -1.481,0.006 -2.599,-1.287 -3.079,-2.608 0.25,-2.657 0.052,-5.665 1.384,-7.978"
       style="fill:#f9a721;fill-opacity:1;fill-rule:nonzero;stroke:none;stroke-width:0.1"
       id="path94" /><path
       d="m 534.30224,254.98377 c 0.955,-0.665 1.534,-2.426 3.013,-2.081 1.164,0.099 1.327,1.426 1.661,2.303 0.918,0.432 -0.005,1.697 1.101,2.076 -0.041,0.249 0,0.505 -0.127,0.678 -2.84,1.655 -3.044,4.985 -4.029,7.757 -1.026,3.398 -0.494,7.203 -0.383,10.553 -0.885,1.109 -2.798,2.126 -4.078,0.823 -1.436,-1.186 -1.263,-3.601 -0.875,-5.342 -0.597,-6.199 1.301,-11.755 3.717,-16.767"
       style="fill:#f9a721;fill-opacity:1;fill-rule:nonzero;stroke:none;stroke-width:0.1"
       id="path96" /><path
       d="m 569.76624,269.38677 c -0.357,0.142 -0.896,0.368 -1.257,0.142 -0.822,-1.279 -1.821,-2.154 -3,-3.23 -0.326,-0.297 -0.833,-0.24 -1.061,-0.665 -0.621,-0.119 -1.081,-0.418 -1.629,-0.76 -0.781,-0.15 -1.442,-0.792 -2.316,-0.634 -0.665,-0.628 -1.531,-0.398 -2.242,-0.814 -1.046,-0.127 -2.011,-0.507 -3.042,-0.606 -1.912,0.037 -4.183,0.46 -5.43,2.07 -0.587,0.781 -1.31,1.704 -1.608,2.589 -0.489,0.325 -0.833,0.847 -0.909,1.41 -0.959,1.936 -0.643,3.979 -0.566,6.144 0.19,0.329 0.593,0.2 0.852,0.109 1.528,-0.88 3.514,-1.047 5.317,-1.091 l 0.233,0.189 c 0.925,0.074 1.764,0.504 2.625,0.719 3.071,1.548 5.051,4.329 6.977,6.944 1.102,2.084 1.645,5.033 0.13,7.015 -0.585,0.135 -0.719,0.877 -1.337,0.849 -0.571,0.623 -1.472,0.374 -2.206,0.695 -0.628,-0.145 -1.215,-0.285 -1.882,-0.158 -0.507,-0.43 -1.263,-0.339 -1.86,-0.612 -0.347,-0.141 -0.476,-0.372 -0.844,-0.366 -2.443,-1.249 -5.007,-3.224 -6.835,-5.318 -0.686,-0.822 -1.39,-2.269 -2.657,-2.09 -0.903,-0.372 -1.583,-1.303 -1.629,-2.267 1.001,-1.455 -0.414,-2.962 -0.735,-4.346 -0.74,-3.745 -0.541,-7.55 1.242,-10.782 1.306,-2.374 3.549,-3.862 5.949,-4.858 0.261,-0.067 0.602,0.184 0.755,-0.184 0.714,-0.044 1.358,-0.401 1.939,-0.073 1.405,-0.141 2.747,0.003 4.005,0.381 0.719,-0.012 1.353,0.311 2.022,0.481 0.792,-0.143 1.42,0.417 2.113,0.613 0.342,0.191 0.785,0.062 1.106,0.339 0.961,-0.028 1.598,0.848 2.472,0.9 0.719,0.377 1.619,0.442 2.091,1.141 0.931,0.604 1.784,1.6 2.653,2.19 l 1.194,1.842 c -1.214,0.254 0.342,1.531 -0.63,2.092 m -20.973,10.75 c 0.625,1.244 1.799,2.201 2.779,3.256 0.54,0.204 0.838,0.802 1.405,0.905 0.739,0.629 1.675,1.066 2.562,1.373 1.216,0.828 2.846,1.113 4.203,0.425 l 0.419,-0.455 c 0.603,-0.753 0.021,-1.68 -0.225,-2.476 -0.902,-1.394 -1.965,-2.796 -3.258,-3.85 -0.976,-0.171 -1.654,-1.114 -2.665,-1.025 -1.519,-0.958 -3.411,-0.037 -4.811,0.504 -0.116,0.51 -0.775,0.786 -0.409,1.343 v 0"
       style="fill:#f9a721;fill-opacity:1;fill-rule:nonzero;stroke:none;stroke-width:0.1"
       id="path98" /><path
       d="m 401.27624,232.42177 c -0.869,-0.698 -0.858,-1.798 -1.598,-2.504 -0.293,-1.913 -1.334,-3.471 -1.19,-5.557 0.055,-3.573 -0.484,-7.333 0.822,-10.504 0.787,-2.013 2.66,-3.912 4.803,-4.356 2.972,-1.143 6.632,-0.536 8.823,1.813 1.956,1.424 2.39,3.528 2.985,5.572 0.902,5.498 0.519,11.144 -0.642,16.388 -1.259,1.031 -2.599,2.275 -4.355,2.385 -3.75,0.797 -6.886,-0.932 -9.648,-3.237 m 11.885,-9.823 c -0.337,-2.918 0.07,-6.363 -2.71,-7.989 -2.21,-0.937 -5.006,-0.325 -6.766,1.106 -2.377,2.126 -1.961,5.887 -1.767,8.99 0.524,0.577 1.481,0.781 1.624,1.739 -0.238,1.466 1.125,2.208 1.202,3.52 1.674,1.627 4.379,1.332 6.28,0.485 2.098,-2.091 1.974,-5.055 2.137,-7.851 v 0"
       style="fill:#f9a721;fill-opacity:1;fill-rule:nonzero;stroke:none;stroke-width:0.1"
       id="path100" /><path
       d="m 416.58024,253.36677 c 1.451,-4.871 3.107,-9.777 5.087,-14.655 l 0.469,0.179 1.986,10.661 c 0.733,1.13 2.517,1.49 3.696,1.727 1.116,-0.951 1.899,-2.995 1.704,-4.446 -0.222,-8.289 -8.772,-18.485 2.081,-24.009 l 1.112,0.424 c 1.831,3.262 3.478,7.298 3.979,11.002 0.686,0.694 1.915,0.841 2.799,1.291 2.496,-0.116 2.825,-2.643 3.19,-4.426 -2.119,-4.751 -3.334,-9.9 -7.006,-13.653 -1.514,-0.786 -3.102,-1.084 -4.6,0.052 -2.636,1.332 -4.575,3.883 -6.443,6.256 -1.582,-1.989 0.42,-5.804 -2.638,-6.435 -7.777,2.23 -1.087,9.482 -1.608,14.177 -3.259,6.841 -5.463,13.979 -7.739,21.301 0.504,1.469 2.845,1.739 3.931,0.554"
       style="fill:#f9a721;fill-opacity:1;fill-rule:nonzero;stroke:none;stroke-width:0.1"
       id="path102" /><path
       d="m 487.48724,277.01777 c 4.816,-9.407 6.482,-19.743 13.427,-28.447 0.791,-1.717 -1.069,-2.475 -1.319,-4.058 -1.338,-1.353 -2.696,-0.015 -4.004,0.539 -2.25,-4.443 -6.26,-9.216 -11.329,-10.106 -3.463,-0.639 -7.164,1.027 -9.141,3.849 -2.544,7.379 1.271,16.382 5.971,21.733 1.615,3.425 9.158,0.055 5.656,5.521 -1.603,3.294 -2.92,6.541 -4.224,9.915 1.557,0.684 3.054,1.796 4.963,1.054 m -3.496,-19.629 c -3.418,-3.914 -6.578,-10.491 -4.178,-15.726 1.169,-1.228 2.641,-2.376 4.461,-2.113 3.464,0.642 5.215,3.69 6.941,6.239 1.012,3.628 1.43,7.431 -1.229,10.736 -2.667,-1.293 -3.479,3.828 -5.995,0.864 v 0"
       style="fill:#f9a721;fill-opacity:1;fill-rule:nonzero;stroke:none;stroke-width:0.1"
       id="path104" /><path
       d="m 392.17724,241.21077 c 0.119,4.407 -3.921,7.307 -7.351,8.584 -1.845,-0.551 -3.298,-0.351 -5.322,-1.267 -0.241,-0.179 -0.349,-0.419 -0.221,-0.787 1.128,-5.336 2.939,-10.498 4.804,-16.113 3.704,1.745 8.013,6.401 8.09,9.583 z m -6.253,-15.91 c 1.075,-2.928 2.071,-6.052 3.264,-9.209 1.013,-2.696 2.797,-5.331 3.266,-7.773 0.198,-1.081 -0.737,-2.136 0.052,-3.088 -0.667,-0.741 -0.766,-1.777 -0.73,-2.871 -0.567,0.784 -1.914,0.01 -2.729,0.3 -1.554,1.192 -1.533,3.525 -2.128,5.757 -1.053,3.984 -2.936,7.332 -4.677,12.809 -0.237,0.752 -0.289,1.635 -0.56,2.444 -0.217,0.634 -0.865,1.161 -1.071,1.797 -0.228,0.727 -0.047,1.578 -0.277,2.302 -1.738,5.535 -4.539,11.103 -6.161,17.338 -0.972,-0.496 -1.87,-0.169 -2.369,0.659 -0.554,0.921 -0.173,1.313 0.088,2.655 0.134,0.737 0.186,1.649 0.442,2.297 0.088,0.226 0.474,0.223 0.574,0.431 0.101,0.19 -0.122,0.543 0.003,0.715 2.089,2.872 8.471,4.783 12.092,4.681 4.557,-0.124 9.52,-4.516 10.725,-9.388 0.709,-2.855 0.037,-6.66 -0.542,-9.262 -1.059,-4.689 -4.794,-9.278 -9.262,-12.594"
       style="fill:#f9a721;fill-opacity:1;fill-rule:nonzero;stroke:none;stroke-width:0.1"
       id="path106" /><path
       d="m 387.13424,280.71377 c -0.029,0.242 0.124,0.299 0.168,0.532 -0.14,0.156 -0.406,0.22 -0.609,0.326 -1.352,1.75 -2.339,3.699 -4.285,5.065 -3.05,2.473 -6.663,4.218 -10.47,4.138 -2.839,-0.125 -5.408,-1.242 -6.836,-3.562 -0.572,-1.63 -1.794,-3.662 -0.24,-5.146 1.986,-1.026 1.777,1.818 2.806,2.686 -0.132,0.316 -0.285,0.75 0.08,1.025 0.999,0.812 2.269,1.283 3.684,1.344 4.019,-0.012 8.102,-2.583 10.599,-5.764 -0.042,-0.154 -0.137,-0.361 -0.293,-0.389 -2.043,-0.159 -4.363,-0.346 -6.321,-1.194 -2.855,-1.076 -5.044,-3.179 -7.074,-5.502 -0.768,-1.65 -1.438,-3.297 -0.724,-5.228 1.368,-2.393 4.221,-3.923 6.816,-4.467 4.903,-0.779 10.383,1.286 15.228,2.23 l 0.559,0.603 c 0.339,1.133 2.328,2.39 0.869,3.541 -0.949,3.507 -2.341,6.725 -3.957,9.762 m 1.913,-9.964 c -0.119,-1.556 -2.141,-1.349 -3.367,-1.802 -1.322,-0.672 -2.93,-0.463 -4.317,-0.828 -3.072,-0.059 -6.815,1.052 -8.351,4.055 -0.504,2.145 1.718,3.299 3.026,4.405 1.482,0.601 3.187,2.431 4.808,0.913 l 0.762,-0.207 c 0.557,-0.4 1.219,-0.47 1.853,-0.193 0.926,0.341 1.34,1.564 2.439,1.481 1.035,-1.548 1.658,-3.37 2.459,-5.07 0.19,-0.948 0.994,-1.794 0.688,-2.754 v 0"
       style="fill:#f9a721;fill-opacity:1;fill-rule:nonzero;stroke:none;stroke-width:0.1"
       id="path108" /><path
       d="m 446.59424,294.90277 c -0.063,0.213 -0.094,1.016 -0.237,1.195 -1.456,1.881 -5.637,-2.005 -6.787,-2.874 -0.596,0.026 -0.84,-0.678 -1.393,-0.722 -2.498,-1.878 -5.178,-3.4 -7.875,-4.793 -0.955,-0.061 -1.936,-1.098 -2.939,-0.341 -0.56,1.353 0.372,2.796 0.904,4.05 2.264,5.502 4.466,11.042 8.19,15.923 0.416,0.543 0.978,1.048 0.854,1.787 -0.23,0.471 -0.047,1.309 -0.681,1.381 -0.515,0.693 -1.205,0.854 -1.94,0.844 -0.025,0.144 -0.069,0.284 -0.152,0.434 -0.339,0.903 -1.433,0.729 -2.204,0.794 -0.548,0.639 -1.345,-0.388 -1.897,0.408 -0.187,-0.094 -0.405,-0.116 -0.516,-0.265 -0.683,-2.624 -3.276,-3.539 -5.259,-4.954 -2.464,-1.577 -5.617,-2.015 -8.291,-2.685 -0.683,-0.96 -1.06,-2.705 0.264,-3.432 1.274,-0.874 3.147,-0.194 4.448,0.512 3.623,0.662 6.684,2.272 9.402,4.252 -0.978,-1.437 -1.743,-3.008 -2.665,-4.464 -1.512,-3.644 -3.064,-7.221 -4.745,-10.775 -0.354,-2.12 -1.523,-3.949 -1.084,-6.15 0.254,-0.787 0.934,-1.374 1.674,-1.734 0.434,0.296 0.905,-0.146 1.378,-0.113 1.241,0.499 3.114,-0.261 4.182,0.905 1.327,-0.028 2.445,0.771 3.779,0.923 0.729,0.453 1.624,0.557 2.312,1.151 1.067,-0.021 1.666,1.255 2.663,1.466 0.602,0.304 1.01,1.056 1.718,1.129 1.672,1.199 3.376,2.39 5.104,3.53 0.427,0.29 2.185,1.056 2.302,1.546 0.137,0.562 -0.377,0.577 -0.509,1.072"
       style="fill:#f9a721;fill-opacity:1;fill-rule:nonzero;stroke:none;stroke-width:0.1"
       id="path110" /><path
       d="m 466.48024,304.31777 c -0.698,-0.242 -0.613,-0.916 -0.781,-1.459 -0.205,-0.295 -0.494,-0.414 -0.828,-0.429 -0.519,-2.029 -2.562,-3.053 -4.293,-4.142 -2.672,-0.781 -6.037,-0.546 -8.478,1.095 -0.906,0.855 -2.005,1.437 -2.682,2.65 -0.825,1.485 -2.207,2.781 -2.882,4.265 -0.052,0.56 -0.731,1.02 -0.417,1.632 1.084,0.737 2.45,1.485 3.693,2.072 2.5,2.028 4.911,4.079 6.084,6.996 0.688,1.902 2.139,4.392 0.474,6.136 -0.853,0.727 -2.281,0.846 -3.401,1.094 -4.273,-0.014 -8.148,-3.624 -9.86,-7.219 -1.551,-2.502 -2.092,-5.863 -1.335,-8.633 0.187,-3.114 1.734,-5.839 3.508,-8.683 l 0.349,-0.248 c 1.64,-2.343 3.668,-4.351 6.603,-4.977 4.886,-1.627 9.67,0.313 13.171,3.814 0.294,0.237 0.274,0.709 0.755,0.813 0.597,1.022 1.265,1.971 1.623,3.141 -0.072,0.428 -0.275,0.866 -0.245,1.336 -0.046,0.575 -0.593,0.634 -1.058,0.746 m -21.379,8.328 c 0.431,1.851 0.55,3.817 1.923,5.133 0.712,1.074 1.566,2.034 2.816,2.737 0.937,0.163 2.054,0.329 2.978,-0.245 0.259,-0.373 0.893,-0.532 0.784,-1.118 -1.295,-3.264 -3.822,-6.377 -7.492,-7.221 -0.427,0.098 -1.066,0.135 -1.009,0.714 v 0"
       style="fill:#f9a721;fill-opacity:1;fill-rule:nonzero;stroke:none;stroke-width:0.1"
       id="path112" /><path
       d="m 346.15424,280.71577 c 0.937,-2.271 2.434,-4.12 3.644,-6.194 l 6.461,9.887 c 1.453,0.236 2.88,2.095 4.297,0.67 l -0.329,-4.986 c -3.499,-2.623 -4.976,-7.253 -7.413,-10.913 1.78,-3.654 3.937,-6.89 6.582,-9.559 0.286,-1.795 -0.189,-3.546 -0.625,-5.37 -1.904,-1.153 -3.11,1.105 -4.366,1.944 -4.956,6.938 -9.151,14.913 -12.7,22.876 0.888,1.187 3.026,3.986 4.449,1.645"
       style="fill:#f9a721;fill-opacity:1;fill-rule:nonzero;stroke:none;stroke-width:0.1"
       id="path114" /><path
       d="m 405.99424,314.24677 c 4.439,-9.627 5.68,-20.032 12.283,-29.046 0.721,-1.754 -1.169,-2.434 -1.485,-4.006 -1.398,-1.301 -2.707,0.1 -3.985,0.693 -2.431,-4.338 -6.653,-8.973 -11.758,-9.651 -3.494,-0.501 -7.134,1.322 -9.004,4.222 -2.242,7.5 1.948,16.36 6.872,21.54 1.757,3.36 9.164,-0.332 5.887,5.285 -1.464,3.364 -2.663,6.671 -3.825,10.112 1.58,0.615 3.132,1.669 5.015,0.851 m -4.297,-19.52 c -3.584,-3.777 -7.039,-10.242 -4.833,-15.581 1.122,-1.283 2.532,-2.493 4.384,-2.299 3.491,0.504 5.361,3.483 7.197,5.972 1.167,3.587 1.737,7.381 -0.783,10.8 -2.731,-1.194 -3.32,3.976 -5.965,1.108 v 0"
       style="fill:#f9a721;fill-opacity:1;fill-rule:nonzero;stroke:none;stroke-width:0.1"
       id="path116" /><path
       d="m 334.33924,284.57777 c -2.775,3.211 -8.907,1.044 -11.902,-2.008 0.524,-3.382 2.335,-7.322 3.32,-10.899 6.029,0.548 12.433,8.45 8.582,12.907 z m -15.365,6.145 c 0.786,-0.068 1.176,-1.042 1.934,-1.193 6.518,4.273 14.195,4.615 17.029,-1.091 2.307,-4.621 1.573,-10.505 -0.104,-13.956 -1.965,-4.053 -4.991,-7.837 -9.445,-8.854 2.65,-5.77 4.062,-11.135 7.35,-16.146 0.177,-2.07 0.068,-3.896 0.52,-5.653 -0.945,-0.028 -2.164,-0.69 -2.997,-0.449 -2.617,4.363 -3.885,9.156 -6.012,13.987 -0.969,2.211 -1.957,5.116 -2.914,7.392 -1.412,0.971 -3.16,-0.039 -4.087,1.074 -0.871,1.049 0.445,5.048 0.875,6.447 -0.916,1.974 -0.98,3.58 -1.961,5.578 -1.441,0.656 -2.612,0.516 -3.191,1.916 -0.521,1.235 0.576,4.063 0.868,5.221 -0.576,2.065 0.243,3.515 0.655,5.142 0.496,0.194 0.987,0.391 1.48,0.585"
       style="fill:#f9a721;fill-opacity:1;fill-rule:nonzero;stroke:none;stroke-width:0.1"
       id="path118" /><text
       xml:space="preserve"
       style="font-style:normal;font-weight:normal;font-size:30px;line-height:1.25;font-family:sans-serif;fill:#000000;fill-opacity:1;stroke:none;stroke-width:0.75"
       x="41.219345"
       y="-585.41125"
       id="text2881"
       transform="scale(1,-1)"><tspan
         sodipodi:role="line"
         id="tspan2879"
         style="font-style:normal;font-variant:normal;font-weight:normal;font-stretch:normal;font-size:32px;font-family:Arial;-inkscape-font-specification:'Arial, Normal';font-variant-ligatures:normal;font-variant-caps:normal;font-variant-numeric:normal;font-variant-east-asian:normal;stroke-width:0.75"
         x="41.219345"
         y="-585.41125">Projekt finansuje m.st. Warszawa</tspan></text></g></svg>
