<svg width="1060" height="450" xmlns="http://www.w3.org/2000/svg">
 <metadata id="metadata8">image/svg+xml</metadata>
 <defs>
  <clipPath id="clipPath18" clipPathUnits="userSpaceOnUse">
   <path id="path16" d="m-118.4134,579.30102l1022.4,0l0,-496.8l-1022.4,0l0,496.8z"/>
  </clipPath>
 </defs>
 <g>
  <title>background</title>
  <rect x="-1" y="-1" width="1208" height="542" id="canvas_background" fill="none"/>
 </g>
 <g>
  <title>Layer 1</title>
  <g transform="matrix(1.3333333,0,0,-1.3333333,0,662.4) " id="g10">
   <g id="g12">
    <g clip-path="url(#clipPath18)" id="g14">
     <g id="g20">
      <path id="path22" d="m397.20672,345.14961c-25.86,0 -46.827,20.967 -46.827,46.827c0,11.065 3.839,21.236 10.258,29.248c1.274,1.597 2.649,3.105 4.12,4.516c8.419,8.093 19.853,13.067 32.449,13.067c12.604,0 24.043,-4.978 32.461,-13.079c1.46,-1.399 2.827,-2.895 4.093,-4.479c6.431,-8.016 10.278,-18.197 10.278,-29.273c0,-25.86 -20.967,-46.827 -46.832,-46.827m39.61,82.945c-0.548,0.61 -1.121,1.206 -1.705,1.791c-1.012,1.012 -2.052,1.976 -3.129,2.891c-9.693,8.29 -21.885,12.81 -34.776,12.81c-12.878,0 -25.066,-4.512 -34.755,-12.794c-1.081,-0.919 -2.133,-1.891 -3.149,-2.907c-0.581,-0.581 -1.145,-1.173 -1.689,-1.774c-9.056,-9.899 -14.011,-22.636 -14.011,-36.135c0,-14.317 5.576,-27.78 15.7,-37.904c10.124,-10.124 23.587,-15.7 37.904,-15.7c14.318,0 27.781,5.576 37.905,15.7c10.128,10.124 15.704,23.587 15.704,37.904c0,13.495 -4.951,26.22 -13.999,36.118" fill-rule="nonzero" fill="#fbbc09"/>
     </g>
     <g id="g24">
      <path id="path26" d="m396.9464,374.06263c-2.583,-2.249 -4.092,-5.518 -4.092,-8.978c0,-3.46 1.509,-6.728 4.092,-8.977c2.583,2.25 4.092,5.517 4.092,8.977c0,3.46 -1.509,6.729 -4.092,8.978m0,-22.521l-1.047,0.725c-4.212,2.914 -6.726,7.706 -6.726,12.818c0,5.113 2.514,9.905 6.726,12.819l1.047,0.725l1.047,-0.725c4.212,-2.914 6.726,-7.706 6.726,-12.819c0,-5.112 -2.514,-9.904 -6.726,-12.818l-1.047,-0.725z" fill-rule="nonzero" fill="#bf1d23"/>
     </g>
     <g id="g28">
      <path id="path30" d="m408.79497,374.55003c0.771,-2.296 2.943,-3.954 5.495,-3.954c2.551,0 4.723,1.658 5.494,3.954l-10.989,0zm5.495,-7.635c-5.225,0 -9.476,4.25 -9.476,9.476l0,1.841l18.951,0l0,-1.841c0,-5.226 -4.251,-9.476 -9.475,-9.476" fill-rule="nonzero" fill="#bf1d23"/>
     </g>
     <g id="g32">
      <path id="path34" d="m374.10851,374.55003c0.771,-2.296 2.943,-3.954 5.495,-3.954c2.551,0 4.723,1.658 5.494,3.954l-10.989,0zm5.495,-7.635c-5.225,0 -9.476,4.25 -9.476,9.476l0,1.841l18.951,0l0,-1.841c0,-5.226 -4.251,-9.476 -9.475,-9.476" fill-rule="nonzero" fill="#bf1d23"/>
     </g>
     <g id="g36">
      <path id="path38" d="m396.9464,427.89082c-5.276,-4.135 -8.39,-10.476 -8.39,-17.211c0,-6.735 3.114,-13.076 8.39,-17.21c5.276,4.134 8.39,10.475 8.39,17.21c0,6.736 -3.114,13.076 -8.39,17.211m0,-38.945l-1.047,0.725c-6.903,4.778 -11.024,12.631 -11.024,21.009c0,8.378 4.121,16.232 11.024,21.01l1.047,0.724l1.047,-0.724c6.903,-4.778 11.024,-12.632 11.024,-21.01c0,-8.378 -4.121,-16.231 -11.024,-21.009l-1.047,-0.725z" fill-rule="nonzero" fill="#bf1d23"/>
     </g>
     <g id="g40">
      <path id="path42" d="m362.9132,393.02461l19.97,0c-0.868,4.723 -5.015,8.312 -9.985,8.312c-4.969,0 -9.116,-3.589 -9.985,-8.312m23.818,-3.681l-27.666,0l0,1.841c0,7.627 6.205,13.833 13.833,13.833c7.628,0 13.833,-6.206 13.833,-13.833l0,-1.841z" fill-rule="nonzero" fill="#bf1d23"/>
     </g>
     <g id="g44">
      <path id="path46" d="m411.53142,393.02461l19.97,0c-0.868,4.723 -5.015,8.312 -9.985,8.312c-4.969,0 -9.116,-3.589 -9.985,-8.312m23.818,-3.681l-27.666,0l0,1.841c0,7.627 6.205,13.833 13.833,13.833c7.628,0 13.833,-6.206 13.833,-13.833l0,-1.841z" fill-rule="nonzero" fill="#bf1d23"/>
     </g>
     <g id="g48">
      <path id="path50" d="m408.00109,381.94642l-21.587,0c-1.017,0 -1.841,0.824 -1.841,1.841c0,1.016 0.824,1.841 1.841,1.841l21.587,0c1.017,0 1.841,-0.825 1.841,-1.841c0,-1.017 -0.824,-1.841 -1.841,-1.841" fill-rule="nonzero" fill="#bf1d23"/>
     </g>
     <g id="g52">
      <path id="path54" d="m340.5133,421.45231c-1.25,0 -2.418,0.78 -2.854,2.026l-18.638,53.286c-0.551,1.577 0.28,3.301 1.856,3.853c1.576,0.551 3.301,-0.28 3.852,-1.856l18.638,-53.287c0.552,-1.576 -0.279,-3.3 -1.855,-3.852c-0.331,-0.115 -0.668,-0.17 -0.999,-0.17" fill-rule="nonzero" fill="#fbbc09"/>
     </g>
     <g id="g56">
      <path id="path58" d="m347.33071,432.71211c-1.274,0 -2.46,0.812 -2.875,2.09l-14.836,45.648c-0.516,1.588 0.353,3.295 1.941,3.811c1.588,0.515 3.294,-0.353 3.811,-1.942l14.835,-45.648c0.517,-1.588 -0.352,-3.294 -1.94,-3.811c-0.311,-0.1 -0.626,-0.148 -0.936,-0.148" fill-rule="nonzero" fill="#fbbc09"/>
     </g>
     <g id="g60">
      <path id="path62" d="m453.83953,421.45231c-0.332,0 -0.668,0.055 -0.999,0.17c-1.576,0.552 -2.407,2.276 -1.855,3.852l18.637,53.287c0.551,1.576 2.277,2.407 3.853,1.856c1.576,-0.552 2.407,-2.276 1.856,-3.853l-18.638,-53.286c-0.436,-1.246 -1.605,-2.026 -2.854,-2.026" fill-rule="nonzero" fill="#fbbc09"/>
     </g>
     <g id="g64">
      <path id="path66" d="m447.0216,432.71211c-0.31,0 -0.625,0.048 -0.935,0.148c-1.588,0.517 -2.458,2.223 -1.941,3.811l14.835,45.648c0.517,1.589 2.223,2.458 3.811,1.942c1.588,-0.516 2.458,-2.223 1.941,-3.811l-14.836,-45.648c-0.415,-1.278 -1.601,-2.09 -2.875,-2.09" fill-rule="nonzero" fill="#fbbc09"/>
     </g>
     <g id="g68">
      <path id="path70" d="m458.1339,493.80003l-2.568,-7.915l-18.749,-57.79l-1.363,-4.205l-0.58,-1.794l-1.113,-0.847c-1.266,1.584 -2.633,3.08 -4.093,4.48l0.037,0.028l2.278,7.02l17.829,54.975l-105.186,0l17.826,-54.96l2.282,-7.035l0.024,-0.017c-1.472,-1.411 -2.847,-2.919 -4.121,-4.515l-1.016,0.693l-0.641,1.972l-1.366,4.222l-18.741,57.773l-2.569,7.915l121.83,0z" fill-rule="nonzero" fill="#fbbc09"/>
     </g>
     <g id="g72">
      <path id="path74" d="m356.61391,322.87321c0.85,1.385 0.449,3.205 -0.92,4.08c-21.424,13.706 -35.628,37.705 -35.628,65.024c0,13.682 3.566,26.53 9.813,37.671c0.315,0.563 0.581,1.546 0.581,2.192c0,3.016 -3.988,4.054 -5.486,1.435c-1.643,-2.869 -3.117,-5.842 -4.416,-8.914c-4.34,-10.26 -6.54,-21.155 -6.54,-32.384c0,-11.227 2.2,-22.123 6.54,-32.382c4.19,-9.908 10.187,-18.803 17.826,-26.442c4.286,-4.286 8.971,-8.051 14.007,-11.274c1.421,-0.91 3.309,-0.494 4.192,0.944l0.031,0.05z" fill-rule="nonzero" fill="#fbbc09"/>
     </g>
     <g id="g76">
      <path id="path78" d="m473.85747,424.36152c-1.395,3.298 -2.992,6.484 -4.782,9.549c-1.386,2.374 -5.022,1.39 -5.022,-1.359c0,-1.099 0.428,-2.791 0.954,-3.756c6.079,-11.171 9.482,-24.009 9.337,-37.656c-0.289,-27.181 -14.48,-50.864 -35.799,-64.367c-1.364,-0.864 -1.778,-2.668 -0.951,-4.056c0.87,-1.459 2.771,-1.893 4.205,-0.982c5.121,3.255 9.882,7.069 14.232,11.419c7.638,7.639 13.636,16.534 17.826,26.441c4.339,10.26 6.54,21.156 6.54,32.383c0,11.229 -2.201,22.123 -6.54,32.384" fill-rule="nonzero" fill="#fbbc09"/>
     </g>
     <g id="g80">
      <path id="path82" d="m460.18761,418.58613c-3.443,8.141 -8.371,15.45 -14.646,21.726c-1.992,1.991 -4.088,3.845 -6.281,5.561c-0.663,-2.213 -1.337,-4.427 -1.899,-6.258c13.545,-11.429 22.152,-28.527 22.152,-47.637c0,-29.648 -20.709,-54.457 -48.451,-60.757l-5.714,-31.073l-16.282,0l-5.715,31.073c-27.741,6.3 -48.45,31.109 -48.45,60.757c0,19.191 8.679,36.353 22.324,47.783l-2.05,6.128c-2.2,-1.72 -4.304,-3.58 -6.302,-5.577c-6.275,-6.276 -11.203,-13.585 -14.646,-21.726c-3.566,-8.431 -5.374,-17.383 -5.374,-26.608c0,-7.953 1.355,-15.746 4.027,-23.164c2.582,-7.169 6.33,-13.822 11.14,-19.772c8.781,-10.865 20.769,-18.825 34.08,-22.706l5.018,-27.282l0.911,-4.953l5.037,0l16.282,0l5.037,0l0.911,4.953l5.017,27.282c13.312,3.881 25.3,11.841 34.082,22.706c4.809,5.95 8.557,12.603 11.139,19.772c2.672,7.418 4.027,15.211 4.027,23.164c0,9.225 -1.808,18.177 -5.374,26.608" fill-rule="nonzero" fill="#fbbc09"/>
     </g>
     <g id="g84">
      <path id="path86" d="m385.10271,287.98452l4.993,-27.146l14.224,0l4.992,27.146l-24.209,0zm5.81,-4.839l12.59,0l-3.213,-17.468l-6.165,0l-3.212,17.468z" fill-rule="nonzero" fill="#fbbc09"/>
     </g>
     <g id="g88">
      <path id="path90" d="m325.12759,301.38491l2.054,-13.948c5.084,0.33 16.583,1.529 25.257,5.793c6.176,3.036 11.788,4.669 15.053,5.455l-2.169,13.704c-3.604,-0.607 -10.43,-2.228 -19.111,-6.495c-6.769,-3.327 -16.078,-4.253 -21.084,-4.509m-0.586,-20.118l-0.005,0l-2.566,0.043l-3.84,26.073l3.549,-0.046c3.477,-0.05 14.956,0.589 21.865,3.985c13.359,6.567 23.044,7.379 24.104,7.451l2.757,0.184l3.98,-25.144l-2.978,-0.479c-0.072,-0.012 -7.655,-1.281 -16.301,-5.531c-12.766,-6.276 -30.199,-6.536 -30.565,-6.536" fill-rule="nonzero" fill="#fbbc09"/>
     </g>
     <g id="g92">
      <path id="path94" d="m426.94152,298.68472c3.266,-0.786 8.877,-2.419 15.054,-5.455c8.674,-4.264 20.173,-5.463 25.256,-5.793l2.054,13.948c-5.007,0.256 -14.315,1.182 -21.085,4.509c-8.68,4.268 -15.507,5.889 -19.11,6.495l-2.169,-13.704zm42.95,-17.418c-0.364,0 -17.799,0.26 -30.565,6.536c-8.645,4.25 -16.229,5.52 -16.304,5.532l-2.971,0.485l0.467,2.972l3.509,22.165l2.757,-0.184c1.06,-0.071 10.745,-0.884 24.104,-7.451c6.909,-3.396 18.391,-4.035 21.866,-3.985l3.547,0.046l-3.839,-26.073l-2.566,-0.043l-0.005,0z" fill-rule="nonzero" fill="#fbbc09"/>
     </g>
     <g id="g96">
      <path id="path98" d="m308.30682,455.02363c-2.854,-2.523 -4.521,-6.172 -4.521,-10.021c0,-3.847 1.667,-7.496 4.521,-10.019c2.854,2.523 4.521,6.172 4.521,10.019c0,3.849 -1.667,7.498 -4.521,10.021m0,-25.071l-1.161,0.817c-4.629,3.259 -7.392,8.58 -7.392,14.233c0,5.655 2.763,10.976 7.392,14.235l1.161,0.817l1.161,-0.817c4.629,-3.259 7.392,-8.58 7.392,-14.235c0,-5.653 -2.763,-10.974 -7.392,-14.233l-1.161,-0.817z" fill-rule="nonzero" fill="#bf1d23"/>
     </g>
     <g id="g100">
      <path id="path102" d="m287.17251,422.46012c-0.504,-3.777 0.625,-7.626 3.145,-10.534c2.52,-2.908 6.169,-4.573 9.979,-4.612c0.504,3.777 -0.625,7.625 -3.145,10.534c-2.52,2.908 -6.169,4.573 -9.979,4.612m13.259,-19.178c-5.021,-0.001 -9.842,2.173 -13.161,6.003c-3.702,4.274 -5.098,10.105 -3.735,15.599l0.343,1.378l1.412,0.142c5.632,0.568 11.206,-1.643 14.908,-5.916c3.703,-4.272 5.099,-10.103 3.735,-15.598l-0.343,-1.377l-1.412,-0.143c-0.583,-0.059 -1.167,-0.088 -1.747,-0.088" fill-rule="nonzero" fill="#bf1d23"/>
     </g>
     <g id="g104">
      <path id="path106" d="m288.7907,379.12611c3.313,-1.957 7.302,-2.377 10.927,-1.203c-0.721,3.741 -3.014,7.032 -6.328,8.989c-3.313,1.957 -7.302,2.377 -10.927,1.203c0.722,-3.742 3.015,-7.032 6.328,-8.989m6.799,-5.886c-3.072,0 -6.135,0.811 -8.849,2.414c-4.868,2.875 -8.044,7.961 -8.496,13.605l-0.114,1.415l1.294,0.583c5.16,2.328 11.147,2.002 16.015,-0.873c4.869,-2.876 8.045,-7.961 8.497,-13.605l0.113,-1.415l-1.294,-0.584c-2.282,-1.029 -4.728,-1.54 -7.166,-1.54" fill-rule="nonzero" fill="#bf1d23"/>
     </g>
     <g id="g108">
      <path id="path110" d="m297.8117,347.08613c3.749,-0.869 7.679,-0.067 10.782,2.144c-1.814,3.35 -4.992,5.797 -8.741,6.666c-3.749,0.869 -7.679,0.067 -10.782,-2.144c1.815,-3.35 4.992,-5.798 8.741,-6.666m3.005,-4.375c-1.305,0 -2.618,0.146 -3.915,0.447c-5.507,1.276 -10.068,5.169 -12.198,10.415l-0.534,1.315l1.058,0.946c4.22,3.774 10.027,5.267 15.535,3.989c5.508,-1.275 10.068,-5.169 12.198,-10.414l0.535,-1.315l-1.059,-0.946c-3.226,-2.885 -7.381,-4.437 -11.62,-4.437" fill-rule="nonzero" fill="#bf1d23"/>
     </g>
     <g id="g112">
      <path id="path114" d="m304.71401,325.34101c2.522,-2.855 6.169,-4.525 10.017,-4.527l0.009,0c3.845,0 7.491,1.664 10.015,4.514c-2.523,2.856 -6.169,4.526 -10.018,4.528l-0.009,0c-3.845,0 -7.49,-1.664 -10.014,-4.515m10.026,-8.56l-0.011,0c-5.654,0.004 -10.973,2.771 -14.229,7.403l-0.817,1.161l0.818,1.16c3.26,4.623 8.578,7.383 14.227,7.383l0.012,0c5.654,-0.004 10.973,-2.771 14.229,-7.402l0.816,-1.162l-0.818,-1.16c-3.259,-4.623 -8.578,-7.383 -14.227,-7.383" fill-rule="nonzero" fill="#bf1d23"/>
     </g>
     <g id="g116">
      <path id="path118" d="m359.7384,268.67982c3.811,-0.104 7.517,1.428 10.143,4.241c2.625,2.813 3.895,6.617 3.531,10.41c-3.812,0.105 -7.517,-1.427 -10.142,-4.241c-2.626,-2.812 -3.896,-6.617 -3.532,-10.41m0.358,-4.036c-0.792,0 -1.588,0.054 -2.384,0.164l-1.406,0.194l-0.291,1.39c-1.161,5.541 0.449,11.316 4.307,15.45c3.857,4.133 9.508,6.139 15.117,5.361l1.405,-0.194l0.291,-1.389c1.161,-5.542 -0.449,-11.317 -4.307,-15.45l0,0c-3.31,-3.547 -7.941,-5.526 -12.732,-5.526" fill-rule="nonzero" fill="#bf1d23"/>
     </g>
     <g id="g120">
      <path id="path122" d="m486.25689,455.02363c-2.854,-2.523 -4.521,-6.172 -4.521,-10.021c0,-3.847 1.667,-7.496 4.521,-10.019c2.854,2.523 4.521,6.172 4.521,10.019c0,3.849 -1.667,7.498 -4.521,10.021m0,-25.071l-1.161,0.817c-4.629,3.259 -7.393,8.58 -7.393,14.233c0,5.655 2.764,10.976 7.393,14.235l1.161,0.817l1.161,-0.817c4.629,-3.259 7.392,-8.58 7.392,-14.235c0,-5.653 -2.763,-10.974 -7.392,-14.233l-1.161,-0.817z" fill-rule="nonzero" fill="#bf1d23"/>
     </g>
     <g id="g124">
      <path id="path126" d="m507.39068,422.46012c-3.81,-0.039 -7.458,-1.704 -9.979,-4.612c-2.52,-2.909 -3.649,-6.757 -3.145,-10.534c3.811,0.039 7.459,1.704 9.979,4.612c2.52,2.908 3.649,6.758 3.145,10.534m-13.259,-19.178c-0.58,0 -1.163,0.029 -1.747,0.088l-1.412,0.143l-0.342,1.377c-1.364,5.494 0.032,11.326 3.734,15.598c3.703,4.273 9.276,6.485 14.909,5.916l1.412,-0.142l0.342,-1.378c1.364,-5.494 -0.032,-11.325 -3.734,-15.599c-3.319,-3.829 -8.141,-6.003 -13.162,-6.003" fill-rule="nonzero" fill="#bf1d23"/>
     </g>
     <g id="g128">
      <path id="path130" d="m494.84582,377.92301c3.625,-1.174 7.614,-0.754 10.927,1.203c3.313,1.957 5.607,5.247 6.328,8.989c-3.625,1.173 -7.613,0.753 -10.927,-1.203c-3.313,-1.957 -5.606,-5.248 -6.328,-8.989m4.128,-4.683c-2.439,0 -4.883,0.511 -7.166,1.54l-1.294,0.584l0.113,1.415c0.452,5.644 3.629,10.73 8.496,13.605c4.869,2.875 10.856,3.201 16.016,0.873l1.294,-0.583l-0.113,-1.415c-0.453,-5.644 -3.628,-10.73 -8.496,-13.605c-2.715,-1.603 -5.777,-2.414 -8.85,-2.414" fill-rule="nonzero" fill="#bf1d23"/>
     </g>
     <g id="g132">
      <path id="path134" d="m485.96941,349.22962c3.103,-2.211 7.034,-3.012 10.782,-2.144c3.749,0.869 6.927,3.317 8.741,6.666c-3.103,2.211 -7.033,3.013 -10.782,2.144c-3.748,-0.868 -6.926,-3.315 -8.741,-6.666m7.778,-6.519c-4.24,0 -8.394,1.551 -11.621,4.437l-1.058,0.946l0.534,1.316c2.131,5.245 6.691,9.138 12.199,10.414c5.508,1.275 11.315,-0.215 15.535,-3.99l1.058,-0.946l-0.534,-1.314c-2.131,-5.246 -6.691,-9.14 -12.199,-10.415c-1.296,-0.3 -2.609,-0.448 -3.914,-0.448" fill-rule="nonzero" fill="#bf1d23"/>
     </g>
     <g id="g136">
      <path id="path138" d="m469.8092,325.32832c2.524,-2.851 6.169,-4.515 10.014,-4.515l0.009,0c3.848,0.002 7.495,1.672 10.018,4.528c-2.524,2.85 -6.17,4.514 -10.015,4.514l-0.009,0c-3.848,-0.002 -7.495,-1.672 -10.017,-4.527m10.014,-8.547c-5.649,0 -10.967,2.759 -14.227,7.383l-0.818,1.16l0.816,1.161c3.257,4.632 8.576,7.399 14.23,7.403l0.011,0c5.65,0 10.967,-2.759 14.227,-7.383l0.818,-1.16l-0.816,-1.162c-3.256,-4.631 -8.575,-7.398 -14.229,-7.402l-0.012,0z" fill-rule="nonzero" fill="#bf1d23"/>
     </g>
     <g id="g140">
      <path id="path142" d="m421.15148,283.33122c-0.365,-3.793 0.906,-7.598 3.531,-10.41c2.626,-2.814 6.334,-4.347 10.142,-4.241c0.365,3.793 -0.905,7.597 -3.531,10.41c-2.625,2.813 -6.333,4.348 -10.142,4.241m13.316,-18.687c-4.792,-0.001 -9.422,1.978 -12.733,5.526c-3.857,4.133 -5.467,9.908 -4.307,15.45l0.291,1.389l1.406,0.194c5.608,0.777 11.259,-1.228 15.117,-5.361c3.857,-4.134 5.468,-9.909 4.307,-15.45l-0.291,-1.39l-1.406,-0.194c-0.795,-0.111 -1.592,-0.164 -2.384,-0.164" fill-rule="nonzero" fill="#bf1d23"/>
     </g>
     <g id="g144">
      <path id="path146" d="m26.004,238.17892l0,-27.288l-5.095,0l0,11.927l-12.814,0l0,-11.927l-5.095,0l0,27.288l5.095,0l0,-11.738l12.814,0l0,11.738l5.095,0z" fill-rule="nonzero" fill="#bf1d23"/>
     </g>
     <g id="g148">
      <path id="path150" d="m43.06361,214.98551c0.981,0 1.858,0.164 2.632,0.491c0.774,0.327 1.425,0.786 1.953,1.377c0.529,0.592 0.935,1.309 1.218,2.152c0.283,0.842 0.424,1.786 0.424,2.831l0,16.342l5.077,0l0,-16.342c0,-1.623 -0.262,-3.123 -0.783,-4.501c-0.523,-1.377 -1.271,-2.567 -2.246,-3.567c-0.975,-1 -2.161,-1.78 -3.557,-2.34c-1.397,-0.559 -2.969,-0.839 -4.718,-0.839c-1.762,0 -3.34,0.28 -4.737,0.839c-1.396,0.56 -2.582,1.34 -3.557,2.34c-0.975,1 -1.724,2.19 -2.246,3.567c-0.522,1.378 -0.783,2.878 -0.783,4.501l0,16.342l5.076,0l0,-16.324c0,-1.044 0.142,-1.987 0.425,-2.83c0.283,-0.844 0.692,-1.563 1.227,-2.161c0.534,-0.598 1.189,-1.06 1.962,-1.387c0.774,-0.327 1.652,-0.491 2.633,-0.491" fill-rule="nonzero" fill="#bf1d23"/>
     </g>
     <g id="g152">
      <path id="path154" d="m65.19891,234.13981l0,-8.076l10.229,0l0,-4.058l-10.229,0l0,-11.115l-5.095,0l0,27.288l17.21,0l0,-4.039l-12.115,0z" fill-rule="nonzero" fill="#bf1d23"/>
     </g>
     <path id="path156" d="m86.5606,210.89102l-5.095,0l0,27.288l5.095,0l0,-27.288z" fill-rule="nonzero" fill="#bf1d23"/>
     <g id="g158">
      <path id="path160" d="m97.75111,234.13981l0,-7.567l9.549,0l0,-3.907l-9.549,0l0,-7.717l12.115,0l0,-4.058l-17.21,0l0,27.288l17.21,0l0,-4.039l-12.115,0z" fill-rule="nonzero" fill="#bf1d23"/>
     </g>
     <g id="g162">
      <path id="path164" d="m132.51231,217.32632c0.276,0 0.522,-0.107 0.736,-0.321l2,-2.17c-1.107,-1.372 -2.469,-2.422 -4.085,-3.152c-1.617,-0.73 -3.558,-1.094 -5.822,-1.094c-2.026,0 -3.847,0.345 -5.463,1.038c-1.617,0.691 -2.998,1.654 -4.142,2.886c-1.145,1.234 -2.023,2.706 -2.633,4.417c-0.611,1.71 -0.915,3.579 -0.915,5.604c0,2.051 0.327,3.929 0.981,5.634c0.654,1.704 1.576,3.173 2.765,4.406c1.188,1.232 2.607,2.191 4.255,2.878c1.648,0.686 3.472,1.028 5.473,1.028c1.987,0 3.752,-0.327 5.293,-0.981c1.541,-0.654 2.852,-1.51 3.935,-2.567l-1.699,-2.359c-0.1,-0.15 -0.229,-0.283 -0.387,-0.395c-0.157,-0.114 -0.374,-0.17 -0.65,-0.17c-0.189,0 -0.385,0.052 -0.585,0.16c-0.202,0.106 -0.422,0.238 -0.661,0.396c-0.239,0.158 -0.516,0.33 -0.831,0.519c-0.314,0.188 -0.679,0.361 -1.094,0.519c-0.415,0.157 -0.896,0.289 -1.444,0.396c-0.547,0.107 -1.179,0.161 -1.896,0.161c-1.22,0 -2.337,-0.218 -3.35,-0.651c-1.012,-0.435 -1.884,-1.064 -2.614,-1.888c-0.729,-0.823 -1.295,-1.83 -1.698,-3.019c-0.403,-1.189 -0.604,-2.545 -0.604,-4.067c0,-1.535 0.218,-2.899 0.651,-4.095c0.434,-1.195 1.023,-2.202 1.765,-3.019c0.742,-0.818 1.616,-1.444 2.623,-1.878c1.006,-0.434 2.088,-0.651 3.246,-0.651c0.691,0 1.317,0.038 1.877,0.114c0.56,0.075 1.076,0.194 1.548,0.358c0.471,0.163 0.918,0.374 1.34,0.632c0.421,0.258 0.839,0.576 1.254,0.953c0.126,0.113 0.258,0.204 0.397,0.274c0.138,0.069 0.283,0.104 0.434,0.104" fill-rule="nonzero" fill="#bf1d23"/>
     </g>
     <g id="g166">
      <path id="path168" d="m166.70669,236.31071c0,-0.579 -0.164,-1.107 -0.491,-1.586l-14.002,-19.776l14.172,0l0,-4.058l-20.758,0l0,2c0,0.252 0.044,0.494 0.132,0.727c0.088,0.233 0.201,0.45 0.34,0.651l14.04,19.871l-13.625,0l0,4.039l20.192,0l0,-1.868z" fill-rule="nonzero" fill="#bf1d23"/>
     </g>
     <g id="g170">
      <path id="path172" d="m193.76769,238.17892l0,-27.288l-5.095,0l0,11.927l-12.814,0l0,-11.927l-5.095,0l0,27.288l5.095,0l0,-11.738l12.814,0l0,11.738l5.095,0z" fill-rule="nonzero" fill="#bf1d23"/>
     </g>
     <g id="g174">
      <path id="path176" d="m208.71349,224.45912c0.931,0 1.742,0.116 2.435,0.349c0.691,0.233 1.267,0.566 1.726,1.001c0.459,0.433 0.802,0.962 1.028,1.585c0.227,0.623 0.34,1.317 0.34,2.085c0,0.729 -0.113,1.39 -0.34,1.981c-0.226,0.592 -0.565,1.095 -1.019,1.51c-0.452,0.415 -1.025,0.732 -1.717,0.953c-0.692,0.22 -1.51,0.33 -2.453,0.33l-3.793,0l0,-9.794l3.793,0zm0,13.72c1.824,0 3.403,-0.215 4.737,-0.642c1.333,-0.429 2.434,-1.026 3.302,-1.793c0.868,-0.767 1.513,-1.686 1.934,-2.756c0.422,-1.069 0.632,-2.239 0.632,-3.509c0,-1.321 -0.22,-2.533 -0.66,-3.633c-0.441,-1.101 -1.101,-2.047 -1.982,-2.84c-0.88,-0.793 -1.984,-1.409 -3.311,-1.85c-1.328,-0.44 -2.878,-0.66 -4.652,-0.66l-3.793,0l0,-9.605l-5.077,0l0,27.288l8.87,0z" fill-rule="nonzero" fill="#bf1d23"/>
     </g>
     <g id="g178">
      <path id="path180" d="m267.38341,238.17892l-8.473,-27.288l-4.586,0l-5.962,18.644c-0.165,0.454 -0.315,1.007 -0.454,1.662c-0.076,-0.315 -0.15,-0.611 -0.226,-0.888c-0.076,-0.276 -0.158,-0.534 -0.246,-0.774l-6.019,-18.644l-4.605,0l-8.454,27.288l4.246,0c0.44,0 0.808,-0.104 1.104,-0.312c0.295,-0.208 0.493,-0.488 0.594,-0.839l4.643,-16.324c0.1,-0.403 0.197,-0.839 0.292,-1.312c0.094,-0.472 0.191,-0.965 0.292,-1.481c0.101,0.529 0.211,1.025 0.331,1.491c0.119,0.465 0.248,0.899 0.386,1.302l5.36,16.324c0.101,0.289 0.298,0.553 0.593,0.792c0.297,0.239 0.659,0.359 1.086,0.359l1.491,0c0.441,0 0.798,-0.107 1.076,-0.321c0.277,-0.214 0.484,-0.491 0.623,-0.83l5.34,-16.324c0.265,-0.78 0.504,-1.679 0.716,-2.699c0.164,0.994 0.348,1.894 0.549,2.699l4.641,16.324c0.076,0.314 0.267,0.585 0.576,0.811c0.309,0.227 0.676,0.34 1.104,0.34l3.982,0z" fill-rule="nonzero" fill="#bf1d23"/>
     </g>
     <g id="g182">
      <path id="path184" d="m283.36779,221.19451l-3.321,9.077c-0.164,0.402 -0.334,0.88 -0.51,1.434c-0.177,0.553 -0.353,1.151 -0.528,1.793c-0.164,-0.642 -0.334,-1.242 -0.51,-1.802c-0.176,-0.561 -0.346,-1.048 -0.51,-1.463l-3.302,-9.039l8.681,0zm8.964,-10.304l-3.926,0c-0.44,0 -0.799,0.111 -1.075,0.33c-0.277,0.22 -0.484,0.495 -0.623,0.822l-2.038,5.566l-11.304,0l-2.038,-5.566c-0.101,-0.29 -0.296,-0.554 -0.585,-0.793c-0.29,-0.24 -0.648,-0.359 -1.076,-0.359l-3.963,0l10.738,27.288l5.171,0l10.719,-27.288z" fill-rule="nonzero" fill="#bf1d23"/>
     </g>
     <g id="g186">
      <path id="path188" d="m303.40881,225.19552c0.956,0 1.789,0.119 2.5,0.358c0.711,0.239 1.296,0.57 1.755,0.991c0.459,0.422 0.803,0.922 1.029,1.501c0.226,0.578 0.339,1.213 0.339,1.905c0,1.384 -0.456,2.447 -1.368,3.189c-0.912,0.743 -2.305,1.114 -4.18,1.114l-3.246,0l0,-9.058l3.171,0zm13.059,-14.305l-4.586,0c-0.869,0 -1.497,0.34 -1.887,1.019l-5.737,8.738c-0.214,0.326 -0.45,0.56 -0.707,0.698c-0.258,0.138 -0.639,0.207 -1.142,0.207l-2.171,0l0,-10.662l-5.076,0l0,27.288l8.322,0c1.85,0 3.438,-0.192 4.765,-0.576c1.327,-0.384 2.416,-0.922 3.264,-1.613c0.85,-0.692 1.476,-1.52 1.878,-2.481c0.403,-0.963 0.605,-2.023 0.605,-3.18c0,-0.919 -0.136,-1.787 -0.406,-2.605c-0.271,-0.818 -0.66,-1.559 -1.17,-2.226c-0.51,-0.667 -1.139,-1.252 -1.887,-1.755c-0.749,-0.504 -1.602,-0.901 -2.558,-1.19c0.328,-0.188 0.629,-0.412 0.907,-0.67c0.276,-0.257 0.528,-0.562 0.755,-0.915l6.831,-10.077z" fill-rule="nonzero" fill="#bf1d23"/>
     </g>
     <g id="g190">
      <path id="path192" d="m333.96059,233.21502c-0.151,-0.264 -0.312,-0.456 -0.481,-0.575c-0.17,-0.12 -0.381,-0.18 -0.632,-0.18c-0.265,0 -0.551,0.098 -0.86,0.293c-0.307,0.194 -0.675,0.412 -1.103,0.651c-0.428,0.239 -0.928,0.456 -1.5,0.651c-0.573,0.195 -1.249,0.293 -2.029,0.293c-0.705,0 -1.321,-0.085 -1.849,-0.255c-0.529,-0.17 -0.973,-0.406 -1.331,-0.708c-0.359,-0.302 -0.626,-0.663 -0.802,-1.085c-0.177,-0.422 -0.265,-0.884 -0.265,-1.387c0,-0.641 0.18,-1.177 0.539,-1.604c0.358,-0.428 0.833,-0.792 1.424,-1.095c0.591,-0.302 1.265,-0.572 2.02,-0.811c0.755,-0.239 1.528,-0.494 2.321,-0.764c0.792,-0.271 1.566,-0.585 2.32,-0.944c0.755,-0.358 1.428,-0.811 2.02,-1.359c0.592,-0.547 1.066,-1.217 1.425,-2.01c0.358,-0.792 0.538,-1.755 0.538,-2.886c0,-1.234 -0.211,-2.388 -0.633,-3.463c-0.421,-1.076 -1.037,-2.014 -1.849,-2.812c-0.811,-0.8 -1.802,-1.429 -2.972,-1.887c-1.17,-0.459 -2.51,-0.689 -4.02,-0.689c-0.868,0 -1.723,0.085 -2.566,0.255c-0.843,0.17 -1.652,0.411 -2.425,0.726c-0.773,0.315 -1.5,0.692 -2.18,1.132c-0.679,0.441 -1.283,0.931 -1.811,1.472l1.491,2.435c0.125,0.175 0.289,0.324 0.49,0.443c0.201,0.12 0.415,0.18 0.642,0.18c0.314,0 0.654,-0.129 1.018,-0.387c0.366,-0.258 0.799,-0.545 1.303,-0.859c0.503,-0.315 1.091,-0.601 1.765,-0.859c0.673,-0.258 1.481,-0.387 2.425,-0.387c1.446,0 2.566,0.343 3.358,1.029c0.793,0.685 1.189,1.67 1.189,2.953c0,0.718 -0.179,1.303 -0.538,1.756c-0.358,0.452 -0.833,0.833 -1.424,1.141c-0.592,0.308 -1.265,0.569 -2.02,0.783c-0.754,0.214 -1.521,0.447 -2.302,0.699c-0.78,0.251 -1.548,0.552 -2.302,0.905c-0.755,0.353 -1.428,0.812 -2.019,1.378c-0.592,0.566 -1.066,1.273 -1.425,2.123c-0.358,0.849 -0.538,1.896 -0.538,3.142c0,0.994 0.198,1.962 0.595,2.906c0.396,0.943 0.972,1.78 1.726,2.51c0.755,0.729 1.686,1.314 2.793,1.754c1.107,0.441 2.378,0.662 3.812,0.662c1.61,0 3.095,-0.252 4.454,-0.755c1.358,-0.504 2.516,-1.208 3.472,-2.114l-1.264,-2.397z" fill-rule="nonzero" fill="#bf1d23"/>
     </g>
     <g id="g194">
      <path id="path196" d="m358.92641,236.31071c0,-0.579 -0.164,-1.107 -0.49,-1.586l-14.003,-19.776l14.172,0l0,-4.058l-20.758,0l0,2c0,0.252 0.044,0.494 0.132,0.727c0.088,0.233 0.201,0.45 0.34,0.651l14.04,19.871l-13.625,0l0,4.039l20.192,0l0,-1.868z" fill-rule="nonzero" fill="#bf1d23"/>
     </g>
     <g id="g198">
      <path id="path200" d="m377.40099,221.19451l-3.321,9.077c-0.164,0.402 -0.334,0.88 -0.51,1.434c-0.177,0.553 -0.353,1.151 -0.528,1.793c-0.164,-0.642 -0.334,-1.242 -0.51,-1.802c-0.176,-0.561 -0.346,-1.048 -0.51,-1.463l-3.302,-9.039l8.681,0zm8.964,-10.304l-3.926,0c-0.44,0 -0.799,0.111 -1.075,0.33c-0.277,0.22 -0.484,0.495 -0.623,0.822l-2.038,5.566l-11.304,0l-2.038,-5.566c-0.101,-0.29 -0.296,-0.554 -0.585,-0.793c-0.29,-0.24 -0.648,-0.359 -1.076,-0.359l-3.963,0l10.738,27.288l5.171,0l10.719,-27.288z" fill-rule="nonzero" fill="#bf1d23"/>
     </g>
     <g id="g202">
      <path id="path204" d="m423.71148,238.17892l-8.474,-27.288l-4.586,0l-5.962,18.644c-0.165,0.454 -0.315,1.007 -0.454,1.662c-0.075,-0.315 -0.15,-0.611 -0.226,-0.888c-0.075,-0.276 -0.157,-0.534 -0.245,-0.774l-6.02,-18.644l-4.604,0l-8.454,27.288l4.245,0c0.44,0 0.808,-0.104 1.104,-0.312c0.295,-0.208 0.493,-0.488 0.595,-0.839l4.642,-16.324c0.1,-0.403 0.198,-0.839 0.293,-1.312c0.093,-0.472 0.191,-0.965 0.292,-1.481c0.1,0.529 0.21,1.025 0.331,1.491c0.119,0.465 0.248,0.899 0.386,1.302l5.36,16.324c0.1,0.289 0.298,0.553 0.593,0.792c0.296,0.239 0.658,0.359 1.086,0.359l1.491,0c0.44,0 0.798,-0.107 1.076,-0.321c0.276,-0.214 0.483,-0.491 0.622,-0.83l5.341,-16.324c0.264,-0.78 0.503,-1.679 0.716,-2.699c0.164,0.994 0.347,1.894 0.548,2.699l4.642,16.324c0.076,0.314 0.267,0.585 0.576,0.811c0.308,0.227 0.676,0.34 1.104,0.34l3.982,0z" fill-rule="nonzero" fill="#bf1d23"/>
     </g>
     <g id="g206">
      <path id="path208" d="m439.69591,221.19451l-3.321,9.077c-0.164,0.402 -0.334,0.88 -0.51,1.434c-0.177,0.553 -0.353,1.151 -0.528,1.793c-0.164,-0.642 -0.334,-1.242 -0.51,-1.802c-0.176,-0.561 -0.346,-1.048 -0.51,-1.463l-3.302,-9.039l8.681,0zm8.964,-10.304l-3.926,0c-0.44,0 -0.799,0.111 -1.075,0.33c-0.277,0.22 -0.484,0.495 -0.623,0.822l-2.038,5.566l-11.304,0l-2.038,-5.566c-0.101,-0.29 -0.296,-0.554 -0.585,-0.793c-0.29,-0.24 -0.648,-0.359 -1.076,-0.359l-3.963,0l10.738,27.288l5.171,0l10.719,-27.288z" fill-rule="nonzero" fill="#bf1d23"/>
     </g>
     <path id="path210" d="m450.6036,224.23302l9.775,0l0,-3.888l-9.775,0l0,3.888z" fill-rule="nonzero" fill="#bf1d23"/>
     <g id="g212">
      <path id="path214" d="m474.43609,224.45912c0.932,0 1.743,0.116 2.435,0.349c0.692,0.233 1.267,0.566 1.726,1.001c0.46,0.433 0.803,0.962 1.029,1.585c0.226,0.623 0.339,1.317 0.339,2.085c0,0.729 -0.113,1.39 -0.339,1.981c-0.226,0.592 -0.566,1.095 -1.019,1.51c-0.453,0.415 -1.025,0.732 -1.717,0.953c-0.692,0.22 -1.51,0.33 -2.454,0.33l-3.793,0l0,-9.794l3.793,0zm0,13.72c1.824,0 3.403,-0.215 4.737,-0.642c1.333,-0.429 2.435,-1.026 3.303,-1.793c0.867,-0.767 1.512,-1.686 1.934,-2.756c0.422,-1.069 0.632,-2.239 0.632,-3.509c0,-1.321 -0.22,-2.533 -0.661,-3.633c-0.44,-1.101 -1.1,-2.047 -1.981,-2.84c-0.881,-0.793 -1.985,-1.409 -3.312,-1.85c-1.327,-0.44 -2.878,-0.66 -4.652,-0.66l-3.793,0l0,-9.605l-5.076,0l0,27.288l8.869,0z" fill-rule="nonzero" fill="#bf1d23"/>
     </g>
     <g id="g216">
      <path id="path218" d="m497.17638,225.19552c0.956,0 1.789,0.119 2.5,0.358c0.711,0.239 1.296,0.57 1.755,0.991c0.459,0.422 0.803,0.922 1.029,1.501c0.226,0.578 0.339,1.213 0.339,1.905c0,1.384 -0.456,2.447 -1.368,3.189c-0.912,0.743 -2.305,1.114 -4.18,1.114l-3.246,0l0,-9.058l3.171,0zm13.059,-14.305l-4.586,0c-0.869,0 -1.497,0.34 -1.887,1.019l-5.737,8.738c-0.214,0.326 -0.45,0.56 -0.707,0.698c-0.258,0.138 -0.639,0.207 -1.142,0.207l-2.171,0l0,-10.662l-5.076,0l0,27.288l8.322,0c1.85,0 3.438,-0.192 4.765,-0.576c1.327,-0.384 2.416,-0.922 3.264,-1.613c0.85,-0.692 1.476,-1.52 1.878,-2.481c0.403,-0.963 0.605,-2.023 0.605,-3.18c0,-0.919 -0.136,-1.787 -0.406,-2.605c-0.271,-0.818 -0.66,-1.559 -1.17,-2.226c-0.51,-0.667 -1.139,-1.252 -1.887,-1.755c-0.749,-0.504 -1.602,-0.901 -2.558,-1.19c0.328,-0.188 0.629,-0.412 0.907,-0.67c0.276,-0.257 0.528,-0.562 0.755,-0.915l6.831,-10.077z" fill-rule="nonzero" fill="#bf1d23"/>
     </g>
     <g id="g220">
      <path id="path222" d="m527.61492,221.19451l-3.321,9.077c-0.164,0.402 -0.334,0.88 -0.51,1.434c-0.177,0.553 -0.353,1.151 -0.528,1.793c-0.164,-0.642 -0.334,-1.242 -0.51,-1.802c-0.176,-0.561 -0.346,-1.048 -0.51,-1.463l-3.302,-9.039l8.681,0zm8.964,-10.304l-3.926,0c-0.44,0 -0.799,0.111 -1.075,0.33c-0.277,0.22 -0.484,0.495 -0.623,0.822l-2.038,5.566l-11.304,0l-2.038,-5.566c-0.101,-0.29 -0.296,-0.554 -0.585,-0.793c-0.29,-0.24 -0.648,-0.359 -1.076,-0.359l-3.963,0l10.738,27.288l5.171,0l10.719,-27.288z" fill-rule="nonzero" fill="#bf1d23"/>
     </g>
     <g id="g224">
      <path id="path226" d="m561.09142,224.57241l0,-11.04c-1.384,-1.019 -2.858,-1.764 -4.425,-2.236c-1.566,-0.472 -3.243,-0.707 -5.029,-0.707c-2.227,0 -4.243,0.345 -6.048,1.038c-1.806,0.691 -3.347,1.654 -4.624,2.886c-1.276,1.234 -2.262,2.705 -2.953,4.416c-0.692,1.711 -1.038,3.58 -1.038,5.605c0,2.051 0.333,3.932 1,5.642c0.667,1.711 1.614,3.183 2.841,4.417c1.226,1.232 2.714,2.189 4.463,2.868c1.748,0.679 3.71,1.019 5.887,1.019c1.107,0 2.142,-0.089 3.105,-0.264c0.962,-0.176 1.855,-0.418 2.679,-0.727c0.824,-0.309 1.576,-0.683 2.255,-1.123c0.68,-0.44 1.302,-0.924 1.868,-1.452l-1.453,-2.303c-0.226,-0.365 -0.522,-0.588 -0.886,-0.67c-0.366,-0.082 -0.762,0.01 -1.189,0.274c-0.416,0.239 -0.831,0.478 -1.246,0.716c-0.415,0.24 -0.877,0.448 -1.387,0.623c-0.509,0.176 -1.082,0.322 -1.717,0.435c-0.635,0.113 -1.369,0.17 -2.199,0.17c-1.346,0 -2.563,-0.227 -3.651,-0.68c-1.089,-0.453 -2.017,-1.101 -2.783,-1.943c-0.768,-0.844 -1.36,-1.857 -1.775,-3.039c-0.415,-1.183 -0.623,-2.503 -0.623,-3.963c0,-1.56 0.224,-2.953 0.67,-4.18c0.447,-1.226 1.076,-2.264 1.888,-3.113c0.811,-0.85 1.789,-1.498 2.934,-1.944c1.145,-0.447 2.422,-0.67 3.832,-0.67c1.005,0 1.905,0.106 2.698,0.321c0.792,0.214 1.566,0.503 2.321,0.868l0,4.943l-3.435,0c-0.327,0 -0.582,0.092 -0.764,0.275c-0.183,0.182 -0.274,0.405 -0.274,0.67l0,2.868l9.058,0z" fill-rule="nonzero" fill="#bf1d23"/>
     </g>
     <g id="g228">
      <path id="path230" d="m580.09533,221.19451l-3.321,9.077c-0.164,0.402 -0.334,0.88 -0.51,1.434c-0.177,0.553 -0.353,1.151 -0.528,1.793c-0.164,-0.642 -0.334,-1.242 -0.51,-1.802c-0.176,-0.561 -0.346,-1.048 -0.51,-1.463l-3.302,-9.039l8.681,0zm8.964,-10.304l-3.926,0c-0.44,0 -0.799,0.111 -1.075,0.33c-0.277,0.22 -0.484,0.495 -0.623,0.822l-2.038,5.566l-11.304,0l-2.038,-5.566c-0.101,-0.29 -0.296,-0.554 -0.585,-0.793c-0.29,-0.24 -0.648,-0.359 -1.076,-0.359l-3.963,0l10.738,27.288l5.171,0l10.719,-27.288z" fill-rule="nonzero" fill="#bf1d23"/>
     </g>
     <path id="path232" d="m591.0026,224.23302l9.775,0l0,-3.888l-9.775,0l0,3.888z" fill-rule="nonzero" fill="#bf1d23"/>
     <g id="g234">
      <path id="path236" d="m614.83562,224.45912c0.932,0 1.743,0.116 2.435,0.349c0.692,0.233 1.267,0.566 1.726,1.001c0.46,0.433 0.803,0.962 1.029,1.585c0.226,0.623 0.339,1.317 0.339,2.085c0,0.729 -0.113,1.39 -0.339,1.981c-0.226,0.592 -0.566,1.095 -1.019,1.51c-0.453,0.415 -1.025,0.732 -1.717,0.953c-0.692,0.22 -1.51,0.33 -2.454,0.33l-3.793,0l0,-9.794l3.793,0zm0,13.72c1.824,0 3.403,-0.215 4.737,-0.642c1.333,-0.429 2.435,-1.026 3.303,-1.793c0.867,-0.767 1.512,-1.686 1.934,-2.756c0.422,-1.069 0.632,-2.239 0.632,-3.509c0,-1.321 -0.22,-2.533 -0.661,-3.633c-0.44,-1.101 -1.1,-2.047 -1.981,-2.84c-0.881,-0.793 -1.985,-1.409 -3.312,-1.85c-1.327,-0.44 -2.878,-0.66 -4.652,-0.66l-3.793,0l0,-9.605l-5.076,0l0,27.288l8.869,0z" fill-rule="nonzero" fill="#bf1d23"/>
     </g>
     <g id="g238">
      <path id="path240" d="m650.16271,224.53431c0,1.497 -0.201,2.841 -0.604,4.029c-0.403,1.189 -0.975,2.199 -1.717,3.029c-0.742,0.831 -1.645,1.465 -2.708,1.906c-1.064,0.44 -2.262,0.661 -3.595,0.661c-1.334,0 -2.532,-0.221 -3.595,-0.661c-1.063,-0.441 -1.969,-1.075 -2.718,-1.906c-0.749,-0.83 -1.324,-1.84 -1.726,-3.029c-0.403,-1.188 -0.605,-2.532 -0.605,-4.029c0,-1.497 0.202,-2.84 0.605,-4.028c0.402,-1.19 0.977,-2.197 1.726,-3.02c0.749,-0.824 1.655,-1.457 2.718,-1.896c1.063,-0.441 2.261,-0.661 3.595,-0.661c1.333,0 2.531,0.22 3.595,0.661c1.063,0.439 1.966,1.072 2.708,1.896c0.742,0.823 1.314,1.83 1.717,3.02c0.403,1.188 0.604,2.531 0.604,4.028m5.189,0c0,-2 -0.33,-3.853 -0.99,-5.558c-0.661,-1.704 -1.595,-3.179 -2.803,-4.424c-1.208,-1.247 -2.661,-2.218 -4.359,-2.916c-1.698,-0.699 -3.586,-1.047 -5.661,-1.047c-2.064,0 -3.944,0.348 -5.643,1.047c-1.698,0.698 -3.154,1.669 -4.369,2.916c-1.214,1.245 -2.154,2.72 -2.821,4.424c-0.667,1.705 -1,3.558 -1,5.558c0,2.001 0.333,3.853 1,5.558c0.667,1.705 1.607,3.179 2.821,4.425c1.215,1.246 2.671,2.217 4.369,2.915c1.699,0.699 3.579,1.048 5.643,1.048c1.384,0 2.686,-0.16 3.906,-0.481c1.22,-0.321 2.34,-0.774 3.36,-1.359c1.018,-0.585 1.933,-1.295 2.745,-2.132c0.811,-0.837 1.501,-1.771 2.066,-2.803c0.567,-1.031 0.997,-2.151 1.293,-3.358c0.295,-1.209 0.443,-2.479 0.443,-3.813" fill-rule="nonzero" fill="#bf1d23"/>
     </g>
     <g id="g242">
      <path id="path244" d="m676.07293,215.08021l0,-4.189l-15.983,0l0,9.945l-3.398,-1.698l0,3.509c0,0.428 0.189,0.73 0.567,0.906l2.831,1.472l0,13.154l5.076,0l0,-10.87l6.756,3.377l0,-3.416c0,-0.515 -0.214,-0.855 -0.642,-1.018l-6.114,-3.171l0,-8.001l10.907,0z" fill-rule="nonzero" fill="#bf1d23"/>
     </g>
     <g id="g246">
      <path id="path248" d="m689.92541,214.98551c0.981,0 1.858,0.164 2.632,0.491c0.774,0.327 1.425,0.786 1.954,1.377c0.528,0.592 0.934,1.309 1.217,2.152c0.283,0.842 0.425,1.786 0.425,2.831l0,16.342l5.076,0l0,-16.342c0,-1.623 -0.262,-3.123 -0.783,-4.501c-0.523,-1.377 -1.271,-2.567 -2.247,-3.567c-0.974,-1 -2.16,-1.78 -3.556,-2.34c-1.397,-0.559 -2.97,-0.839 -4.718,-0.839c-1.762,0 -3.341,0.28 -4.737,0.839c-1.397,0.56 -2.582,1.34 -3.557,2.34c-0.976,1 -1.724,2.19 -2.246,3.567c-0.522,1.378 -0.783,2.878 -0.783,4.501l0,16.342l5.077,0l0,-16.324c0,-1.044 0.141,-1.987 0.424,-2.83c0.283,-0.844 0.692,-1.563 1.226,-2.161c0.535,-0.598 1.19,-1.06 1.963,-1.387c0.774,-0.327 1.652,-0.491 2.633,-0.491" fill-rule="nonzero" fill="#bf1d23"/>
     </g>
     <g id="g250">
      <path id="path252" d="m725.98791,224.53431c0,1.497 -0.198,2.841 -0.595,4.029c-0.396,1.189 -0.968,2.196 -1.717,3.02c-0.749,0.823 -1.655,1.456 -2.717,1.896c-1.064,0.441 -2.262,0.66 -3.595,0.66l-5.303,0l0,-19.21l5.303,0c1.333,0 2.531,0.22 3.595,0.661c1.062,0.439 1.968,1.072 2.717,1.896c0.749,0.823 1.321,1.83 1.717,3.02c0.397,1.188 0.595,2.531 0.595,4.028m5.208,0c0,-2 -0.333,-3.837 -1,-5.51c-0.667,-1.674 -1.604,-3.114 -2.812,-4.322c-1.208,-1.207 -2.661,-2.145 -4.359,-2.812c-1.698,-0.667 -3.586,-1 -5.661,-1l-10.398,0l0,27.289l10.398,0c2.075,0 3.963,-0.337 5.661,-1.01c1.698,-0.674 3.151,-1.611 4.359,-2.813c1.208,-1.201 2.145,-2.638 2.812,-4.311c0.667,-1.674 1,-3.51 1,-5.511" fill-rule="nonzero" fill="#bf1d23"/>
     </g>
     <g id="g254">
      <path id="path256" d="m758.67248,238.17892l0,-27.288l-2.604,0c-0.403,0 -0.739,0.066 -1.009,0.198c-0.272,0.132 -0.533,0.356 -0.783,0.67l-14.249,18.191c0.076,-0.83 0.114,-1.597 0.114,-2.301l0,-16.758l-4.473,0l0,27.288l2.661,0c0.214,0 0.4,-0.01 0.557,-0.028c0.157,-0.02 0.295,-0.057 0.415,-0.114c0.119,-0.056 0.236,-0.138 0.35,-0.246c0.112,-0.106 0.238,-0.248 0.376,-0.424l14.305,-18.267c-0.038,0.44 -0.069,0.874 -0.095,1.302c-0.025,0.427 -0.038,0.824 -0.038,1.189l0,16.588l4.473,0z" fill-rule="nonzero" fill="#bf1d23"/>
     </g>
     <path id="path258" d="m769.8446,210.89102l-5.096,0l0,27.288l5.096,0l0,-27.288z" fill-rule="nonzero" fill="#bf1d23"/>
     <g id="g260">
      <path id="path262" d="m781.03478,234.13981l0,-7.567l9.549,0l0,-3.907l-9.549,0l0,-7.717l12.115,0l0,-4.058l-17.211,0l0,27.288l17.211,0l0,-4.039l-12.115,0z" fill-rule="nonzero" fill="#bf1d23"/>
     </g>
     <path id="path264" d="m111.2076,165.60002l-4.68,0l0,19.361l4.68,0l0,-19.361zm0.642,25.004c0,-0.403 -0.082,-0.781 -0.245,-1.132c-0.165,-0.353 -0.381,-0.66 -0.652,-0.925c-0.27,-0.264 -0.588,-0.475 -0.952,-0.632c-0.366,-0.158 -0.755,-0.236 -1.171,-0.236c-0.403,0 -0.783,0.078 -1.141,0.236c-0.359,0.157 -0.67,0.368 -0.935,0.632c-0.264,0.265 -0.475,0.572 -0.632,0.925c-0.157,0.351 -0.236,0.729 -0.236,1.132c0,0.416 0.079,0.805 0.236,1.17c0.157,0.365 0.368,0.679 0.632,0.944c0.265,0.264 0.576,0.475 0.935,0.632c0.358,0.157 0.738,0.236 1.141,0.236c0.416,0 0.805,-0.079 1.171,-0.236c0.364,-0.157 0.682,-0.368 0.952,-0.632c0.271,-0.265 0.487,-0.579 0.652,-0.944c0.163,-0.365 0.245,-0.754 0.245,-1.17" fill-rule="nonzero" fill="#bf1d23"/>
     <g id="g266">
      <path id="path268" d="m115.963,165.59982l0,19.361l2.85,0c0.604,0 1,-0.282 1.189,-0.848l0.301,-1.435c0.34,0.378 0.695,0.724 1.067,1.038c0.37,0.315 0.767,0.585 1.189,0.812c0.421,0.226 0.874,0.405 1.358,0.538c0.484,0.132 1.016,0.198 1.595,0.198c1.22,0 2.223,-0.331 3.01,-0.991c0.786,-0.66 1.374,-1.538 1.764,-2.633c0.302,0.642 0.679,1.192 1.133,1.651c0.452,0.459 0.949,0.834 1.49,1.123c0.541,0.29 1.116,0.503 1.727,0.642c0.61,0.139 1.223,0.208 1.84,0.208c1.069,0 2.019,-0.164 2.849,-0.491c0.831,-0.327 1.529,-0.805 2.095,-1.434c0.566,-0.63 0.997,-1.396 1.293,-2.302c0.295,-0.906 0.443,-1.944 0.443,-3.114l0,-12.323l-4.661,0l0,12.323c0,1.233 -0.27,2.16 -0.811,2.783c-0.541,0.623 -1.334,0.934 -2.378,0.934c-0.478,0 -0.922,-0.081 -1.33,-0.245c-0.409,-0.163 -0.768,-0.399 -1.076,-0.707c-0.309,-0.309 -0.551,-0.695 -0.727,-1.161c-0.176,-0.466 -0.264,-1 -0.264,-1.604l0,-12.323l-4.68,0l0,12.323c0,1.295 -0.261,2.24 -0.783,2.83c-0.522,0.592 -1.287,0.887 -2.293,0.887c-0.679,0 -1.312,-0.166 -1.897,-0.5c-0.585,-0.333 -1.129,-0.789 -1.632,-1.368l0,-14.172l-4.661,0z" fill-rule="nonzero" fill="#bf1d23"/>
     </g>
     <g id="g270">
      <path id="path272" d="m146.89269,168.16622c0,0.39 0.072,0.761 0.217,1.113c0.144,0.353 0.343,0.655 0.595,0.907c0.251,0.251 0.553,0.453 0.905,0.603c0.352,0.151 0.73,0.227 1.133,0.227c0.402,0 0.776,-0.076 1.122,-0.227c0.346,-0.15 0.648,-0.352 0.906,-0.603c0.258,-0.252 0.462,-0.554 0.613,-0.907c0.152,-0.352 0.227,-0.723 0.227,-1.113c0,-0.402 -0.075,-0.777 -0.227,-1.123c-0.151,-0.346 -0.355,-0.645 -0.613,-0.897c-0.258,-0.251 -0.56,-0.449 -0.906,-0.593c-0.346,-0.145 -0.72,-0.218 -1.122,-0.218c-0.403,0 -0.781,0.073 -1.133,0.218c-0.352,0.144 -0.654,0.342 -0.905,0.593c-0.252,0.252 -0.451,0.551 -0.595,0.897c-0.145,0.346 -0.217,0.721 -0.217,1.123" fill-rule="nonzero" fill="#bf1d23"/>
     </g>
     <g id="g274">
      <path id="path276" d="m182.93621,169.09101l0,-3.491l-15.097,0l0,3.491l5.529,0l0,15.908c0,0.629 0.019,1.278 0.057,1.945l-3.926,-3.285c-0.226,-0.175 -0.449,-0.286 -0.669,-0.33c-0.221,-0.044 -0.428,-0.047 -0.623,-0.009c-0.195,0.038 -0.368,0.104 -0.519,0.198c-0.151,0.094 -0.264,0.198 -0.34,0.311l-1.472,2.02l8.323,7.076l3.83,0l0,-23.834l4.907,0z" fill-rule="nonzero" fill="#bf1d23"/>
     </g>
     <g id="g278">
      <path id="path280" d="m233.5675,192.88782l-8.473,-27.288l-4.586,0l-5.963,18.644c-0.164,0.454 -0.314,1.007 -0.453,1.662c-0.075,-0.315 -0.151,-0.611 -0.226,-0.888c-0.076,-0.276 -0.158,-0.534 -0.246,-0.774l-6.019,-18.644l-4.605,0l-8.454,27.288l4.246,0c0.44,0 0.808,-0.104 1.104,-0.312c0.295,-0.208 0.493,-0.488 0.594,-0.839l4.643,-16.324c0.1,-0.403 0.197,-0.839 0.292,-1.312c0.094,-0.472 0.191,-0.965 0.292,-1.481c0.101,0.529 0.211,1.025 0.331,1.491c0.119,0.465 0.248,0.899 0.386,1.302l5.36,16.324c0.1,0.289 0.298,0.553 0.594,0.792c0.296,0.239 0.658,0.359 1.085,0.359l1.491,0c0.44,0 0.799,-0.107 1.076,-0.321c0.277,-0.214 0.484,-0.491 0.623,-0.83l5.34,-16.324c0.264,-0.78 0.503,-1.679 0.717,-2.699c0.163,0.994 0.346,1.894 0.547,2.699l4.643,16.324c0.075,0.314 0.267,0.585 0.576,0.811c0.308,0.227 0.675,0.34 1.104,0.34l3.981,0z" fill-rule="nonzero" fill="#bf1d23"/>
     </g>
     <g id="g282">
      <path id="path284" d="m255.94891,179.24332c0,1.497 -0.198,2.841 -0.595,4.029c-0.396,1.189 -0.968,2.196 -1.717,3.02c-0.749,0.823 -1.655,1.456 -2.717,1.896c-1.064,0.441 -2.262,0.66 -3.595,0.66l-5.303,0l0,-19.21l5.303,0c1.333,0 2.531,0.22 3.595,0.661c1.062,0.439 1.968,1.072 2.717,1.896c0.749,0.823 1.321,1.83 1.717,3.02c0.397,1.188 0.595,2.531 0.595,4.028m5.208,0c0,-2 -0.333,-3.837 -1,-5.51c-0.667,-1.674 -1.604,-3.114 -2.812,-4.322c-1.208,-1.207 -2.661,-2.145 -4.359,-2.812c-1.698,-0.667 -3.586,-1 -5.661,-1l-10.398,0l0,27.289l10.398,0c2.075,0 3.963,-0.337 5.661,-1.01c1.698,-0.674 3.151,-1.611 4.359,-2.813c1.208,-1.201 2.145,-2.638 2.812,-4.311c0.667,-1.674 1,-3.51 1,-5.511" fill-rule="nonzero" fill="#bf1d23"/>
     </g>
     <g id="g286">
      <path id="path288" d="m274.4977,179.16812c0.932,0 1.743,0.116 2.435,0.349c0.692,0.233 1.267,0.566 1.726,1.001c0.46,0.433 0.803,0.962 1.029,1.585c0.226,0.623 0.339,1.317 0.339,2.085c0,0.729 -0.113,1.39 -0.339,1.981c-0.226,0.592 -0.566,1.095 -1.019,1.51c-0.453,0.415 -1.025,0.732 -1.717,0.953c-0.692,0.22 -1.51,0.33 -2.454,0.33l-3.793,0l0,-9.794l3.793,0zm0,13.72c1.824,0 3.403,-0.215 4.737,-0.642c1.333,-0.429 2.435,-1.026 3.303,-1.793c0.867,-0.767 1.512,-1.686 1.934,-2.756c0.422,-1.069 0.632,-2.239 0.632,-3.509c0,-1.321 -0.22,-2.533 -0.661,-3.633c-0.44,-1.101 -1.1,-2.047 -1.981,-2.84c-0.881,-0.793 -1.985,-1.409 -3.312,-1.85c-1.327,-0.44 -2.878,-0.66 -4.652,-0.66l-3.793,0l0,-9.605l-5.076,0l0,27.288l8.869,0z" fill-rule="nonzero" fill="#bf1d23"/>
     </g>
     <path id="path290" d="m301.1996,165.60002l-4.68,0l0,19.361l4.68,0l0,-19.361zm0.643,25.004c0,-0.403 -0.082,-0.781 -0.246,-1.132c-0.163,-0.353 -0.381,-0.66 -0.651,-0.925c-0.271,-0.264 -0.589,-0.475 -0.953,-0.632c-0.365,-0.158 -0.755,-0.236 -1.17,-0.236c-0.403,0 -0.783,0.078 -1.141,0.236c-0.36,0.157 -0.67,0.368 -0.935,0.632c-0.265,0.265 -0.474,0.572 -0.632,0.925c-0.158,0.351 -0.236,0.729 -0.236,1.132c0,0.416 0.078,0.805 0.236,1.17c0.158,0.365 0.367,0.679 0.632,0.944c0.265,0.264 0.575,0.475 0.935,0.632c0.358,0.157 0.738,0.236 1.141,0.236c0.415,0 0.805,-0.079 1.17,-0.236c0.364,-0.157 0.682,-0.368 0.953,-0.632c0.27,-0.265 0.488,-0.579 0.651,-0.944c0.164,-0.365 0.246,-0.754 0.246,-1.17" fill-rule="nonzero" fill="#bf1d23"/>
     <g id="g292">
      <path id="path294" d="m305.95669,165.59982l0,19.361l2.849,0c0.604,0 1.001,-0.282 1.189,-0.848l0.302,-1.435c0.34,0.378 0.695,0.724 1.066,1.038c0.371,0.315 0.768,0.585 1.189,0.812c0.422,0.226 0.875,0.405 1.359,0.538c0.484,0.132 1.016,0.198 1.595,0.198c1.22,0 2.222,-0.331 3.01,-0.991c0.786,-0.66 1.374,-1.538 1.763,-2.633c0.303,0.642 0.68,1.192 1.133,1.651c0.453,0.459 0.949,0.834 1.491,1.123c0.54,0.29 1.116,0.503 1.727,0.642c0.609,0.139 1.223,0.208 1.84,0.208c1.069,0 2.018,-0.164 2.849,-0.491c0.83,-0.327 1.529,-0.805 2.095,-1.434c0.565,-0.63 0.997,-1.396 1.292,-2.302c0.296,-0.906 0.444,-1.944 0.444,-3.114l0,-12.323l-4.662,0l0,12.323c0,1.233 -0.27,2.16 -0.81,2.783c-0.542,0.623 -1.334,0.934 -2.378,0.934c-0.479,0 -0.922,-0.081 -1.331,-0.245c-0.408,-0.163 -0.768,-0.399 -1.075,-0.707c-0.309,-0.309 -0.551,-0.695 -0.727,-1.161c-0.177,-0.466 -0.265,-1 -0.265,-1.604l0,-12.323l-4.679,0l0,12.323c0,1.295 -0.262,2.24 -0.784,2.83c-0.522,0.592 -1.286,0.887 -2.293,0.887c-0.678,0 -1.311,-0.166 -1.896,-0.5c-0.585,-0.333 -1.129,-0.789 -1.632,-1.368l0,-14.172l-4.661,0z" fill-rule="nonzero" fill="#bf1d23"/>
     </g>
     <g id="g296">
      <path id="path298" d="m336.88641,168.16622c0,0.39 0.072,0.761 0.217,1.113c0.144,0.353 0.343,0.655 0.595,0.907c0.25,0.251 0.553,0.453 0.905,0.603c0.352,0.151 0.729,0.227 1.133,0.227c0.402,0 0.776,-0.076 1.123,-0.227c0.345,-0.15 0.647,-0.352 0.905,-0.603c0.258,-0.252 0.463,-0.554 0.613,-0.907c0.152,-0.352 0.227,-0.723 0.227,-1.113c0,-0.402 -0.075,-0.777 -0.227,-1.123c-0.15,-0.346 -0.355,-0.645 -0.613,-0.897c-0.258,-0.251 -0.56,-0.449 -0.905,-0.593c-0.347,-0.145 -0.721,-0.218 -1.123,-0.218c-0.404,0 -0.781,0.073 -1.133,0.218c-0.352,0.144 -0.655,0.342 -0.905,0.593c-0.252,0.252 -0.451,0.551 -0.595,0.897c-0.145,0.346 -0.217,0.721 -0.217,1.123" fill-rule="nonzero" fill="#bf1d23"/>
     </g>
     <g id="g300">
      <path id="path302" d="m374.34441,188.71691l-8.228,0l0,-23.117l-5.076,0l0,23.117l-8.227,0l0,4.171l21.531,0l0,-4.171z" fill-rule="nonzero" fill="#bf1d23"/>
     </g>
     <g id="g304">
      <path id="path306" d="m383.25259,173.86542c-1.346,-0.063 -2.479,-0.18 -3.396,-0.35c-0.919,-0.169 -1.655,-0.386 -2.208,-0.65c-0.554,-0.265 -0.951,-0.573 -1.189,-0.925c-0.239,-0.352 -0.359,-0.736 -0.359,-1.151c0,-0.818 0.242,-1.403 0.726,-1.755c0.485,-0.353 1.116,-0.528 1.897,-0.528c0.956,0 1.784,0.172 2.482,0.518c0.698,0.346 1.38,0.871 2.047,1.576l0,3.265zm-10.681,8.397c2.227,2.039 4.907,3.058 8.039,3.058c1.132,0 2.145,-0.186 3.038,-0.557c0.894,-0.372 1.649,-0.887 2.265,-1.547c0.616,-0.661 1.085,-1.451 1.406,-2.369c0.321,-0.919 0.481,-1.924 0.481,-3.019l0,-12.229l-2.113,0c-0.441,0 -0.781,0.067 -1.02,0.199c-0.238,0.131 -0.428,0.399 -0.565,0.801l-0.415,1.397c-0.492,-0.441 -0.97,-0.827 -1.435,-1.16c-0.466,-0.334 -0.95,-0.614 -1.453,-0.84c-0.503,-0.227 -1.041,-0.4 -1.613,-0.52c-0.574,-0.119 -1.205,-0.178 -1.897,-0.178c-0.818,0 -1.573,0.11 -2.265,0.33c-0.692,0.219 -1.29,0.55 -1.793,0.99c-0.502,0.44 -0.893,0.988 -1.169,1.643c-0.278,0.653 -0.415,1.415 -0.415,2.283c0,0.49 0.082,0.977 0.245,1.463c0.163,0.483 0.43,0.946 0.801,1.386c0.371,0.441 0.853,0.856 1.445,1.245c0.591,0.39 1.317,0.73 2.179,1.02c0.862,0.289 1.865,0.524 3.01,0.707c1.145,0.183 2.453,0.293 3.925,0.331l0,1.132c0,1.296 -0.276,2.255 -0.83,2.878c-0.554,0.623 -1.353,0.933 -2.397,0.933c-0.754,0 -1.38,-0.087 -1.877,-0.263c-0.498,-0.177 -0.935,-0.375 -1.312,-0.595c-0.377,-0.22 -0.721,-0.418 -1.028,-0.595c-0.309,-0.175 -0.652,-0.263 -1.029,-0.263c-0.327,0 -0.604,0.085 -0.831,0.254c-0.225,0.17 -0.408,0.369 -0.547,0.595l-0.83,1.49z" fill-rule="nonzero" fill="#bf1d23"/>
     </g>
     <g id="g308">
      <path id="path310" d="m404.33172,180.01772c-0.528,0.642 -1.104,1.094 -1.727,1.358c-0.623,0.264 -1.293,0.397 -2.009,0.397c-0.705,0 -1.34,-0.133 -1.907,-0.397c-0.565,-0.264 -1.049,-0.664 -1.453,-1.198c-0.402,-0.535 -0.711,-1.215 -0.924,-2.038c-0.214,-0.824 -0.321,-1.796 -0.321,-2.916c0,-1.132 0.091,-2.092 0.274,-2.878c0.182,-0.786 0.443,-1.428 0.783,-1.925c0.34,-0.497 0.755,-0.855 1.246,-1.075c0.49,-0.221 1.037,-0.33 1.642,-0.33c0.968,0 1.792,0.201 2.471,0.604c0.68,0.402 1.321,0.974 1.925,1.717l0,8.681zm4.661,13.625l0,-28.043l-2.849,0c-0.617,0 -1.006,0.283 -1.17,0.85l-0.397,1.868c-0.779,-0.894 -1.676,-1.617 -2.688,-2.171c-1.013,-0.553 -2.193,-0.83 -3.538,-0.83c-1.058,0 -2.027,0.221 -2.907,0.66c-0.881,0.44 -1.639,1.079 -2.274,1.916c-0.636,0.836 -1.126,1.871 -1.472,3.104c-0.346,1.233 -0.519,2.642 -0.519,4.227c0,1.435 0.195,2.768 0.585,4.001c0.39,1.232 0.95,2.303 1.679,3.208c0.73,0.906 1.605,1.613 2.623,2.123c1.02,0.51 2.164,0.765 3.435,0.765c1.082,0 2.007,-0.17 2.774,-0.51c0.768,-0.34 1.453,-0.799 2.057,-1.378l0,10.21l4.661,0z" fill-rule="nonzero" fill="#bf1d23"/>
     </g>
     <g id="g312">
      <path id="path314" d="m426.07091,177.50701c0,0.604 -0.085,1.174 -0.255,1.708c-0.17,0.535 -0.425,1.004 -0.765,1.406c-0.339,0.403 -0.77,0.72 -1.292,0.953c-0.522,0.233 -1.129,0.349 -1.821,0.349c-1.346,0 -2.406,-0.384 -3.179,-1.15c-0.775,-0.768 -1.268,-1.857 -1.482,-3.266l8.794,0zm-8.889,-2.812c0.076,-0.994 0.252,-1.852 0.529,-2.576c0.276,-0.722 0.641,-1.32 1.094,-1.792c0.454,-0.471 0.991,-0.824 1.614,-1.056c0.623,-0.234 1.311,-0.35 2.066,-0.35c0.755,0 1.406,0.088 1.953,0.265c0.548,0.175 1.026,0.37 1.435,0.585c0.408,0.214 0.766,0.408 1.075,0.585c0.309,0.175 0.607,0.263 0.896,0.263c0.39,0 0.68,-0.144 0.869,-0.433l1.339,-1.699c-0.515,-0.604 -1.094,-1.111 -1.736,-1.519c-0.641,-0.409 -1.311,-0.736 -2.01,-0.982c-0.698,-0.245 -1.409,-0.417 -2.131,-0.518c-0.724,-0.101 -1.425,-0.151 -2.105,-0.151c-1.347,0 -2.598,0.223 -3.755,0.669c-1.158,0.447 -2.164,1.108 -3.019,1.982c-0.857,0.874 -1.53,1.956 -2.02,3.246c-0.49,1.289 -0.736,2.783 -0.736,4.481c0,1.322 0.214,2.564 0.641,3.728c0.428,1.163 1.041,2.176 1.841,3.038c0.798,0.861 1.774,1.544 2.925,2.048c1.15,0.503 2.45,0.755 3.896,0.755c1.221,0 2.347,-0.195 3.378,-0.585c1.032,-0.391 1.919,-0.96 2.662,-1.708c0.742,-0.749 1.324,-1.667 1.745,-2.756c0.422,-1.088 0.632,-2.33 0.632,-3.727c0,-0.705 -0.076,-1.179 -0.226,-1.424c-0.151,-0.245 -0.441,-0.369 -0.868,-0.369l-11.984,0z" fill-rule="nonzero" fill="#bf1d23"/>
     </g>
     <g id="g316">
      <path id="path318" d="m450.43322,184.96112l0,-19.361l-2.85,0c-0.616,0 -1.006,0.283 -1.17,0.849l-0.321,1.547c-0.792,-0.805 -1.667,-1.456 -2.623,-1.953c-0.956,-0.497 -2.082,-0.745 -3.378,-0.745c-1.056,0 -1.99,0.179 -2.802,0.538c-0.811,0.358 -1.494,0.864 -2.047,1.519c-0.554,0.654 -0.972,1.43 -1.255,2.331c-0.283,0.899 -0.425,1.889 -0.425,2.971l0,12.304l4.661,0l0,-12.304c0,-1.182 0.274,-2.097 0.821,-2.745c0.547,-0.648 1.368,-0.972 2.463,-0.972c0.805,0 1.56,0.179 2.265,0.538c0.704,0.358 1.371,0.852 2,1.481l0,14.002l4.661,0z" fill-rule="nonzero" fill="#bf1d23"/>
     </g>
     <g id="g320">
      <path id="path322" d="m466.85021,181.18762c-0.126,-0.202 -0.258,-0.343 -0.396,-0.425c-0.138,-0.082 -0.315,-0.123 -0.528,-0.123c-0.226,0 -0.47,0.064 -0.726,0.19c-0.259,0.125 -0.558,0.266 -0.897,0.423c-0.34,0.158 -0.726,0.299 -1.161,0.425c-0.434,0.126 -0.946,0.189 -1.538,0.189c-0.918,0 -1.639,-0.196 -2.16,-0.585c-0.523,-0.39 -0.783,-0.9 -0.783,-1.529c0,-0.415 0.134,-0.764 0.405,-1.046c0.27,-0.284 0.629,-0.533 1.076,-0.747c0.446,-0.213 0.953,-0.405 1.519,-0.575c0.566,-0.17 1.141,-0.355 1.726,-0.556c0.585,-0.202 1.161,-0.432 1.728,-0.69c0.565,-0.258 1.072,-0.585 1.518,-0.98c0.446,-0.397 0.805,-0.872 1.076,-1.425c0.271,-0.554 0.406,-1.221 0.406,-2.001c0,-0.931 -0.167,-1.789 -0.5,-2.575c-0.333,-0.787 -0.827,-1.466 -1.482,-2.038c-0.654,-0.574 -1.463,-1.02 -2.425,-1.34c-0.962,-0.321 -2.073,-0.482 -3.331,-0.482c-0.667,0 -1.317,0.06 -1.953,0.179c-0.635,0.12 -1.245,0.286 -1.83,0.5c-0.585,0.214 -1.126,0.466 -1.623,0.755c-0.497,0.29 -0.934,0.604 -1.311,0.944l1.075,1.774c0.138,0.214 0.302,0.378 0.491,0.491c0.188,0.112 0.428,0.169 0.717,0.169c0.289,0 0.562,-0.081 0.821,-0.245c0.258,-0.163 0.557,-0.34 0.897,-0.529c0.338,-0.188 0.738,-0.365 1.198,-0.528c0.459,-0.163 1.04,-0.245 1.745,-0.245c0.554,0 1.028,0.066 1.425,0.198c0.396,0.132 0.723,0.305 0.981,0.519c0.258,0.214 0.446,0.463 0.567,0.745c0.119,0.283 0.178,0.576 0.178,0.878c0,0.453 -0.134,0.824 -0.405,1.113c-0.271,0.289 -0.63,0.541 -1.076,0.755c-0.446,0.214 -0.956,0.406 -1.528,0.576c-0.573,0.169 -1.158,0.355 -1.755,0.557c-0.598,0.201 -1.183,0.436 -1.755,0.707c-0.574,0.27 -1.082,0.613 -1.529,1.028c-0.447,0.416 -0.805,0.925 -1.076,1.529c-0.27,0.604 -0.405,1.333 -0.405,2.189c0,0.793 0.157,1.548 0.472,2.265c0.314,0.716 0.776,1.342 1.386,1.878c0.611,0.534 1.371,0.961 2.284,1.283c0.912,0.32 1.965,0.481 3.161,0.481c1.333,0 2.548,-0.221 3.642,-0.661c1.094,-0.44 2.006,-1.019 2.737,-1.735l-1.058,-1.68z" fill-rule="nonzero" fill="#bf1d23"/>
     </g>
     <g id="g324">
      <path id="path326" d="m485.53283,183.03632c0,-0.327 -0.057,-0.647 -0.17,-0.962c-0.112,-0.314 -0.264,-0.572 -0.452,-0.773l-9.191,-12.116l9.531,0l0,-3.586l-14.947,0l0,1.944c0,0.214 0.05,0.469 0.151,0.764c0.1,0.296 0.252,0.576 0.453,0.84l9.285,12.247l-9.342,0l0,3.567l14.682,0l0,-1.925z" fill-rule="nonzero" fill="#bf1d23"/>
     </g>
     <g id="g328">
      <path id="path330" d="m499.19488,173.86542c-1.346,-0.063 -2.479,-0.18 -3.396,-0.35c-0.919,-0.169 -1.655,-0.386 -2.208,-0.65c-0.554,-0.265 -0.951,-0.573 -1.189,-0.925c-0.239,-0.352 -0.359,-0.736 -0.359,-1.151c0,-0.818 0.242,-1.403 0.726,-1.755c0.485,-0.353 1.116,-0.528 1.897,-0.528c0.956,0 1.784,0.172 2.482,0.518c0.698,0.346 1.38,0.871 2.047,1.576l0,3.265zm-10.681,8.397c2.227,2.039 4.907,3.058 8.039,3.058c1.132,0 2.145,-0.186 3.038,-0.557c0.894,-0.372 1.649,-0.887 2.265,-1.547c0.616,-0.661 1.085,-1.451 1.406,-2.369c0.321,-0.919 0.481,-1.924 0.481,-3.019l0,-12.229l-2.113,0c-0.441,0 -0.781,0.067 -1.02,0.199c-0.238,0.131 -0.428,0.399 -0.565,0.801l-0.415,1.397c-0.492,-0.441 -0.97,-0.827 -1.435,-1.16c-0.466,-0.334 -0.95,-0.614 -1.453,-0.84c-0.503,-0.227 -1.041,-0.4 -1.613,-0.52c-0.574,-0.119 -1.205,-0.178 -1.897,-0.178c-0.818,0 -1.573,0.11 -2.265,0.33c-0.692,0.219 -1.29,0.55 -1.793,0.99c-0.502,0.44 -0.893,0.988 -1.169,1.643c-0.278,0.653 -0.415,1.415 -0.415,2.283c0,0.49 0.082,0.977 0.245,1.463c0.163,0.483 0.43,0.946 0.801,1.386c0.371,0.441 0.853,0.856 1.445,1.245c0.591,0.39 1.317,0.73 2.179,1.02c0.862,0.289 1.865,0.524 3.01,0.707c1.145,0.183 2.453,0.293 3.925,0.331l0,1.132c0,1.296 -0.276,2.255 -0.83,2.878c-0.554,0.623 -1.353,0.933 -2.397,0.933c-0.754,0 -1.38,-0.087 -1.877,-0.263c-0.498,-0.177 -0.935,-0.375 -1.312,-0.595c-0.377,-0.22 -0.721,-0.418 -1.028,-0.595c-0.309,-0.175 -0.652,-0.263 -1.029,-0.263c-0.327,0 -0.604,0.085 -0.831,0.254c-0.225,0.17 -0.408,0.369 -0.547,0.595l-0.83,1.49z" fill-rule="nonzero" fill="#bf1d23"/>
     </g>
     <g id="g332">
      <path id="path334" d="m523.10412,181.45132l1.189,0c0.478,0 0.874,0.066 1.189,0.198c0.314,0.132 0.585,0.343 0.811,0.632l7.53,9.53c0.314,0.403 0.644,0.683 0.991,0.84c0.346,0.157 0.783,0.237 1.311,0.237l4.378,0l-9.19,-11.342c-0.541,-0.693 -1.101,-1.183 -1.68,-1.472c0.416,-0.151 0.79,-0.362 1.123,-0.633c0.333,-0.27 0.652,-0.626 0.953,-1.066l9.474,-12.776l-4.473,0c-0.603,0 -1.053,0.085 -1.349,0.255c-0.296,0.17 -0.544,0.418 -0.745,0.745l-7.719,10.078c-0.238,0.339 -0.516,0.579 -0.83,0.717c-0.315,0.138 -0.768,0.207 -1.359,0.207l-1.604,0l0,-12.002l-5.076,0l0,27.289l5.076,0l0,-11.437z" fill-rule="nonzero" fill="#bf1d23"/>
     </g>
     <g id="g336">
      <path id="path338" d="m550.33562,168.90251c1.61,0 2.802,0.54 3.576,1.623c0.774,1.081 1.16,2.667 1.16,4.755c0,2.089 -0.386,3.68 -1.16,4.774c-0.774,1.095 -1.966,1.642 -3.576,1.642c-1.636,0 -2.847,-0.55 -3.633,-1.65c-0.786,-1.102 -1.179,-2.69 -1.179,-4.766c0,-2.075 0.393,-3.658 1.179,-4.746c0.786,-1.088 1.997,-1.632 3.633,-1.632m0,16.361c1.434,0 2.739,-0.233 3.915,-0.698c1.177,-0.466 2.183,-1.126 3.02,-1.981c0.836,-0.857 1.481,-1.901 1.934,-3.133c0.453,-1.234 0.68,-2.612 0.68,-4.133c0,-1.535 -0.227,-2.919 -0.68,-4.151c-0.453,-1.234 -1.098,-2.285 -1.934,-3.153c-0.837,-0.867 -1.843,-1.534 -3.02,-2c-1.176,-0.465 -2.481,-0.698 -3.915,-0.698c-1.447,0 -2.762,0.233 -3.944,0.698c-1.183,0.466 -2.193,1.133 -3.03,2c-0.836,0.868 -1.484,1.919 -1.943,3.153c-0.459,1.232 -0.688,2.616 -0.688,4.151c0,1.521 0.229,2.899 0.688,4.133c0.459,1.232 1.107,2.276 1.943,3.133c0.837,0.855 1.847,1.515 3.03,1.981c1.182,0.465 2.497,0.698 3.944,0.698" fill-rule="nonzero" fill="#bf1d23"/>
     </g>
     <g id="g340">
      <path id="path342" d="m576.26427,193.18962l-4.661,-4.926c-0.239,-0.252 -0.47,-0.425 -0.69,-0.518c-0.219,-0.095 -0.506,-0.142 -0.858,-0.142l-2.793,0l2.68,4.586c0.188,0.326 0.408,0.575 0.66,0.745c0.252,0.17 0.629,0.255 1.133,0.255l4.529,0zm-1.001,-12.002c-0.126,-0.202 -0.258,-0.343 -0.395,-0.425c-0.139,-0.082 -0.316,-0.123 -0.529,-0.123c-0.226,0 -0.47,0.064 -0.726,0.19c-0.259,0.125 -0.558,0.266 -0.897,0.423c-0.34,0.158 -0.726,0.299 -1.161,0.425c-0.434,0.126 -0.946,0.189 -1.538,0.189c-0.918,0 -1.639,-0.196 -2.16,-0.585c-0.523,-0.39 -0.783,-0.9 -0.783,-1.529c0,-0.415 0.134,-0.764 0.405,-1.046c0.27,-0.284 0.629,-0.533 1.076,-0.746c0.446,-0.214 0.953,-0.406 1.519,-0.576c0.566,-0.17 1.141,-0.355 1.726,-0.556c0.585,-0.201 1.161,-0.432 1.728,-0.69c0.565,-0.258 1.072,-0.585 1.518,-0.98c0.447,-0.397 0.805,-0.872 1.076,-1.425c0.271,-0.554 0.406,-1.221 0.406,-2.001c0,-0.931 -0.167,-1.789 -0.5,-2.575c-0.333,-0.787 -0.827,-1.466 -1.482,-2.038c-0.654,-0.574 -1.463,-1.02 -2.425,-1.34c-0.962,-0.321 -2.073,-0.482 -3.331,-0.482c-0.667,0 -1.317,0.06 -1.953,0.179c-0.635,0.12 -1.245,0.286 -1.83,0.5c-0.585,0.214 -1.126,0.466 -1.623,0.755c-0.497,0.29 -0.934,0.604 -1.311,0.944l1.075,1.774c0.138,0.214 0.303,0.378 0.491,0.491c0.188,0.112 0.428,0.169 0.717,0.169c0.289,0 0.562,-0.081 0.821,-0.245c0.258,-0.163 0.557,-0.34 0.897,-0.529c0.338,-0.188 0.738,-0.365 1.198,-0.528c0.459,-0.163 1.04,-0.245 1.745,-0.245c0.554,0 1.028,0.066 1.425,0.198c0.396,0.132 0.723,0.305 0.981,0.519c0.258,0.214 0.446,0.463 0.567,0.745c0.119,0.283 0.178,0.576 0.178,0.878c0,0.453 -0.134,0.824 -0.405,1.113c-0.27,0.289 -0.63,0.541 -1.076,0.755c-0.446,0.214 -0.956,0.406 -1.528,0.576c-0.573,0.169 -1.158,0.355 -1.755,0.557c-0.598,0.201 -1.183,0.436 -1.755,0.707c-0.573,0.27 -1.082,0.613 -1.529,1.028c-0.447,0.416 -0.805,0.925 -1.076,1.53c-0.27,0.603 -0.405,1.333 -0.405,2.188c0,0.793 0.157,1.548 0.472,2.265c0.314,0.716 0.776,1.342 1.386,1.878c0.611,0.534 1.371,0.961 2.284,1.283c0.912,0.32 1.965,0.481 3.161,0.481c1.333,0 2.548,-0.22 3.642,-0.661c1.094,-0.44 2.006,-1.018 2.737,-1.735l-1.058,-1.68z" fill-rule="nonzero" fill="#bf1d23"/>
     </g>
     <g id="g344">
      <path id="path346" d="m593.90881,180.86642c-0.139,-0.176 -0.273,-0.314 -0.406,-0.415c-0.132,-0.101 -0.324,-0.151 -0.575,-0.151c-0.24,0 -0.472,0.072 -0.699,0.217c-0.226,0.145 -0.497,0.308 -0.811,0.491c-0.315,0.182 -0.689,0.345 -1.123,0.491c-0.434,0.143 -0.972,0.217 -1.614,0.217c-0.818,0 -1.535,-0.149 -2.151,-0.444c-0.616,-0.296 -1.129,-0.72 -1.538,-1.274c-0.409,-0.554 -0.714,-1.224 -0.915,-2.01c-0.201,-0.786 -0.302,-1.677 -0.302,-2.67c0,-1.032 0.11,-1.95 0.33,-2.755c0.22,-0.805 0.538,-1.481 0.953,-2.029c0.415,-0.547 0.918,-0.962 1.51,-1.245c0.591,-0.283 1.258,-0.425 2,-0.425c0.742,0 1.343,0.091 1.802,0.273c0.46,0.183 0.847,0.384 1.161,0.605c0.315,0.22 0.588,0.421 0.82,0.603c0.234,0.183 0.495,0.274 0.784,0.274c0.378,0 0.661,-0.145 0.849,-0.434l1.34,-1.698c-0.516,-0.604 -1.075,-1.111 -1.68,-1.519c-0.603,-0.41 -1.229,-0.737 -1.878,-0.982c-0.647,-0.245 -1.314,-0.418 -2,-0.518c-0.685,-0.101 -1.368,-0.152 -2.047,-0.152c-1.196,0 -2.321,0.224 -3.378,0.67c-1.057,0.446 -1.982,1.098 -2.774,1.953c-0.793,0.856 -1.419,1.904 -1.878,3.143c-0.459,1.238 -0.688,2.651 -0.688,4.236c0,1.422 0.204,2.739 0.613,3.953c0.408,1.214 1.01,2.265 1.802,3.152c0.793,0.887 1.774,1.582 2.944,2.086c1.17,0.503 2.516,0.754 4.038,0.754c1.447,0 2.714,-0.233 3.803,-0.698c1.088,-0.466 2.066,-1.133 2.935,-2.001l-1.227,-1.698z" fill-rule="nonzero" fill="#bf1d23"/>
     </g>
     <path id="path348" d="m603.0606,165.60002l-4.68,0l0,19.361l4.68,0l0,-19.361zm0.642,25.004c0,-0.403 -0.082,-0.781 -0.246,-1.132c-0.163,-0.353 -0.381,-0.66 -0.65,-0.925c-0.272,-0.264 -0.589,-0.475 -0.953,-0.632c-0.366,-0.158 -0.755,-0.236 -1.17,-0.236c-0.404,0 -0.784,0.078 -1.142,0.236c-0.359,0.157 -0.67,0.368 -0.935,0.632c-0.264,0.265 -0.474,0.572 -0.631,0.925c-0.159,0.351 -0.237,0.729 -0.237,1.132c0,0.416 0.078,0.805 0.237,1.17c0.157,0.365 0.367,0.679 0.631,0.944c0.265,0.264 0.576,0.475 0.935,0.632c0.358,0.157 0.738,0.236 1.142,0.236c0.415,0 0.804,-0.079 1.17,-0.236c0.364,-0.157 0.681,-0.368 0.953,-0.632c0.269,-0.265 0.487,-0.579 0.65,-0.944c0.164,-0.365 0.246,-0.754 0.246,-1.17" fill-rule="nonzero" fill="#bf1d23"/>
     <g id="g350">
      <path id="path352" d="m624.49859,184.96112l0,-19.361l-2.85,0c-0.616,0 -1.006,0.283 -1.17,0.849l-0.321,1.547c-0.792,-0.805 -1.667,-1.456 -2.623,-1.953c-0.956,-0.497 -2.082,-0.745 -3.378,-0.745c-1.056,0 -1.99,0.179 -2.802,0.538c-0.811,0.358 -1.494,0.864 -2.047,1.519c-0.554,0.654 -0.972,1.43 -1.255,2.331c-0.283,0.899 -0.425,1.889 -0.425,2.971l0,12.304l4.661,0l0,-12.304c0,-1.182 0.274,-2.097 0.821,-2.745c0.547,-0.648 1.368,-0.972 2.463,-0.972c0.805,0 1.56,0.179 2.265,0.538c0.704,0.358 1.371,0.852 2,1.481l0,14.002l4.661,0z" fill-rule="nonzero" fill="#bf1d23"/>
     </g>
     <g id="g354">
      <path id="path356" d="m640.91558,181.18762c-0.126,-0.202 -0.258,-0.343 -0.396,-0.425c-0.138,-0.082 -0.315,-0.123 -0.528,-0.123c-0.226,0 -0.47,0.064 -0.726,0.19c-0.259,0.125 -0.558,0.266 -0.897,0.423c-0.34,0.158 -0.726,0.299 -1.161,0.425c-0.434,0.126 -0.946,0.189 -1.538,0.189c-0.918,0 -1.639,-0.196 -2.16,-0.585c-0.523,-0.39 -0.783,-0.9 -0.783,-1.529c0,-0.415 0.134,-0.764 0.405,-1.046c0.27,-0.284 0.629,-0.533 1.076,-0.747c0.446,-0.213 0.953,-0.405 1.519,-0.575c0.566,-0.17 1.141,-0.355 1.726,-0.556c0.585,-0.202 1.161,-0.432 1.728,-0.69c0.565,-0.258 1.072,-0.585 1.518,-0.98c0.446,-0.397 0.805,-0.872 1.076,-1.425c0.271,-0.554 0.406,-1.221 0.406,-2.001c0,-0.931 -0.167,-1.789 -0.5,-2.575c-0.333,-0.787 -0.827,-1.466 -1.482,-2.038c-0.654,-0.574 -1.463,-1.02 -2.425,-1.34c-0.962,-0.321 -2.073,-0.482 -3.331,-0.482c-0.667,0 -1.317,0.06 -1.953,0.179c-0.635,0.12 -1.245,0.286 -1.83,0.5c-0.585,0.214 -1.126,0.466 -1.623,0.755c-0.497,0.29 -0.934,0.604 -1.311,0.944l1.075,1.774c0.138,0.214 0.302,0.378 0.491,0.491c0.188,0.112 0.428,0.169 0.717,0.169c0.289,0 0.562,-0.081 0.821,-0.245c0.258,-0.163 0.557,-0.34 0.897,-0.529c0.338,-0.188 0.738,-0.365 1.198,-0.528c0.459,-0.163 1.04,-0.245 1.745,-0.245c0.554,0 1.028,0.066 1.425,0.198c0.396,0.132 0.723,0.305 0.981,0.519c0.258,0.214 0.446,0.463 0.567,0.745c0.119,0.283 0.178,0.576 0.178,0.878c0,0.453 -0.134,0.824 -0.405,1.113c-0.271,0.289 -0.63,0.541 -1.076,0.755c-0.446,0.214 -0.956,0.406 -1.528,0.576c-0.573,0.169 -1.158,0.355 -1.755,0.557c-0.598,0.201 -1.183,0.436 -1.755,0.707c-0.574,0.27 -1.082,0.613 -1.529,1.028c-0.447,0.416 -0.805,0.925 -1.076,1.529c-0.27,0.604 -0.405,1.333 -0.405,2.189c0,0.793 0.157,1.548 0.472,2.265c0.314,0.716 0.776,1.342 1.386,1.878c0.611,0.534 1.371,0.961 2.284,1.283c0.912,0.32 1.965,0.481 3.161,0.481c1.333,0 2.548,-0.221 3.642,-0.661c1.094,-0.44 2.006,-1.019 2.737,-1.735l-1.058,-1.68z" fill-rule="nonzero" fill="#bf1d23"/>
     </g>
     <g id="g358">
      <path id="path360" d="m659.59832,183.03632c0,-0.327 -0.057,-0.647 -0.17,-0.962c-0.112,-0.314 -0.264,-0.572 -0.452,-0.773l-9.191,-12.116l9.531,0l0,-3.586l-14.947,0l0,1.944c0,0.214 0.05,0.469 0.151,0.764c0.1,0.296 0.252,0.576 0.453,0.84l9.285,12.247l-9.342,0l0,3.567l14.682,0l0,-1.925z" fill-rule="nonzero" fill="#bf1d23"/>
     </g>
     <g id="g362">
      <path id="path364" d="m667.69402,193.64272l0,-16.06l0.867,0c0.315,0 0.564,0.04 0.746,0.122c0.182,0.083 0.368,0.25 0.557,0.5l4.811,5.946c0.202,0.263 0.425,0.465 0.67,0.603c0.246,0.139 0.564,0.207 0.953,0.207l4.266,0l-6.02,-7.189c-0.428,-0.566 -0.894,-1 -1.397,-1.302c0.265,-0.189 0.5,-0.409 0.708,-0.661c0.207,-0.252 0.405,-0.521 0.595,-0.812l6.453,-9.397l-4.208,0c-0.365,0 -0.68,0.06 -0.943,0.18c-0.265,0.119 -0.485,0.336 -0.661,0.65l-4.944,7.341c-0.177,0.29 -0.358,0.478 -0.548,0.566c-0.188,0.088 -0.471,0.132 -0.848,0.132l-1.057,0l0,-8.869l-4.661,0l0,28.043l4.661,0z" fill-rule="nonzero" fill="#bf1d23"/>
     </g>
     <path id="path366" d="m688.0356,165.60002l-4.68,0l0,19.361l4.68,0l0,-19.361zm0.643,25.004c0,-0.403 -0.082,-0.781 -0.246,-1.132c-0.163,-0.353 -0.381,-0.66 -0.651,-0.925c-0.271,-0.264 -0.589,-0.475 -0.953,-0.632c-0.365,-0.158 -0.755,-0.236 -1.17,-0.236c-0.403,0 -0.783,0.078 -1.141,0.236c-0.36,0.157 -0.67,0.368 -0.935,0.632c-0.265,0.265 -0.475,0.572 -0.632,0.925c-0.158,0.351 -0.236,0.729 -0.236,1.132c0,0.416 0.078,0.805 0.236,1.17c0.157,0.365 0.367,0.679 0.632,0.944c0.265,0.264 0.575,0.475 0.935,0.632c0.358,0.157 0.738,0.236 1.141,0.236c0.415,0 0.805,-0.079 1.17,-0.236c0.364,-0.157 0.682,-0.368 0.953,-0.632c0.27,-0.265 0.488,-0.579 0.651,-0.944c0.164,-0.365 0.246,-0.754 0.246,-1.17" fill-rule="nonzero" fill="#bf1d23"/>
    </g>
   </g>
  </g>
 </g>
</svg>