<?xml version="1.0" encoding="UTF-8" standalone="no"?>
<!-- Created with Inkscape (http://www.inkscape.org/) -->

<svg
   version="1.1"
   id="svg851"
   xml:space="preserve"
   width="700"
   height="700"
   viewBox="0 0 700.00003 699.99999"
   sodipodi:docname="lilijka.svg"
   inkscape:version="1.1 (c68e22c387, 2021-05-23)"
   xmlns:inkscape="http://www.inkscape.org/namespaces/inkscape"
   xmlns:sodipodi="http://sodipodi.sourceforge.net/DTD/sodipodi-0.dtd"
   xmlns="http://www.w3.org/2000/svg"
   xmlns:svg="http://www.w3.org/2000/svg"
   xmlns:rdf="http://www.w3.org/1999/02/22-rdf-syntax-ns#"
   xmlns:cc="http://creativecommons.org/ns#"
   xmlns:dc="http://purl.org/dc/elements/1.1/"><metadata
     id="metadata857"><rdf:RDF><cc:Work
         rdf:about=""><dc:format>image/svg+xml</dc:format><dc:type
           rdf:resource="http://purl.org/dc/dcmitype/StillImage" /></cc:Work></rdf:RDF></metadata><defs
     id="defs855"><clipPath
       clipPathUnits="userSpaceOnUse"
       id="clipPath867"><path
         d="M 0,496.8 H 1022.4 V 0 H 0 Z"
         id="path865" /></clipPath></defs><sodipodi:namedview
     pagecolor="#ffffff"
     bordercolor="#666666"
     borderopacity="1"
     objecttolerance="10"
     gridtolerance="10"
     guidetolerance="10"
     inkscape:pageopacity="0"
     inkscape:pageshadow="2"
     inkscape:window-width="1600"
     inkscape:window-height="837"
     id="namedview853"
     showgrid="false"
     inkscape:pagecheckerboard="true"
     inkscape:zoom="0.82306341"
     inkscape:cx="318.32298"
     inkscape:cy="321.36042"
     inkscape:window-x="-8"
     inkscape:window-y="-8"
     inkscape:window-maximized="1"
     inkscape:current-layer="g861"
     inkscape:lockguides="true"
     fit-margin-top="0"
     fit-margin-left="0"
     fit-margin-right="0"
     fit-margin-bottom="0" /><g
     id="g861"
     clip-path="none"
     inkscape:groupmode="layer"
     style="display:inline"
     transform="translate(-477.47869,-22.401022)"><g
       id="g2008"
       transform="matrix(7.8356347,0,0,-7.8356347,-3210.4104,2793.3493)"><g
         id="g889"
         transform="translate(481.3266,310.5236)"><path
           d="M 0,0 H 19.97 C 19.102,4.723 14.955,8.312 9.985,8.312 5.016,8.312 0.869,4.723 0,0 M 23.818,-3.681 H -3.848 v 1.841 c 0,7.627 6.205,13.833 13.833,13.833 7.628,0 13.833,-6.206 13.833,-13.833 z"
           style="fill:#bf1d23;fill-opacity:1;fill-rule:nonzero;stroke:none"
           id="path891" /></g><g
         id="g1968"><g
           id="g873"
           transform="translate(515.3598,291.5616)"
           style="fill:#bf1d23;fill-opacity:1"><path
             d="m 0,0 c -2.583,-2.249 -4.092,-5.518 -4.092,-8.978 0,-3.46 1.509,-6.728 4.092,-8.977 2.583,2.25 4.092,5.517 4.092,8.977 C 4.092,-5.518 2.583,-2.249 0,0 m 0,-22.521 -1.047,0.725 c -4.212,2.914 -6.726,7.706 -6.726,12.818 0,5.113 2.514,9.905 6.726,12.819 L 0,4.566 1.047,3.841 c 4.212,-2.914 6.726,-7.706 6.726,-12.819 0,-5.112 -2.514,-9.904 -6.726,-12.818 z"
             style="fill:#bf1d23;fill-opacity:1;fill-rule:nonzero;stroke:none"
             id="path875" /></g><g
           id="g877"
           transform="translate(527.2084,292.049)"><path
             d="m 0,0 c 0.771,-2.296 2.943,-3.954 5.495,-3.954 2.551,0 4.723,1.658 5.494,3.954 z m 5.495,-7.635 c -5.225,0 -9.476,4.25 -9.476,9.476 V 3.682 H 14.97 V 1.841 c 0,-5.226 -4.251,-9.476 -9.475,-9.476"
             style="fill:#bf1d23;fill-opacity:1;fill-rule:nonzero;stroke:none"
             id="path879" /></g><g
           id="g881"
           transform="translate(492.5219,292.049)"><path
             d="m 0,0 c 0.771,-2.296 2.943,-3.954 5.495,-3.954 2.551,0 4.723,1.658 5.494,3.954 z m 5.495,-7.635 c -5.225,0 -9.476,4.25 -9.476,9.476 V 3.682 H 14.97 V 1.841 c 0,-5.226 -4.251,-9.476 -9.475,-9.476"
             style="fill:#bf1d23;fill-opacity:1;fill-rule:nonzero;stroke:none"
             id="path883" /></g><g
           id="g885"
           transform="translate(515.3598,345.3898)"><path
             d="m 0,0 c -5.276,-4.135 -8.39,-10.476 -8.39,-17.211 0,-6.735 3.114,-13.076 8.39,-17.21 5.276,4.134 8.39,10.475 8.39,17.21 C 8.39,-10.475 5.276,-4.135 0,0 m 0,-38.945 -1.047,0.725 c -6.903,4.778 -11.024,12.631 -11.024,21.009 0,8.378 4.121,16.232 11.024,21.01 L 0,4.523 1.047,3.799 c 6.903,-4.778 11.024,-12.632 11.024,-21.01 0,-8.378 -4.121,-16.231 -11.024,-21.009 z"
             style="fill:#bf1d23;fill-opacity:1;fill-rule:nonzero;stroke:none"
             id="path887" /></g><g
           id="g893"
           transform="translate(529.9448,310.5236)"><path
             d="M 0,0 H 19.97 C 19.102,4.723 14.955,8.312 9.985,8.312 5.016,8.312 0.869,4.723 0,0 M 23.818,-3.681 H -3.848 v 1.841 c 0,7.627 6.205,13.833 13.833,13.833 7.628,0 13.833,-6.206 13.833,-13.833 z"
             style="fill:#bf1d23;fill-opacity:1;fill-rule:nonzero;stroke:none"
             id="path895" /></g><g
           id="g897"
           transform="translate(526.4145,299.4454)"><path
             d="m 0,0 h -21.587 c -1.017,0 -1.841,0.824 -1.841,1.841 0,1.016 0.824,1.841 1.841,1.841 H 0 C 1.017,3.682 1.841,2.857 1.841,1.841 1.841,0.824 1.017,0 0,0"
             style="fill:#bf1d23;fill-opacity:1;fill-rule:nonzero;stroke:none"
             id="path899" /></g></g></g></g></svg>
