<?xml version="1.0" encoding="UTF-8" standalone="no"?>
<!-- Created with Inkscape (http://www.inkscape.org/) -->

<svg
   version="1.1"
   id="svg1475"
   xml:space="preserve"
   width="613.33331"
   height="432"
   viewBox="0 0 613.33331 432"
   sodipodi:docname="logo_wwa.svg"
   inkscape:version="1.1 (c68e22c387, 2021-05-23)"
   xmlns:inkscape="http://www.inkscape.org/namespaces/inkscape"
   xmlns:sodipodi="http://sodipodi.sourceforge.net/DTD/sodipodi-0.dtd"
   xmlns="http://www.w3.org/2000/svg"
   xmlns:svg="http://www.w3.org/2000/svg"><defs
     id="defs1479"><clipPath
       clipPathUnits="userSpaceOnUse"
       id="clipPath1493"><path
         d="M 0,0.572 H 272.031 V 323.781 H 0 Z"
         id="path1491" /></clipPath><clipPath
       clipPathUnits="userSpaceOnUse"
       id="clipPath1633"><path
         d="M 0,324 H 460 V 0 H 0 Z"
         id="path1631" /></clipPath></defs><sodipodi:namedview
     id="namedview1477"
     pagecolor="#ffffff"
     bordercolor="#111111"
     borderopacity="1"
     inkscape:pageshadow="0"
     inkscape:pageopacity="0"
     inkscape:pagecheckerboard="1"
     showgrid="false"
     inkscape:zoom="1.9076088"
     inkscape:cx="306.40455"
     inkscape:cy="216.23931"
     inkscape:window-width="1920"
     inkscape:window-height="1017"
     inkscape:window-x="-8"
     inkscape:window-y="-8"
     inkscape:window-maximized="1"
     inkscape:current-layer="g1481" /><g
     id="g1481"
     inkscape:groupmode="layer"
     inkscape:label="Biale_logo_harcerskiej copy"
     transform="matrix(1.3333333,0,0,-1.3333333,0,432)"><path
       d="M 0,0.572 H 272.031 V 323.781 H 0 Z"
       style="fill:#ffffff;fill-opacity:1;fill-rule:nonzero;stroke:none;opacity:0"
       id="path1485" /><g
       id="g1487"><g
         id="g1489"
         clip-path="url(#clipPath1493)"><g
           id="g1495"
           transform="translate(124.6689,63.3164)"><path
             d="m 0,0 c -0.108,1.115 -1.6,0.912 -1.762,2.027 0.096,1.492 -1.642,1.918 -2.188,3.044 -1.135,0.765 -2.308,1.562 -3.315,2.56 -0.895,1.31 -2.143,1.999 -3.067,3.262 -0.466,0.575 -0.228,1.458 -0.912,1.884 -0.9,0.309 -1.553,1.283 -2.355,1.762 -1.038,-0.066 -2.191,0.357 -2.637,1.344 0.173,1.135 -0.212,2.109 -0.82,2.959 -0.396,2.288 -1.899,4.107 -2.524,6.301 -0.868,1.267 -1.427,2.673 -1.887,4.112 l -1.536,1.647 c -0.851,1.054 -1.408,2.289 -1.874,3.537 -0.446,2.047 -2.561,3.406 -2.927,5.486 -0.479,2.417 -1.935,4.416 -2.334,6.866 -0.258,2.208 -1.488,4.012 -2.113,6.077 -0.446,1.359 -0.287,2.992 -0.223,4.479 -0.256,0.93 -0.993,1.628 -1.006,2.654 -0.981,1.553 -1.185,3.423 -1.872,5.104 0.043,1.344 -1.41,2.066 -1.587,3.31 0.018,1.396 -1.261,2.255 -1.039,3.761 -0.56,1.182 -1.168,2.354 -1.649,3.571 -0.972,0.873 -0.96,2.217 -1.183,3.451 -0.366,1.183 -0.316,2.545 -1.073,3.567 -0.315,1.011 -0.176,2.194 -0.43,3.233 0,1.068 -0.575,1.918 -0.527,3.025 -0.37,0.926 -0.194,1.871 -0.385,2.877 -0.018,0.39 -1.144,3.376 -0.961,3.666 0.183,0.289 -0.14,0.508 0.012,0.813 -0.335,0.669 -0.375,1.457 -0.627,2.164 -0.345,0.267 -0.257,0.751 -0.508,1.102 -0.061,0.537 -0.363,0.964 -0.356,1.52 -0.352,0.289 -0.395,0.755 -0.425,1.187 -0.212,0.271 -0.091,0.708 -0.378,0.912 -0.151,0.622 -0.607,1.134 -0.757,1.757 -0.296,0.403 -0.441,0.778 -0.779,1.191 -0.84,0.394 -1.308,0.935 -2.077,1.515 -0.149,0.499 -0.902,0.518 -0.945,1.111 -0.757,0.731 -1.807,0.964 -2.367,1.975 0.052,0.229 -0.054,0.485 -0.223,0.632 -0.153,0.389 0.285,0.517 0.263,0.869 -0.24,0.389 0,0.788 -0.071,1.197 0.344,0.351 0.639,0.769 0.778,1.244 0.45,0.356 0.181,1.025 0.533,1.467 -0.005,0.413 0.139,0.679 0.156,1.078 0.046,0.726 0.343,1.353 0.772,1.918 0.195,0.18 0.017,0.413 -0.054,0.608 -0.229,0.266 -0.627,0.223 -0.979,0.271 -0.182,-0.129 -0.242,-0.281 -0.211,-0.49 -0.054,-0.622 -0.902,-0.645 -1.028,-1.153 -0.501,-0.394 -0.24,-1.111 -0.599,-1.567 -0.705,-0.309 -0.643,-1.302 -1.096,-1.9 -0.257,-0.484 -0.629,-0.94 -0.622,-1.533 -0.15,-0.185 0.031,-0.49 -0.153,-0.646 0.055,-0.556 -0.345,-0.936 -0.534,-1.358 0.06,-0.1 -0.151,-0.266 0.046,-0.351 -0.188,-0.4 0.063,-0.765 0.232,-1.107 -0.107,-0.47 0.402,-0.779 0.532,-1.144 0.746,-0.38 1.378,-1.297 2.137,-1.729 0.613,-0.527 1.137,-0.969 1.605,-1.619 0.665,-0.38 0.693,-1.068 1.234,-1.61 1.107,-0.408 1.276,-1.548 1.715,-2.488 0.142,-0.627 0.534,-1.163 0.563,-1.833 0.517,-0.37 0.087,-1.054 0.545,-1.458 0.007,-0.365 0.273,-0.537 0.254,-0.912 l -0.061,-0.341 c -0.105,0.042 -0.221,0.08 -0.335,0.114 -0.667,0.512 -1.679,0.209 -2.379,-0.034 -0.866,-0.289 -1.508,0.466 -2.308,0.576 -1.149,-0.285 -2.222,0.132 -3.407,0 -0.351,0.132 -0.669,0.322 -1.035,0.417 -0.819,-0.608 -1.427,-1.724 -2.5,-1.918 -0.876,-0.641 -2.059,-0.674 -3.15,-0.883 -0.658,-0.413 -1.456,-0.48 -2.258,-0.542 -1.278,-0.513 -2.94,-0.062 -4.219,-0.532 -1.09,-1.358 -2.707,-1.614 -4.416,-1.5 -1.026,-0.209 -2.113,-0.243 -3.201,-0.271 -1.071,-0.289 -1.885,-1.282 -2.944,-1.614 -0.764,-0.451 -0.285,-1.425 -0.961,-1.924 -1.404,-0.526 -1.278,-2.108 -1.966,-3.134 -0.223,-1.505 0.42,-2.706 0.192,-4.159 0.181,-1.059 0.525,-2.061 0.962,-3.024 0.143,-0.576 0.526,-1.15 0.272,-1.81 -0.322,-0.911 0.397,-1.629 0.271,-2.526 -0.289,-0.256 -0.062,-0.717 -0.351,-0.959 -0.021,-0.4 -0.209,-0.717 -0.304,-1.069 -0.021,-0.484 -0.273,-0.864 -0.223,-1.348 0.19,-1.116 0.67,-2.109 0.878,-3.229 0.305,-0.466 0.608,-0.926 0.912,-1.378 0.015,-1.039 0.418,-1.918 0.511,-2.923 0.672,-0.756 -0.254,-1.412 -0.511,-2.067 0.126,-1.936 1.776,-3.248 2.241,-5.037 1.453,-1.682 2.256,-3.633 3.023,-5.6 0.717,-2.654 2.063,-5.07 3.264,-7.535 1.294,-2.35 2.842,-4.592 4.138,-6.942 0.609,-1.311 1.619,-2.445 1.812,-3.917 -0.784,-1.201 1.04,-1.615 1.118,-2.641 l -0.158,-1.12 c 0.033,-1.073 0.975,-1.824 1.503,-2.607 0.75,-1.377 1.231,-2.882 2.495,-4.003 0.559,-1.899 2.751,-2.958 3.598,-4.715 1.375,-2.08 2.783,-4.127 4.111,-6.225 0.543,-0.765 1.569,-1.344 1.728,-2.256 2.431,-3.294 5.774,-5.517 8.096,-8.908 2.974,-3.855 6.989,-6.609 10.252,-10.289 2.419,-2.237 4.978,-4.236 6.72,-6.91 0.642,-0.911 1.553,-1.505 2.162,-2.416 0.172,-0.86 0.769,-1.79 1.673,-1.995 0.981,-0.869 2.55,-0.275 3.763,-0.498 0.66,0.223 0.945,1.007 1.154,1.6 0.157,1.311 1.553,1.804 2.464,2.493 1.198,0.802 2.655,-0.432 3.804,0.465 0.128,0.384 -0.095,0.77 -0.076,1.121 0.046,0.366 0.589,0.703 0.27,1.04 -0.257,0.508 -0.975,0.784 -1.008,1.453 0.223,0.608 0.081,1.201 0.049,1.842 0.367,0.722 1.183,1.026 1.981,1.04 1.184,-1.011 2.894,0.014 4.223,-0.575 0.833,0.029 1.328,-0.835 2.192,-0.579 0.544,0.641 1.422,0.513 1.999,1.073 0.783,0.589 0.018,1.406 -0.159,2.033 -0.05,1.007 -0.687,1.757 -0.722,2.763 -0.109,1.842 2.208,1.862 2.533,3.429 C 0.77,-2.208 -0.304,-1.249 0,0"
             style="fill:#1092d5;fill-opacity:1;fill-rule:nonzero;stroke:none"
             id="path1497" /></g><g
           id="g1499"
           transform="translate(145.0684,185.7588)"><path
             d="m 0,0 c -0.216,-0.052 -0.199,-0.299 -0.232,-0.484 0.046,-0.171 0.249,-0.204 0.401,-0.238 0.1,0.067 0.268,0.171 0.199,0.323 C 0.269,-0.252 0.249,0.014 0,0"
             style="fill:#e42124;fill-opacity:1;fill-rule:nonzero;stroke:none"
             id="path1501" /></g><g
           id="g1503"
           transform="translate(102.9434,86.2422)"><path
             d="m 0,0 c 1.042,-1.008 0.893,-2.513 1.538,-3.676 0.207,-0.56 0.511,-1.058 0.608,-1.647 l 0.112,-0.081 c -0.209,-0.77 0.351,-1.297 0.465,-1.971 0.812,-2.797 1.916,-5.565 1.693,-8.704 -0.516,-1.306 -0.688,-3.067 -2.301,-3.58 -1.75,0.067 -3.381,0.594 -5.074,0.897 -1.011,0.304 -1.699,1.377 -2.718,1.649 l -0.356,-0.386 c 0.227,-2.127 1.251,-4.397 0.304,-6.523 -0.684,-0.913 -1.838,-0.884 -2.602,-1.701 -0.898,-0.431 -1.748,0.181 -2.69,0.081 -1.342,0.48 -2.61,1.202 -4.003,1.581 -2.289,1.558 -3.039,4.165 -4.255,6.368 l -0.797,2.113 c -0.62,1.357 -1.795,2.483 -1.665,4.141 -0.354,0.64 -1.346,1.267 -0.719,2.084 0.415,0.622 1.156,1.23 1.921,1.021 1.229,-1.073 1.341,-2.749 2.253,-4.031 1.236,-2.08 1.553,-4.526 3.072,-6.477 0.769,-1.154 1.887,-2.113 2.932,-3.073 0.622,-0.223 1.581,-0.271 2.189,0.033 0.593,-0.033 1.007,0.447 1.261,0.927 0.063,2.369 -0.093,4.497 -0.188,6.8 -0.147,0.977 -1.489,1.694 -0.769,2.801 0,0.827 -1.024,1.663 -0.161,2.416 0.353,0.362 0.802,0.704 1.264,0.495 1.342,-0.627 1.423,-2.194 2.463,-3.106 1.235,-1.68 3.106,-2.175 4.45,-3.646 0.638,-0.352 1.405,-0.4 2.107,-0.579 0.478,0.146 0.658,0.579 0.77,0.992 0.081,0.579 -0.304,0.978 -0.528,1.424 -0.676,1.876 -0.372,4.16 -1.153,5.983 -0.689,1.891 -1.135,3.889 -2.19,5.617 -0.175,0.655 -0.514,1.582 0,2.19 C -1.936,1.813 -0.851,0.336 0,0"
             style="fill:#ffffff;fill-opacity:1;fill-rule:nonzero;stroke:none"
             id="path1505" /></g><g
           id="g1507"
           transform="translate(90.5898,106.7168)"><path
             d="m 0,0 c 0.033,-0.199 0.136,-0.38 0,-0.565 0.318,-0.869 0.634,-1.857 1.118,-2.721 0.952,-4.06 3.225,-8.167 1.769,-12.626 -0.284,-0.798 -1.152,-1.415 -1.965,-1.548 -2.156,0.015 -4.759,-0.503 -6.563,0.599 -0.922,0.921 -1.788,1.704 -2.891,2.15 l -0.114,-0.113 c 0.484,-1.534 0.182,-3.338 -0.518,-4.692 -0.57,-1.785 -2.49,-2.758 -4.26,-2.921 -1.652,0.133 -2.939,1.103 -4.522,1.402 -1.538,0.883 -2.505,2.369 -3.778,3.641 -0.315,0.599 -0.298,1.369 -0.629,1.966 0.266,1.44 -0.472,2.569 -0.404,3.975 0.119,0.351 0.366,0.755 0.77,0.869 0.567,0.251 1.051,-0.214 1.517,-0.518 0.7,-0.751 0.316,-1.97 0.487,-2.953 0.434,-1.786 1.287,-3.505 2.837,-4.744 1.467,-0.266 2.524,-1.8 4.205,-1.315 1.488,0.299 1.992,1.937 2.521,3.086 0.102,2.687 -1.033,4.991 -1.351,7.579 -0.233,0.617 -0.75,1.334 -0.333,2.037 0.165,0.35 0.533,0.531 0.85,0.688 0.401,0.1 0.803,-0.018 1.119,-0.204 0.705,-0.85 0.518,-2.051 0.838,-3.053 0.731,-2.156 2.55,-4.259 4.658,-5.328 1.6,-0.517 3.637,-0.731 5.292,-0.119 0.952,0.921 0.986,2.289 1.033,3.609 -0.415,2.94 -0.835,5.893 -1.971,8.533 -0.332,0.969 -0.85,1.886 -1.403,2.768 -0.13,0.404 0.034,0.888 0.454,1.036 C -0.735,0.684 -0.268,0.437 0,0"
             style="fill:#ffffff;fill-opacity:1;fill-rule:nonzero;stroke:none"
             id="path1509" /></g><g
           id="g1511"
           transform="translate(120.3574,269.8721)"><path
             d="m 0,0 c -0.266,0.384 -0.883,0.75 -0.933,1.287 -0.449,0.598 -1.137,1.002 -1.956,0.864 -0.701,0.57 -1.55,0.873 -2.199,1.453 -1.004,-0.081 -1.507,0.988 -2.459,1.04 -0.914,0.465 -1.916,0.75 -3.07,0.679 -0.365,0.37 -0.853,0.503 -1.135,0.973 -0.365,-0.304 -0.952,-0.151 -1.349,0 -0.854,0.931 -2.176,0.347 -3.176,0.917 -1.47,-0.067 -2.455,1.016 -3.891,1.087 -1.617,0.517 -3.488,0.432 -5.16,0.836 -2.92,1.115 -6.311,1.13 -9.532,1.514 -1.883,0.319 -3.775,0.219 -5.691,0.404 -0.95,0.347 -2.139,0.119 -3.06,0.518 -2.686,0.199 -5.221,0.75 -8.011,0.764 -0.418,-0.166 -0.902,-0.166 -1.403,-0.166 -0.513,0.166 -0.969,0.688 -1.315,1.135 -0.935,0.418 -1.34,-0.731 -2.156,-0.731 -0.399,-0.053 -0.952,0.114 -1.337,-0.119 -1.085,0.451 -2.319,0.166 -3.474,0.081 -0.517,0.351 -1.186,-0.015 -1.765,0.171 -0.991,-0.404 -2.107,0.451 -3.127,-0.133 -0.914,-0.119 -1.653,0.213 -2.487,0.284 -0.484,-0.403 -0.987,0.1 -1.486,0.115 -0.35,0.051 -0.451,-0.371 -0.685,-0.551 -0.369,-0.119 -0.715,-0.504 -1.15,-0.252 -1.052,-0.451 -2.004,0.385 -3.057,-0.066 -0.649,0.099 -1.468,1.035 -2.004,0 -0.33,-0.186 -0.582,0.118 -0.868,0.199 -0.298,-0.332 -0.705,-0.485 -0.887,-0.883 -0.9,-0.404 -1.57,-1.401 -2.769,-1.088 -0.517,-0.199 -0.32,-0.75 -0.481,-1.116 -0.269,-0.199 -0.654,-0.237 -1.005,-0.166 -0.05,-0.199 -0.354,-0.37 -0.354,-0.636 0.473,-0.698 -0.41,-1.002 -0.597,-1.567 -0.305,-0.684 0.3,-1.087 0.597,-1.553 0.088,-0.418 0.639,-0.636 0.518,-1.135 0.572,-0.569 0.67,-1.358 1.002,-2.037 0.071,-0.337 0.437,-0.47 0.769,-0.403 0.402,0.37 0.991,0.265 1.356,0.717 0.449,0.052 1.02,0.119 1.367,-0.2 1.435,0.319 3.042,0.185 4.49,0.452 0.52,0.598 1.439,0.351 2.159,0.351 0.247,-0.086 0.446,-0.299 0.764,-0.285 0.755,0.085 1.503,0.185 2.236,0.332 1.769,0.504 3.756,0.371 5.661,0.271 0.503,-0.2 1.234,0.1 1.671,-0.271 0.636,0.418 1.287,-0.147 1.97,0.038 0.571,0.48 1.435,0.413 2.12,0.366 1,0.1 2.107,0.014 2.971,-0.404 0.1,0.219 0.234,0.471 0.483,0.603 0.569,0.219 1.022,-0.185 1.354,-0.532 0.35,0.129 0.703,0.129 1.055,0 0.999,-0.721 2.284,-0.085 3.437,-0.469 1.916,-0.333 4.041,-0.2 6.045,-0.286 2.353,-0.113 4.39,-0.968 6.742,-1.049 2.054,-0.47 4.275,-0.551 6.278,-1.121 1.937,-0.033 3.594,-0.698 5.461,-0.883 0.537,-0.451 1.318,-0.266 1.954,-0.465 0.499,0.28 0.885,-0.204 1.367,-0.204 0.454,-0.133 0.803,-0.537 1.237,-0.684 0.888,0.299 1.273,-0.836 2.17,-0.603 0.836,-0.665 1.902,-0.85 2.774,-1.486 0.6,0.27 1.101,-0.162 1.718,-0.081 0.402,-0.081 0.753,-0.47 1.199,-0.318 0.905,-0.485 2.137,-0.114 2.842,-1.083 0.565,-0.37 0.903,0.351 1.453,0.28 0.717,0.138 0.983,0.969 1.6,1.287 0.853,-0.351 1.639,0.304 2.521,0.152 0.834,-0.152 1.119,0.883 1.755,1.135 0.031,0.684 0.953,0.817 1.083,1.434 C -0.133,-0.955 0.05,-0.385 0,0"
             style="fill:#1092d5;fill-opacity:1;fill-rule:nonzero;stroke:none"
             id="path1513" /></g><g
           id="g1515"
           transform="translate(40.542,231.6758)"><path
             d="m 0,0 c -0.103,0.845 -1.327,0.869 -1.52,1.695 -0.641,0.456 -0.741,1.254 -1.501,1.615 -0.372,0.418 -0.792,0.531 -1.115,0.883 -0.726,0.323 -1.365,0.85 -2.173,0.959 -0.892,0.161 -0.894,1.097 -1.206,1.776 -0.144,0.793 -0.65,1.305 -1.227,1.843 -0.223,0.474 -0.231,1.03 -0.541,1.462 0.104,0.541 -0.368,0.873 -0.188,1.391 0.181,0.494 -0.273,1.239 0.304,1.572 -0.007,0.664 0.313,1.22 0.682,1.714 0.602,0.489 0.199,1.424 0.552,2.028 -0.006,0.265 0.131,0.484 0.121,0.75 0.45,0.47 0.093,1.102 0.246,1.657 0.32,0.313 0.106,0.845 0.424,1.158 -0.104,0.532 0.468,0.817 0.281,1.368 0.472,0.442 0.256,1.244 0.624,1.762 0.716,0.304 0.857,1.03 1.094,1.666 0.153,0.817 0.584,1.496 0.836,2.261 h 0.022 l 0.002,0.118 c 0.261,0.409 0.335,0.917 0.655,1.278 0.164,0.812 0.589,1.543 1.075,2.193 0.345,0.495 -0.548,0.755 -0.083,1.226 -0.106,0.28 -0.422,0.232 -0.597,0.526 -0.252,0.233 -0.081,0.556 -0.163,0.813 0.136,0.579 0.226,1.097 0.45,1.652 -0.091,0.394 -0.579,0.19 -0.843,0.328 -0.826,-0.162 -1.194,-0.827 -1.446,-1.548 -0.098,-0.328 -0.598,-0.465 -0.409,-0.926 -0.381,-0.518 -0.411,-1.22 -0.923,-1.714 -0.038,-0.195 -0.045,-0.4 -0.117,-0.58 -0.104,-0.65 -0.507,-1.096 -0.66,-1.738 -0.03,-0.508 -0.42,-0.902 -0.427,-1.448 -0.225,-0.688 -0.629,-1.301 -0.709,-2.028 -0.659,-0.474 -0.405,-1.462 -0.893,-2.074 0.019,-0.533 -0.589,-0.646 -0.534,-1.192 -0.323,-0.565 -0.364,-1.244 -0.516,-1.885 -0.185,-0.328 -0.275,-0.689 -0.282,-1.102 -0.146,-0.371 -0.428,-0.669 -0.321,-1.159 -0.09,-0.399 -0.494,-0.707 -0.304,-1.158 -0.38,-0.347 -0.118,-0.87 -0.368,-1.283 l -0.163,-4.548 0.09,-0.209 c 0.009,-0.508 0.152,-1.017 0.424,-1.373 -0.161,-0.384 0.041,-0.773 0.221,-1.101 0.055,-0.475 0.413,-0.817 0.529,-1.254 -0.011,-0.218 0.022,-0.413 0.091,-0.584 0.43,-0.56 0.781,-0.987 0.902,-1.666 0.732,-0.907 1.598,-1.482 2.448,-2.27 0.275,-0.385 0.876,-0.832 1.128,-1.315 0.814,-0.713 1.726,-1.425 2.422,-2.085 0.116,-0.404 0.598,-0.565 0.766,-0.978 0.491,-0.356 1.045,-1.017 1.705,-1.206 0.415,0.023 0.579,-0.466 1.04,-0.323 0.546,0.152 1.127,0.024 1.664,0.09 0.447,0.033 0.75,0.442 0.912,0.84 C 2.193,-0.741 0.655,-0.945 0,0"
             style="fill:#1092d5;fill-opacity:1;fill-rule:nonzero;stroke:none"
             id="path1517" /></g><g
           id="g1519"
           transform="translate(183.4043,257.6777)"><path
             d="M 0,0 C -0.201,0.537 0.516,0.85 0.285,1.406 L -1.002,2.84 C -1.085,3.139 -0.984,3.391 -1.253,3.576 -1.652,3.676 -2.101,3.59 -2.4,3.324 -3.271,3.025 -3.604,4.089 -4.204,4.492 -4.959,4.506 -5.66,4.625 -6.329,4.811 -6.979,5.062 -7.381,4.345 -8.063,4.644 l -0.6,0.333 C -9.28,5.128 -9.518,4.293 -9.985,4.008 c -0.53,-0.319 -0.936,0.199 -1.351,0.399 -0.354,0.137 -0.801,0.071 -1.083,0.318 -0.518,0.418 -0.891,-0.233 -1.32,-0.347 -0.534,-0.318 -0.919,0.214 -1.455,0.147 -1.047,-0.351 -2.301,-0.298 -3.489,-0.351 -0.464,-0.252 -0.899,-0.831 -1.518,-0.485 -1.687,0.134 -3.206,-0.564 -4.96,-0.483 -1.085,-0.366 -2.453,-0.067 -3.405,-0.718 -2.038,-0.398 -4.342,-0.099 -6.341,-0.65 -0.739,-0.166 -1.52,-1.054 -2.275,-0.318 l -0.6,-0.352 c -0.635,-0.266 -0.986,0.404 -1.451,0.637 -0.454,0.047 -0.936,0.047 -1.356,0.166 -0.796,0.802 -2.018,0.603 -3.137,0.636 -0.536,-0.033 -0.954,-0.366 -1.519,-0.366 -0.401,-0.303 -0.451,-0.907 -0.949,-1.035 -0.991,0.347 -1.707,-0.456 -2.655,-0.403 -0.301,-0.166 -0.517,-0.537 -0.919,-0.437 -0.636,0.171 -1.037,-0.48 -1.635,-0.48 -0.604,-0.584 -1.455,-0.218 -2.256,-0.318 -0.952,-0.266 -1.973,0.731 -2.635,-0.252 -0.637,-0.869 -1.619,-0.351 -2.521,-0.432 -0.755,-0.399 -1.724,-0.617 -2.575,-0.399 -0.32,-0.337 -1.203,-0.455 -0.919,-1.12 -0.051,-0.351 -0.334,-0.603 -0.635,-0.736 -1.283,-0.067 -2.386,-0.451 -3.69,-0.598 -1.035,0.194 -1.768,-0.585 -2.654,-0.874 -1.855,-0.247 -3.474,-1.102 -5.358,-1.282 l -1.25,-0.518 c -1.588,-0.536 -3.329,-0.703 -4.843,-1.405 -2.092,-0.447 -4.146,-0.983 -6.095,-1.733 -0.385,-0.3 -0.805,-0.689 -1.317,-0.751 -0.82,0.147 -1.306,-0.702 -2.006,-0.921 -0.637,-0.636 -1.506,-0.651 -2.238,-1.002 -0.234,-0.052 -0.585,-0.233 -0.448,-0.569 -0.27,-0.214 -0.506,-0.499 -0.887,-0.433 -0.732,-0.65 -1.938,-0.351 -2.437,-1.4 -0.168,-0.371 -0.769,-0.637 -0.484,-1.088 -0.152,-0.332 -0.518,-0.432 -0.838,-0.318 -0.568,-0.446 -1.251,0.404 -1.717,-0.285 -0.284,-0.798 -1.102,-1.083 -1.852,-1.163 -0.177,0 -0.285,-0.058 -0.363,-0.133 -0.088,0.033 -0.173,0.071 -0.244,0.123 -0.476,0.128 -0.615,-0.465 -1.026,-0.57 -0.584,-0.066 -1.092,-0.266 -1.496,-0.603 -1.6,-1.206 -3.495,-1.756 -4.689,-3.376 -0.111,-0.56 -0.871,-0.418 -0.964,-0.95 -0.474,-0.332 -0.942,-0.811 -1.263,-1.21 -0.458,-0.223 -0.864,-0.561 -1.196,-1.002 0.059,-0.38 -0.197,-0.603 -0.444,-0.784 -0.076,-0.389 -0.489,-0.603 -0.793,-0.826 -0.224,-0.594 -0.934,-0.902 -1.264,-1.334 -0.441,-0.902 -0.854,-1.904 -1.576,-2.683 l -0.097,-1.04 c 0.009,-0.147 0.204,-0.285 0.18,-0.475 -0.211,-0.242 -0.118,-0.655 -0.109,-0.959 -0.145,-0.105 -0.078,-0.37 -0.052,-0.494 0.114,-0.451 -0.045,-0.959 0.325,-1.334 0.316,-0.803 0.66,-1.572 0.907,-2.393 0.409,-0.247 0.223,-0.755 0.311,-1.23 0.23,-0.356 0.007,-0.822 0.099,-1.187 -0.66,-0.731 -0.839,-1.567 -1.704,-2.165 -0.199,-0.252 -0.252,-0.589 -0.467,-0.779 -0.868,-0.451 -1.669,-1.064 -2.325,-1.866 -0.012,-0.399 0.394,-0.708 0.717,-0.94 0.282,0.104 0.778,-0.11 0.995,0.171 0.442,0.394 1.031,0.864 1.55,1.191 0.403,0.47 1.133,0.342 1.548,0.812 0.195,0.323 0.786,0.024 0.94,0.475 0.825,0.366 1.246,0.969 1.905,1.529 -0.15,0.532 0.237,0.893 0.507,1.206 -0.031,0.29 0.053,0.532 0.153,0.76 0.123,0.29 -0.214,0.365 -0.323,0.55 0.444,0.471 -0.294,0.656 -0.241,1.117 -0.189,0.218 -0.075,0.593 -0.4,0.778 0.04,0.532 -0.525,0.817 -0.426,1.373 -0.337,0.185 -0.184,0.584 -0.344,0.792 -0.071,0.267 0.022,0.532 0.155,0.746 -0.309,0.504 0.093,0.983 0.199,1.453 -0.076,1.235 0.926,2.051 1.014,3.186 l 0.883,1.249 c 0.589,0.783 1.833,0.712 2.403,1.686 0.605,0.104 0.686,0.831 1.26,1.087 0.082,0.105 0.171,0.204 0.252,0.304 0.178,-0.28 0.397,-0.689 0.774,-0.708 0.788,-1.016 2.189,-0.65 2.84,-1.885 0.736,-0.152 1.536,-0.731 1.768,-1.486 0.368,-0.85 1.37,-0.916 2.037,-1.401 0.321,-0.18 0.335,-0.569 0.687,-0.683 0.816,-0.319 0.548,-1.254 1.201,-1.719 -0.185,-0.589 0.65,-0.788 0.484,-1.32 0.8,-0.67 1.669,-1.135 2.774,-1.088 0.284,0.019 0.566,0.171 0.8,-0.114 0.353,-0.988 1.702,-0.636 1.835,-1.771 0.384,-0.451 0.97,-0.803 1.638,-0.75 1.419,0.413 2.388,-0.855 3.853,-0.404 0.739,-0.08 1.387,-0.465 2.156,-0.313 0.586,-0.371 1.304,-0.351 1.968,-0.456 1.007,-0.831 1.874,0.356 2.892,0.318 0.852,-0.418 1.567,0.237 2.322,0.451 0.933,0.185 1.431,-0.75 2.372,-0.451 0.181,0.119 0.501,-0.066 0.629,0.171 0.019,0.228 -0.281,0.333 -0.368,0.513 -0.112,0.219 0.052,0.418 0.173,0.603 1.434,0.617 3.184,0.47 4.49,1.401 1.386,1.235 3.54,0.669 5.009,1.723 1.47,-0.052 2.605,0.646 3.892,1.083 0.964,0.703 2.236,0.736 3.316,1.206 1.589,0.214 2.873,1.197 4.559,1.163 1.322,0.789 2.873,1.036 4.328,1.52 0.903,0.285 2.021,0.033 2.887,0.404 1.937,0.769 4.471,0.08 6.259,1.201 1.07,0.565 2.457,0.366 3.641,0.632 1.138,0 1.988,0.636 3.092,0.688 1.185,-0.356 2.288,0.247 3.286,0.717 1.019,0.066 1.769,0.836 2.839,0.803 l 1.002,1.135 c 0.086,0.831 0.717,1.448 1.118,2.15 0.169,0.67 0.534,1.473 1.319,1.572 0.284,0.147 0.585,-0.133 0.851,0.086 0.567,0.617 1.335,0.983 2.085,1.263 0.857,0.385 1.171,1.306 2.072,1.571 1.038,-0.066 1.52,1.183 2.487,1.235 0.937,0 1.702,0.669 2.654,0.366 0.418,-0.233 0.605,0.204 0.838,0.436 0.297,0.352 0.717,0.404 1.166,0.366 0.265,0.185 0.517,0.518 0.72,0.803 0.066,0.484 0.932,0.835 0.436,1.372 -0.05,0.233 -0.102,0.565 0.118,0.75 -0.106,0.651 0.53,1.05 0.245,1.719 0.102,0.437 0.551,0.484 0.838,0.731 0.715,0.423 1.271,-0.665 1.918,-0.047 0.305,0.603 -0.415,0.75 -0.718,1.201 -0.634,0.437 0.232,0.888 -0.284,1.372 0.385,0.831 1.335,0.817 1.886,1.487 1.052,0.546 2.507,0.446 3.656,0.399 0.219,0.014 0.418,0.265 0.404,0.517 0.399,0.584 0.499,1.301 0.67,2.004 -0.205,0.802 0.584,1.22 1.085,1.633 l 0.116,0.689 z"
             style="fill:#f9a721;fill-opacity:1;fill-rule:nonzero;stroke:none"
             id="path1521" /></g><g
           id="g1523"
           transform="translate(45.9072,207.0645)"><path
             d="m 0,0 c 0.235,-0.256 0.064,-0.569 -0.014,-0.835 0.072,-0.119 0.097,-0.328 -0.003,-0.437 -0.303,-0.152 -0.728,-0.029 -0.956,-0.314 -0.418,-0.337 -0.464,-1.158 -1.154,-1.263 -0.43,-0.214 -0.311,-0.674 -0.556,-0.964 -0.332,-0.612 -0.705,-1.272 -0.602,-2.027 -0.575,-0.769 -0.129,-1.862 -0.319,-2.806 0.064,-0.471 0.328,-0.974 0.093,-1.454 0.349,-0.332 0.719,-0.574 0.714,-1.125 0.217,-0.313 0.592,-0.413 0.818,-0.693 l 0.897,-0.133 c 0.548,-0.646 1.541,-0.598 2.317,-0.522 0.643,0.237 1.17,0.683 1.875,0.83 0.367,0.157 0.297,0.822 0.903,0.599 0.546,0.066 0.864,0.508 1.431,0.518 0.573,0.284 1.145,0.531 1.61,0.997 0.273,0.275 0.731,0.465 0.964,0.826 0.359,0.432 0.525,1.111 1.18,1.277 0.095,0.138 0.278,0.199 0.458,0.162 0.193,-0.357 0.843,0.246 0.729,-0.409 0.19,-0.171 0.439,-0.256 0.404,-0.537 -0.233,-0.313 -0.24,-0.735 -0.511,-1.035 -0.292,-1.173 0.188,-2.17 0.553,-3.143 0.478,-0.503 0.627,-1.339 1.354,-1.615 0.579,-0.113 1.106,-0.336 1.586,-0.716 0.593,-0.105 0.973,-0.76 1.507,-0.974 0.387,0.048 0.611,-0.309 1.009,-0.275 0.775,-0.361 1.601,0.005 2.332,0.214 1.716,0.735 3.265,1.823 4.105,3.499 0.256,0.313 0.622,0.446 0.99,0.546 0.43,-0.052 0.926,-0.204 1.09,-0.655 0.273,-0.508 -0.155,-1.016 -0.036,-1.557 -0.249,-0.291 -0.213,-0.718 -0.565,-0.931 -0.061,-0.675 -0.931,-0.655 -1.121,-1.211 -0.108,-0.01 -0.166,-0.133 -0.256,-0.204 -0.102,-0.508 -0.698,-0.613 -1.026,-0.969 -0.584,-0.128 -0.878,-0.717 -1.52,-0.688 -0.332,-0.418 -0.987,-0.39 -1.495,-0.542 -1.227,-0.171 -2.597,-0.58 -3.78,0.014 -0.767,-0.194 -1.206,0.352 -1.847,0.456 -0.591,0.394 -1.474,0.366 -1.735,1.035 -0.539,0.456 -1.188,1.211 -1.815,1.62 -0.129,0.156 -0.184,0.351 -0.196,0.555 -0.542,0.589 -0.605,1.487 -1.347,1.904 -0.605,0.152 -1.002,-0.242 -1.516,-0.309 -0.685,-0.251 -1.055,-0.812 -1.82,-0.935 -0.562,-0.65 -1.514,-0.351 -2.126,-0.912 -0.948,-0.185 -1.952,-0.19 -2.933,-0.289 -0.769,-0.223 -1.54,0.009 -2.153,0.399 -0.107,0.303 -0.503,0.299 -0.724,0.531 -1.071,0.58 -1.652,1.624 -2.234,2.579 -0.01,0.437 -0.359,0.731 -0.402,1.14 -0.342,0.873 -0.627,1.846 -0.491,2.853 -0.199,0.579 -0.266,1.429 0.199,1.947 -0.03,0.304 0.3,0.456 0.347,0.722 -0.085,0.693 0.292,1.258 0.373,1.909 0.382,0.422 0.964,0.911 1.07,1.562 0.589,0.603 1.107,1.529 2.047,1.41 0.294,0.237 0.485,0.76 0.992,0.679 C -0.821,0.323 -0.351,0.309 0,0"
             style="fill:#1092d5;fill-opacity:1;fill-rule:nonzero;stroke:none"
             id="path1525" /></g><g
           id="g1527"
           transform="translate(145.6387,187.8101)"><path
             d="m 0,0 c -0.152,0.417 0.297,0.902 -0.171,1.234 -0.114,0.836 -0.05,1.705 -0.347,2.527 0.85,1.197 -1.071,1.766 -0.605,3.001 -0.43,0.622 -0.397,1.439 -1.135,1.923 -0.313,1.268 -1.852,1.234 -2.27,2.402 -0.881,0.466 -1.802,0.87 -2.735,1.202 -0.852,-0.147 -1.557,0.617 -2.441,0.285 -0.116,-0.37 -0.717,-0.518 -0.636,-0.888 0.719,-0.532 1.721,-0.366 2.441,-0.95 0.849,0.119 1.569,-0.318 2.206,-0.85 0.664,-0.304 0.982,-1.087 1.77,-1.201 1.15,-0.2 1.13,-1.453 1.468,-2.275 C -2.541,5.826 -3.16,6.063 -3.457,5.727 -3.689,5.209 -2.888,4.943 -2.654,4.606 -2.073,3.889 -1.387,3.105 -1.605,2.151 -1.173,1.553 -1.539,0.902 -1.853,0.351 -2.47,0.333 -2.073,-0.333 -2.521,-0.484 -3.41,-0.233 -3.89,0.669 -4.407,1.353 c -0.337,0.484 -0.069,0.95 0.031,1.453 -0.202,0.266 -0.403,0.651 -0.753,0.751 -1.099,0.204 -1.32,1.452 -2.172,1.97 -0.396,0.551 -1.232,0.883 -1.199,1.639 -0.086,0.365 -0.484,0.317 -0.687,0.602 -0.75,-0.204 -1.635,-0.038 -2.238,0.48 -0.612,1.586 -2.436,0.917 -3.435,1.885 -0.939,-0.166 -1.57,0.636 -2.572,0.404 -0.384,0.185 -0.769,0.399 -1.204,0.484 -0.999,-0.418 -1.835,0.251 -2.839,0.199 -0.316,0.119 -0.648,0.418 -1,0.204 -0.683,0.281 -1.533,0.1 -2.203,0.148 -0.365,-0.252 -0.869,-0.333 -1.334,-0.233 -0.451,0.299 -1.068,0.185 -1.519,0.518 -0.701,0.133 -1.453,0.213 -2.158,0.232 -0.801,-0.517 -1.651,0.133 -2.534,-0.199 l -0.636,0.565 c -0.586,0.033 -1.117,0.218 -1.641,0.437 -0.396,0.18 -0.698,0.631 -1.133,0.731 -0.664,-0.199 -1.382,-0.18 -1.951,0.237 -0.518,-0.137 -0.687,0.552 -1.171,0.48 -0.75,-0.161 -1.5,-0.014 -2.288,-0.114 l -0.311,-0.204 c -0.42,-0.698 -0.055,-1.548 0,-2.284 0.278,-0.603 0.966,-0.883 1.448,-1.32 0.25,-0.133 0.501,-0.399 0.551,-0.684 0.031,-0.717 -0.749,-0.85 -1.235,-1.087 -0.764,-0.261 -1.12,0.736 -1.885,0.603 -0.553,0.57 -1.42,0.033 -2.037,0.432 -0.42,-0.446 -0.955,-0.114 -1.486,-0.147 -0.803,-0.418 -1.722,-0.551 -2.455,-1.168 -0.518,-0.053 -0.902,-0.537 -1.467,-0.352 -1.242,0.048 -0.938,-1.804 -2.258,-1.486 -1.351,-0.551 -1.885,-2.071 -2.201,-3.371 -0.385,-0.703 -1.154,-1.254 -1.355,-2.037 0.334,-1.102 -0.801,-1.653 -1.452,-2.323 0.067,-0.431 -0.332,-0.849 0.045,-1.201 -0.08,-0.503 0.373,-1.087 -0.244,-1.367 -0.237,-0.053 -0.584,-0.119 -0.75,0.114 -0.099,0.218 -0.338,0.384 -0.252,0.688 0.667,0.665 -0.265,1.368 0.05,2.085 -0.183,0.57 0.269,0.987 0.401,1.486 -0.132,0.214 -0.033,0.75 -0.484,0.631 -0.65,-0.498 -0.57,-1.367 -0.686,-2.117 -0.468,-0.788 -0.083,-1.923 -0.482,-2.726 0.318,-0.598 0.014,-1.467 0.482,-2.004 0.233,-0.565 -0.449,-0.997 -0.031,-1.533 -0.506,-0.803 0.75,-1.221 0.399,-2.071 0.249,-0.75 0.185,-1.486 0.199,-2.336 0.72,-0.551 0.171,-1.5 0.668,-2.151 0.234,-0.304 -0.084,-0.622 -0.031,-0.888 l 0.914,-0.836 c -0.065,-1.514 1.707,-2.269 1.455,-3.855 -0.15,-0.218 -0.035,-0.485 0,-0.717 0.717,-0.47 0.869,-1.287 1.118,-1.923 -0.216,-0.499 0.252,-0.817 0.119,-1.321 0.886,-1.03 1.035,-2.35 1.634,-3.485 0.586,-0.75 0.805,-1.652 1.367,-2.407 1.073,-2.084 2.742,-3.97 4.647,-5.523 1.046,-0.683 2.017,-1.557 3.138,-2.089 1.8,-1.253 3.775,-2.151 6.009,-2.403 1.553,-0.033 3.001,-0.522 4.476,-0.849 0.783,-0.651 1.533,-1.321 2.402,-1.838 0.451,0.014 1.021,-0.053 1.405,0.2 0.134,0.184 0.034,0.365 0,0.564 0.35,0.669 1.236,0.37 1.85,0.556 0.421,-0.403 0.852,0.1 1.323,0.048 0.814,-0.604 1.716,0.065 2.568,0.118 0.371,0.28 0.855,0.498 1.321,0.318 l 1.431,0.518 c 0.385,0.214 0.921,0.048 1.206,0.484 1.002,0.166 1.905,0.565 2.69,1.201 1.565,1.415 3.557,1.867 5.242,3.006 1.482,1.334 2.918,2.754 4.457,4.007 0.651,0.466 1.337,1.117 1.437,1.919 0.418,0.551 -0.02,1.453 0.564,1.919 1.002,0.735 0.988,1.885 1.403,2.854 0.216,0.683 -0.365,1.053 -0.486,1.604 0.435,0.433 -0.031,1.083 0.403,1.52 -0.114,0.332 -0.567,0.418 -0.403,0.883 0.102,0.437 0.619,0.285 0.802,0.603 0.138,1.685 1.406,2.887 1.838,4.44 0.052,0.451 -0.302,0.95 0.166,1.32 -0.114,0.731 0.736,1.32 0.202,1.97 0,0.432 0.534,0.532 0.6,0.969 -0.199,0.465 0.266,1.182 -0.318,1.548 -0.18,0.503 0.086,0.902 0.404,1.258 -0.185,0.261 -0.036,0.565 0.114,0.798 -0.247,0.65 0.688,1.254 -0.05,1.804 0.404,0.969 -1.002,0.85 -1.268,1.553 0.07,0.85 -0.315,1.586 -0.401,2.408 0.119,0.394 0.57,0.394 0.8,0.717 0.672,0.18 0.421,-0.855 1.121,-0.717 0.302,0.28 -0.236,0.394 -0.169,0.679 C -0.418,-0.451 -0.252,-0.2 0,0"
             style="fill:#ee2722;fill-opacity:1;fill-rule:nonzero;stroke:none"
             id="path1529" /></g><g
           id="g1531"
           transform="translate(88.4961,202.9004)"><path
             d="m 0,0 c 0.546,0.138 1.085,-0.047 1.631,-0.081 0.499,0.105 1.042,0.024 1.503,0.048 0.645,0.052 1.016,-0.352 1.631,-0.347 0.534,-0.294 1.308,-0.023 1.826,-0.37 0.41,0.095 0.627,-0.285 1.015,-0.261 0.267,-0.223 0.735,-0.238 1.039,-0.095 0.368,0.066 0.766,0.014 0.992,-0.257 0.655,0.033 1.061,0.56 1.75,0.394 0.496,-0.052 0.93,-0.204 1.415,-0.28 0.469,0.152 0.305,0.565 0.393,0.926 C 13.027,0.019 12.887,0.408 12.479,0.499 12.056,0.456 11.828,0.831 11.405,0.75 10.574,1.102 9.827,1.629 8.917,1.795 7.564,1.847 6.133,1.895 4.965,2.464 4.731,2.531 4.468,2.483 4.275,2.621 3.262,2.835 2.26,3.072 1.13,3.039 0.778,2.858 0.332,2.901 -0.081,2.906 -0.695,3.186 -1.347,2.811 -2.009,2.863 -2.369,2.954 -2.854,2.958 -3.231,2.877 -3.555,2.987 -3.751,2.64 -4.041,2.849 -4.824,2.906 -5.713,2.735 -6.111,1.976 -6.189,1.477 -6.311,1.007 -6.501,0.551 -6.237,0.28 -6.23,-0.19 -5.879,-0.441 c 0.76,-0.395 1.572,0.047 2.244,0.27 C -2.543,0.109 -1.161,0.37 0,0"
             style="fill:#ee2722;fill-opacity:1;fill-rule:nonzero;stroke:none"
             id="path1533" /></g><g
           id="g1535"
           transform="translate(52.7646,169.8325)"><path
             d="M 0,0 -0.979,-2.93 0,-4.226 1.949,-2.93 2.274,0 0.973,0.323"
             style="fill:#1092d5;fill-opacity:1;fill-rule:nonzero;stroke:none"
             id="path1537" /></g><g
           id="g1539"
           transform="translate(229.7822,172.7339)"><path
             d="M 0,0 C -0.563,0.817 -1.553,1.135 -2.485,0.802 -3.072,0.465 -3.772,-0.1 -3.487,-0.95 c 0.285,-0.584 0.902,-0.817 1.519,-0.655 0.304,0.422 0.852,0.171 1.168,0.522 C -0.65,-0.598 0.066,-0.565 0,0"
             style="fill:#ee2722;fill-opacity:1;fill-rule:nonzero;stroke:none"
             id="path1541" /></g><g
           id="g1543"
           transform="translate(203.4551,166.7222)"><path
             d="m 0,0 c 0.249,-0.598 0.218,-1.581 1.12,-1.633 0.347,-0.352 0.67,0 1.085,-0.166 0.252,0.232 0.668,0.066 0.884,0.398 0,0.167 0.168,0.352 0,0.484 C 3.188,0 2.671,0.736 2.64,1.657 2.07,2.555 3.105,3.277 2.925,4.259 2.538,4.958 1.686,5.062 0.919,5.095 0.418,4.929 -0.136,4.459 -0.199,3.894 -0.136,2.707 -0.368,1.173 0,0"
             style="fill:#ee2722;fill-opacity:1;fill-rule:nonzero;stroke:none"
             id="path1545" /></g><g
           id="g1547"
           transform="translate(233.1084,164.0015)"><path
             d="M 0,0 C 0.931,1.353 2.422,2.056 4.119,1.724 L 4.49,1.486 C 4.791,1.149 5.041,0.75 4.892,0.285 4.808,-0.784 3.689,-1.32 2.835,-1.633 1.833,-1.918 0.715,-2.289 -0.365,-2.084 -0.902,-1.42 -0.232,-0.65 0,0 m 8.5,-16.709 c -0.285,0.55 0.028,1.049 -0.119,1.652 -0.498,0.698 -0.451,1.685 -1.256,2.203 -0.446,0.484 -0.748,1.235 -1.513,1.269 -1.053,0.901 -2.608,0.597 -3.492,1.884 -0.788,1.206 -1.887,2.156 -2.12,3.576 -0.068,0.55 -0.553,1.116 -0.199,1.633 0.769,0.37 1.683,0.284 2.521,0.485 0.983,0.569 2.182,0.621 3.087,1.372 0.734,0.318 1.439,1.016 1.887,1.718 0.166,0.884 0.7,1.919 0.149,2.802 C 6.443,3.257 5.024,4.088 3.286,3.927 1.833,3.775 0.551,3.257 -0.636,2.488 -1.619,1.752 -2.469,0.902 -3.094,-0.114 c -0.096,-0.437 -0.377,-0.855 -0.31,-1.287 -0.304,-0.537 -0.067,-1.267 -0.37,-1.804 0.049,-1.786 0.433,-3.543 1.085,-5.124 1.07,-1.619 2.25,-3.457 4.057,-4.411 0.204,-0.313 0.349,-0.598 0.714,-0.769 0.439,-0.949 1.589,-0.85 2.292,-1.515 0.463,-0.969 1.151,-1.838 1.319,-2.925 -0.284,-0.817 -0.937,-1.667 -1.803,-1.919 -0.169,-0.232 -0.352,-0.436 -0.369,-0.735 0.15,-0.352 0.52,-0.352 0.805,-0.466 1.697,0 3.039,1.501 3.69,2.925 0.213,0.447 0.565,0.851 0.484,1.435"
             style="fill:#ee2722;fill-opacity:1;fill-rule:nonzero;stroke:none"
             id="path1549" /></g><g
           id="g1551"
           transform="translate(223.9229,164.8896)"><path
             d="m 0,0 c 0.186,-1.904 -0.111,-3.694 -0.352,-5.461 -0.081,-1.168 -0.149,-2.189 -0.313,-3.323 0,-0.917 -0.05,-1.871 0.313,-2.603 0.437,-0.403 0.886,-0.051 1.439,-0.152 0.584,0.351 1.204,0.717 1.688,1.201 -0.353,0.65 -0.472,1.387 -0.522,2.156 0.302,2.422 0.504,4.939 0.755,7.327 C 3.16,-0.551 3.241,-0.219 3.26,0.114 2.706,0.736 1.923,0.949 1.135,1.035 0.7,0.816 0.235,0.432 0,0"
             style="fill:#ee2722;fill-opacity:1;fill-rule:nonzero;stroke:none"
             id="path1553" /></g><g
           id="g1555"
           transform="translate(217.3604,160.5117)"><path
             d="M 0,0 C -0.415,0.921 -1.246,1.671 -1.483,2.654 -0.501,3.875 1.37,2.606 2.41,3.689 2.558,3.86 2.939,3.675 2.958,4.007 2.106,5.646 -0.081,5.128 -1.398,4.729 -2.519,4.174 -3.907,3.974 -4.608,2.772 c 0.049,-0.949 0.285,-1.937 0.921,-2.654 1.021,-2.155 2.522,-4.074 3.405,-6.277 0.567,-1.772 1.637,-3.675 0.919,-5.608 -0.402,-0.418 -0.649,-1.006 -1.202,-1.254 -0.185,-0.066 -0.52,-0.17 -0.681,0.048 -0.121,0.119 -0.406,0.119 -0.518,-0.048 -0.137,-0.602 -1.239,-0.887 -0.719,-1.552 0.434,-0.783 1.337,-0.537 2.037,-0.537 1.348,0.55 2.552,1.553 3.485,2.74 1.071,1.301 0.871,3.205 0.484,4.759 C 2.89,-4.839 1.223,-2.503 0,0"
             style="fill:#ee2722;fill-opacity:1;fill-rule:nonzero;stroke:none"
             id="path1557" /></g><g
           id="g1559"
           transform="translate(185.4248,145.3682)"><path
             d="m 0,0 c -0.332,3.41 -0.538,6.862 -2.369,9.654 -0.118,0.347 -0.47,0.651 -0.869,0.599 C -3.841,10.205 -4.693,10.618 -5.13,9.9 -5.893,8.553 -7.001,7.347 -7.379,5.846 -7.885,5.144 -7.849,4.227 -8.333,3.524 -8.502,3.391 -8.635,3.576 -8.734,3.69 c -0.164,2.788 -0.449,5.593 -0.682,8.448 0.064,0.65 -0.221,1.538 0.399,1.856 -0.235,0.1 -0.185,0.38 -0.368,0.551 -0.819,0.731 -2.201,0.418 -2.87,-0.403 0.116,-4.906 0.783,-9.801 1.268,-14.66 0.101,-2.767 0.921,-5.289 1.002,-8.009 0.083,-0.39 0.436,-0.556 0.733,-0.722 0.75,-0.285 1.216,0.403 1.805,0.665 0.182,0.503 0.816,0.702 0.75,1.286 -0.815,1.359 -0.43,3.125 -0.483,4.696 0.33,3.121 1.316,5.946 2.251,8.814 0.103,0.184 0.153,0.517 0.438,0.517 0.667,-0.399 0.667,-1.301 0.914,-2.004 0.187,-1.7 0.654,-3.338 0.654,-5.09 0.385,-1.857 0.214,-3.941 0.602,-5.812 0.199,-0.703 -0.148,-1.634 0.597,-2.118 0.939,-0.266 1.506,0.566 2.242,0.916 0.097,0.352 0.615,0.438 0.563,0.803 C 0.066,-4.658 0.413,-2.169 0,0"
             style="fill:#ee2722;fill-opacity:1;fill-rule:nonzero;stroke:none"
             id="path1561" /></g><g
           id="g1563"
           transform="translate(207.2607,137.3203)"><path
             d="m 0,0 c -0.484,3.39 -0.366,6.928 -0.563,10.418 -0.071,0.869 0.029,1.757 -0.237,2.607 -0.019,2.302 -0.266,4.692 -0.404,7.046 l -0.228,0.319 c -0.67,0.298 -1.638,0.831 -2.289,0.166 -0.42,-0.404 -0.669,-0.869 -0.717,-1.406 0.599,-0.968 0.297,-2.17 0.549,-3.286 0.201,-3.722 0.435,-7.516 0.565,-11.305 0.088,-2.303 0.65,-4.512 0.437,-6.843 0.1,-0.337 0.08,-0.755 0.487,-0.921 0.678,0 1.433,0.252 1.837,0.888 C 0.77,-2.165 -0.252,-0.75 0,0"
             style="fill:#ee2722;fill-opacity:1;fill-rule:nonzero;stroke:none"
             id="path1565" /></g><g
           id="g1567"
           transform="translate(196.7266,143.6836)"><path
             d="m 0,0 c -1.218,-1.103 -2.654,-1.72 -4.091,-2.318 -0.67,-0.119 -1.519,-0.356 -2.037,0.2 -0.396,0.418 -1.002,0.864 -0.769,1.519 1.336,1.719 3.238,2.603 5.092,3.32 C -0.902,2.9 -0.399,2.037 0.038,1.453 -0.266,0.954 0.301,0.465 0,0 M 3.894,2.721 C 3.689,3.271 3.089,3.219 2.754,3.604 2.338,5.911 1.45,8.029 0.352,10.066 c -1.321,2.322 -3.726,3.742 -6.364,3.727 -0.465,0.148 -0.982,-0.171 -1.403,0.115 -0.518,-0.352 -1.5,-0.87 -1.284,-1.686 0.168,-0.284 0.47,-0.584 0.766,-0.755 0.321,-0.08 0.705,-0.08 0.953,0.151 1.073,-0.014 2.023,-0.332 2.856,-0.949 1.821,-1.4 2.635,-3.523 3.44,-5.493 C -0.65,4.909 -0.254,4.644 -0.565,4.377 -1.589,4.458 -2.588,4.259 -3.49,3.922 -5.846,2.9 -8.281,1.472 -9.734,-0.884 c -0.485,-1.101 0.403,-1.871 1.07,-2.554 1.501,-0.903 3.54,-1.021 5.26,-0.518 3.038,1.05 5.911,3.153 7.815,6.012 C 4.242,2.321 3.955,2.421 3.894,2.721"
             style="fill:#ee2722;fill-opacity:1;fill-rule:nonzero;stroke:none"
             id="path1569" /></g><g
           id="g1571"
           transform="translate(171.1963,134.7988)"><path
             d="m 0,0 c -0.465,-0.38 -1.234,-0.398 -1.769,-0.166 -2.017,0.684 -3.385,2.726 -4.074,4.61 -0.869,2.988 -0.133,6.226 2.004,8.363 0.77,0.636 1.672,-0.438 2.402,0.337 0.153,0.55 0.79,0.384 1.041,0.802 -0.385,0.613 -1.041,0.95 -1.638,1.201 -2.453,0.584 -4.091,-1.704 -5.259,-3.409 -2.035,-2.754 -2.106,-7.365 -0.435,-10.3 1.288,-2.188 3.524,-4.074 6.208,-3.893 0.753,0.119 1.49,0.318 2.125,0.722 0.38,0.854 1.42,1.016 1.767,1.885 L 1.437,1.187 C 0.62,1.4 0.639,0.337 0,0"
             style="fill:#ee2722;fill-opacity:1;fill-rule:nonzero;stroke:none"
             id="path1573" /></g><g
           id="g1575"
           transform="translate(150.7266,123.6494)"><path
             d="m 0,0 c -4.238,2.954 -8.493,5.808 -12.47,9.35 l -0.083,0.2 c 1.155,0.883 2.289,1.951 3.454,2.867 1.44,0.855 2.638,2.309 4.327,2.573 0.598,0.532 1.621,0.984 1.688,1.886 -0.421,0.57 -1.189,0.873 -1.891,0.67 -0.434,-0.267 -0.882,-0.552 -1.284,-0.95 -1.75,-1.035 -3.387,-2.374 -5.04,-3.657 -0.637,-0.37 -0.869,-1.22 -1.652,-1.239 -0.321,0.285 -0.252,0.788 -0.44,1.173 0.088,1.102 -0.429,2.052 -0.479,3.153 -0.352,0.817 -0.435,1.752 -0.637,2.655 0,0.854 -0.133,1.752 -0.083,2.673 l -0.202,0.28 c -0.548,0.085 -1.082,0.489 -1.638,0.118 -0.529,-0.147 -0.831,-0.617 -0.964,-1.12 0.233,-0.864 0.133,-1.733 0.283,-2.635 0.403,-2.621 0.887,-5.224 1.602,-7.73 0.031,-0.652 -0.786,-1.05 -0.6,-1.805 0.132,-0.85 1.398,-0.983 1.398,-1.919 0.558,-2.939 1.46,-5.692 2.009,-8.613 0.382,-0.85 -0.249,-2.454 1.118,-2.688 0.401,0.3 1.232,0 1.287,0.717 0.529,0.504 1.016,1.135 1.035,1.838 -0.506,0.399 -0.517,1.002 -0.605,1.567 -0.851,1.472 -0.934,3.272 -1.52,4.843 l 0.121,0.166 c 0.119,0 0.264,0.02 0.366,-0.033 2.956,-2.255 6.161,-4.307 8.898,-7.014 1.019,-0.45 1.707,0.537 2.322,1.116 0.233,0.324 0.349,0.689 0.432,1.088 C 0.572,-0.219 0.272,-0.119 0,0"
             style="fill:#ee2722;fill-opacity:1;fill-rule:nonzero;stroke:none"
             id="path1577" /></g><g
           id="g1579"
           transform="translate(155.8027,134.5186)"><path
             d="m 0,0 c -1.249,-1.054 -2.403,-2.606 -4.155,-2.203 -1.254,0.465 -2.157,1.785 -2.32,3.034 -0.152,1.776 1.454,3.139 2.721,4.326 0.43,0.033 0.898,-0.247 1.32,0.085 0.465,0.685 1.298,0.465 1.835,0.964 C 0.705,6.229 1.689,5.076 2.137,4.008 2.188,2.351 1.001,1.201 0,0 M -1.066,8.528 C -1.684,8.581 -2.102,8.129 -2.667,8.129 -3.521,7.465 -4.54,7.228 -5.273,6.329 -6.627,4.857 -8.279,3.537 -8.966,1.753 -9.414,0.632 -9.384,-0.85 -8.678,-1.856 c 0.767,-1.601 2.486,-2.749 4.271,-2.636 1.337,-0.166 2.324,0.517 3.341,1.121 2.471,1.88 4.472,4.325 6.008,6.894 C 4.828,4.421 4.758,5.441 4.09,6.158 2.875,7.916 0.938,8.414 -1.066,8.528"
             style="fill:#ee2722;fill-opacity:1;fill-rule:nonzero;stroke:none"
             id="path1581" /></g><g
           id="g1583"
           transform="translate(131.4102,119.291)"><path
             d="m 0,0 c -0.297,-1.116 -1.733,-0.685 -2.688,-0.851 -1.047,-0.298 -2.187,0.067 -3.239,0 -2.233,0.38 -4.788,1.701 -5.493,4.089 -0.064,1.623 1.704,2.156 2.806,2.773 1.151,0.232 2.642,1.315 3.606,0 L -4.49,5.76 c 0.351,-0.366 0.819,-0.518 1.317,-0.4 0.718,0.115 1.188,0.95 1.974,0.732 C -0.668,4.828 -0.468,3.423 -0.114,2.084 -0.114,1.367 0.351,0.65 0,0 M 1.44,7.563 C 1.455,7.744 1.573,7.764 1.638,7.93 1.557,8.063 1.369,8.147 1.236,8.247 c -0.733,1.454 -1.186,3.006 -2.405,4.26 -1.87,2.218 -4.237,3.974 -7.011,4.439 -2.072,0.3 -4.091,-0.151 -5.441,-1.637 -0.637,-1.102 -1.805,-2.404 -0.888,-3.69 1.306,-1.016 1.538,1.069 2.407,1.553 -0.047,0.252 -0.099,0.584 0.198,0.736 0.838,0.45 1.823,0.617 2.855,0.465 2.906,-0.565 5.511,-2.987 6.878,-5.642 -0.045,-0.099 -0.151,-0.232 -0.263,-0.232 -1.507,0.166 -3.206,0.352 -4.744,0 -2.222,-0.385 -4.091,-1.605 -5.881,-3.006 -0.781,-1.087 -1.5,-2.183 -1.249,-3.689 0.67,-1.923 2.525,-3.423 4.327,-4.174 3.437,-1.239 7.694,-0.499 11.336,-0.484 L 1.84,-2.489 C 2.236,-1.72 3.857,-1.088 2.96,-0.053 2.756,2.621 2.187,5.143 1.44,7.563"
             style="fill:#ee2722;fill-opacity:1;fill-rule:nonzero;stroke:none"
             id="path1585" /></g><g
           id="g1587"
           transform="translate(115.4668,114.5664)"><path
             d="m 0,0 c -1.555,-0.333 -3.205,-0.186 -4.725,-0.452 -1.984,-0.271 -3.888,-0.954 -5.947,-0.802 -0.211,0.085 -0.511,0.304 -0.511,0.569 1,1.838 1.95,3.69 3.253,5.41 1.617,2.336 3.255,4.69 4.756,7.093 0.556,0.822 1.27,1.605 1.09,2.674 l -0.088,0.251 c -0.767,0.451 -1.6,0.831 -2.521,0.433 -1.067,0 -1.986,-0.433 -3.004,-0.551 -2.284,-0.499 -4.254,-1.753 -6.579,-2.17 -0.714,-0.215 -0.415,-1.187 -0.714,-1.686 0.23,-0.266 0.133,-0.684 0.451,-0.921 0.246,-0.281 0.548,-0.433 0.951,-0.366 1.853,1.519 4.139,1.985 6.29,2.773 0.689,0.081 1.522,0.532 2.122,0.081 0.133,-0.181 -0.047,-0.352 -0.147,-0.484 -2.509,-3.804 -5.213,-7.527 -7.616,-11.387 -0.487,-0.546 -0.853,-1.15 -1.204,-1.752 -0.283,-0.599 0.171,-1.103 0.351,-1.601 0.886,-0.816 2.106,-0.954 3.324,-0.802 2.206,0.384 4.54,0.665 6.777,1.083 1.156,-0.114 2.554,0.27 3.608,-0.333 0.466,-0.285 0.838,0.152 1.204,0.371 0.332,0.617 1.135,0.716 1.286,1.433 C 2.84,-0.452 2.002,-0.186 1.838,0.351 1.201,1.187 0.604,0.198 0,0"
             style="fill:#ee2722;fill-opacity:1;fill-rule:nonzero;stroke:none"
             id="path1589" /></g><g
           id="g1591"
           transform="translate(212.4863,135.4014)"><path
             d="m 0,0 c 0.152,0.219 0.304,0.452 0.235,0.77 -0.031,0.2 -0.285,0.299 -0.434,0.399 -0.818,-0.232 -1.382,0.75 -2.12,0.118 -1.218,-0.569 -0.516,-1.77 -0.77,-2.806 0.138,-0.598 -0.036,-1.386 0.687,-1.719 0.498,-0.669 1.234,-0.417 1.918,-0.636 0.472,0.152 0.871,0.569 0.921,1.068 C -0.012,-1.984 -0.401,-0.954 0,0"
             style="fill:#1092d5;fill-opacity:1;fill-rule:nonzero;stroke:none"
             id="path1593" /></g><g
           id="g1595"
           transform="translate(219.8516,126.4375)"><path
             d="M 0,0 C 0.951,0.935 1.752,2.051 3.053,2.321 3.872,2.688 4.74,2.938 5.742,2.887 6.362,2.635 7.079,2.321 7.414,1.633 7.426,1.319 7.744,0.982 7.459,0.684 5.472,-0.77 2.825,-1.668 0.334,-0.804 0.118,-0.59 -0.252,-0.319 0,0 m 9.549,-12.907 c -0.504,0.119 -0.703,-0.318 -1,-0.57 -0.235,-0.099 -0.448,-0.066 -0.655,0.053 -1.066,-1.002 -2.655,-0.85 -4.086,-0.85 -1.873,0.532 -3.775,1.932 -4.611,3.808 -0.214,0.85 -0.646,1.6 -0.598,2.569 0.064,1.187 -0.271,2.468 -0.119,3.608 0.183,0.348 -0.05,0.865 0.366,1.116 0.921,0.034 2.006,-0.033 2.958,-0.151 2.236,0.27 4.421,0.584 6.209,1.871 1.118,0.863 2.908,1.804 2.573,3.456 C 10.354,2.754 9.549,3.356 8.979,3.922 6.443,5.508 2.806,4.805 0.448,3.323 -1.401,2.421 -2.976,0.636 -3.557,-1.287 -4.609,-3.206 -4.711,-5.395 -4.728,-7.731 l 0.119,-0.285 c 0.102,-2.004 0.553,-3.936 2.054,-5.408 2.288,-2.788 5.845,-3.424 9.216,-2.654 0.269,0.033 0.43,0.317 0.753,0.199 0.732,0.384 1.482,0.702 2.135,1.253 0.116,0.28 0.151,0.618 0.348,0.884 0.186,0.351 -0.116,0.602 -0.348,0.835"
             style="fill:#1092d5;fill-opacity:1;fill-rule:nonzero;stroke:none"
             id="path1597" /></g><g
           id="g1599"
           transform="translate(204.2715,122.7139)"><path
             d="M 0,0 C -0.114,0.267 -0.1,0.599 -0.318,0.836 -0.465,1.871 -1.317,2.669 -1.4,3.671 -1.918,4.255 -2.868,4.573 -3.656,4.208 -4.071,3.724 -4.62,3.253 -4.608,2.55 c 0.087,-0.679 0.769,-1.112 1.154,-1.681 1.481,-3.091 2.258,-6.528 2.286,-10.171 -0.1,-1.235 -0.081,-2.369 -0.482,-3.485 -0.117,-0.138 -0.368,-0.085 -0.518,-0.038 -1.887,1.154 -4.093,2.44 -5.244,4.525 -0.632,0.954 -0.7,2.151 -0.916,3.291 -0.285,0.769 -0.036,1.771 -0.566,2.436 -0.736,0.171 -1.904,0.436 -2.493,-0.233 -0.263,-0.351 -0.446,-0.736 -0.434,-1.202 0.303,-1.234 0.337,-2.555 0.753,-3.741 -0.015,-0.38 0.185,-0.665 0.332,-0.997 0.171,-2.241 -0.183,-4.312 -1.085,-6.216 -0.485,-0.365 -0.599,-1.201 -1.318,-1.149 -1.287,0.447 -2.302,1.619 -3.055,2.754 -1.636,3.068 -3.205,6.159 -3.325,9.868 -0.396,0.697 -1.431,0.498 -2.2,0.484 -0.534,-0.219 -0.738,-0.789 -0.801,-1.287 0.267,-1.453 0.416,-2.973 0.801,-4.373 0.916,-2.489 1.904,-4.963 3.488,-7.161 1.341,-1.686 3.157,-2.807 5.358,-2.541 0.504,0.152 0.919,0.504 1.372,0.77 1.035,1.334 2.503,2.574 2.807,4.24 0.18,0.318 0.033,0.751 0.366,1.003 0.113,0.013 0.216,-0.02 0.315,-0.034 0.739,-0.736 1.553,-1.288 2.358,-1.838 1.016,-0.351 1.899,-1.021 2.967,-1.201 1.688,-0.437 2.557,1.182 3.441,2.202 0.937,1.986 0.902,4.227 0.805,6.478 C 1.337,-4.378 0.934,-2.07 0,0"
             style="fill:#1092d5;fill-opacity:1;fill-rule:nonzero;stroke:none"
             id="path1601" /></g><g
           id="g1603"
           transform="translate(210.8359,123.5498)"><path
             d="M 0,0 C -0.102,0.831 -0.151,1.733 -0.038,2.517 -0.201,2.854 -0.536,3.087 -0.921,3.034 -1.603,3.22 -2.308,3.139 -2.87,2.772 -3.29,2.317 -3.606,1.733 -3.354,1.116 c 0.446,-1.249 0.432,-2.687 0.628,-4.041 -0.144,-0.916 0.286,-1.685 0.254,-2.602 0.119,-1.772 0.718,-3.376 0.718,-5.128 0.151,-0.299 0.234,-0.632 0.484,-0.883 0.349,-0.133 0.848,-0.1 1.232,-0.048 0.473,0.684 1.254,0.883 1.726,1.566 0.145,0.438 -0.251,0.751 -0.403,1.117 C 0.499,-6.082 0.197,-3.072 0,0"
             style="fill:#1092d5;fill-opacity:1;fill-rule:nonzero;stroke:none"
             id="path1605" /></g><g
           id="g1607"
           transform="translate(178.0244,102.0723)"><path
             d="m 0,0 c -0.8,-0.593 -1.769,-0.764 -2.654,-1.196 -1.467,-0.351 -2.906,-0.783 -4.471,-0.888 -1.289,0.119 -2.608,0.77 -3.139,2.009 -0.3,0.645 0.367,0.997 0.601,1.481 1.954,1.705 4.343,2.489 7.061,2.407 0.618,-0.204 1.316,-0.204 1.835,-0.65 0.252,-0.436 0.221,-1.007 0.72,-1.287 0.268,-0.071 0.601,0 0.8,-0.204 C 0.589,1.074 0.255,0.557 0,0 m 1.957,2.36 c 0.05,0.267 0.349,0.267 0.484,0.48 -0.036,0.471 0.568,0.703 0.402,1.173 -0.685,0.484 -0.571,1.386 -1.24,1.919 -1.185,3.641 -3.569,7.511 -7.263,9.363 -1.633,0.622 -3.537,1.187 -5.325,0.489 -1.301,-0.735 -2.253,-2.141 -2.522,-3.561 0.485,-0.432 1.019,-0.684 1.724,-0.599 l 0.715,0.353 c 0.339,0.418 0.484,0.901 0.6,1.4 0.188,0.536 0.768,0.522 1.206,0.451 3.79,-0.731 6.093,-4.658 7.662,-7.783 l 0.08,-0.36 C -1.569,5.547 -1.716,5.48 -1.852,5.447 -3.756,5.585 -5.757,5.461 -7.464,4.844 -8.563,4.412 -9.646,3.941 -10.667,3.277 c -1.052,-0.95 -2.502,-1.753 -2.875,-3.158 0.021,-1.453 1.073,-2.767 2.359,-3.371 3.039,-1.353 6.846,-0.602 9.785,0.451 0.731,0.332 1.481,0.603 2.201,1.002 0.971,0.048 1.771,0.836 2.319,1.553 0.086,0.47 -0.03,0.888 0.119,1.32 C 3.022,1.672 2.106,1.672 1.957,2.36"
             style="fill:#1092d5;fill-opacity:1;fill-rule:nonzero;stroke:none"
             id="path1609" /></g><g
           id="g1611"
           transform="translate(145.6055,102.9941)"><path
             d="m 0,0 c -0.653,1.353 -1.088,3.376 0.078,4.644 0.52,0.147 1.04,0.318 1.493,0.65 C 1.697,5.859 2.421,5.793 2.573,6.33 2.02,6.695 1.571,7.261 0.883,7.299 0.097,7.332 -0.451,6.781 -1.121,6.528 -2.538,5.579 -2.942,4.06 -3.56,2.721 c 0.037,-1.235 -0.182,-2.787 0.521,-3.837 0.783,-2.303 2.718,-4.007 3.806,-6.178 0.968,-1.519 2.103,-2.972 2.689,-4.644 1.199,-2.055 0.549,-4.923 -0.534,-6.809 -0.268,-1.221 -1.571,-2.004 -1.835,-3.205 0.031,-0.318 0.415,-0.451 0.629,-0.451 2.707,0.061 3.355,3.153 4.459,4.976 1.367,2.64 1.151,6.439 -0.563,8.846 C 4.021,-5.574 1.598,-3.006 0,0"
             style="fill:#1092d5;fill-opacity:1;fill-rule:nonzero;stroke:none"
             id="path1613" /></g><g
           id="g1615"
           transform="translate(166.6074,93.4121)"><path
             d="m 0,0 c -1.204,-0.77 -2.992,-0.537 -4.376,-0.519 -1.102,-0.317 -2.054,0.234 -2.956,0.685 -1.951,1.639 -0.435,4.055 0.031,5.893 0.871,1.552 1.427,3.224 2.324,4.757 -0.099,0.822 0.582,1.354 0.571,2.089 0.348,0.533 0.332,1.221 0.431,1.838 -0.199,0.703 -0.733,1.367 -1.433,1.653 l -0.687,0.114 c -1.187,0.418 -2.619,0.27 -3.808,-0.029 -1.785,-0.469 -3.469,-1.292 -5.126,-1.937 -0.601,-0.218 -0.914,-0.855 -1.047,-1.405 -0.088,-0.604 0.579,-0.533 0.847,-0.917 0.654,-0.271 1.055,0.266 1.525,0.565 0.645,0.337 1.246,0.783 1.971,1.002 1.348,0.284 2.901,1.173 4.268,0.318 0.317,-0.318 0.335,-0.736 0.368,-1.169 -0.482,-2.07 -1.35,-4.006 -2.201,-5.93 -0.871,-1.932 -1.971,-3.803 -1.971,-6.04 0.134,-0.284 -0.099,-0.717 0.198,-0.921 0.133,-0.797 0.952,-1.282 1.541,-1.734 0.565,-0.317 1.201,-0.483 1.833,-0.668 2.219,-0.286 4.776,-0.347 6.98,-0.082 l 1.87,1.321 C 1.187,-0.955 1.102,-0.851 1.085,-0.717 0.836,-0.333 0.501,0.047 0,0"
             style="fill:#1092d5;fill-opacity:1;fill-rule:nonzero;stroke:none"
             id="path1617" /></g><g
           id="g1619"
           transform="translate(138.9102,100.9092)"><path
             d="m 0,0 c -0.718,0.086 -1.403,-0.271 -1.724,-0.921 -0.582,-1.448 -1.648,-2.707 -2.153,-4.169 -0.396,-0.655 -0.352,-1.506 -0.736,-2.156 -0.164,-0.237 -0.378,0.048 -0.466,0.2 -0.43,1.021 -0.914,2.023 -0.883,3.237 -0.183,0.267 -0.302,0.533 -0.368,0.837 -0.116,0.532 -0.686,0.664 -1.151,0.651 -0.833,0.199 -1.451,-0.551 -1.888,-1.168 -0.199,-0.67 0.152,-1.202 0.437,-1.72 1.165,-3.509 2.868,-6.78 4.407,-10.133 0.398,-0.755 0.921,-1.471 1.166,-2.288 0.383,-0.57 0.801,-0.955 1.554,-0.77 0.817,0.351 1.339,1.268 1.805,1.971 0.185,0.636 -0.466,0.936 -0.806,1.401 -2.117,3.656 -2.001,9.164 0.74,12.507 0.498,0.683 1.614,1.016 1.549,2.003 C 1.135,-0.118 0.529,0.147 0,0"
             style="fill:#1092d5;fill-opacity:1;fill-rule:nonzero;stroke:none"
             id="path1621" /></g><g
           id="g1623"
           transform="translate(127.7725,82.1104)"><path
             d="m 0,0 c 0.068,-1.367 -1.052,-2.308 -2.037,-3.124 -1.672,-1.05 -3.521,-1.705 -5.525,-1.923 -1.121,0.07 -1.973,0.973 -2.574,1.89 -0.23,0.831 0.25,1.467 0.368,2.203 1.451,2.602 4.509,2.74 6.729,4.207 l 1.234,0.836 C -1.337,4.174 -1.351,3.638 -1.118,3.404 -0.75,2.289 0.468,1.287 0,0 M 3.089,1.687 C 2.818,2.769 1.852,3.604 1.52,4.606 c -1.251,2.489 -3.325,5.11 -5.876,6.497 -1.155,0.683 -2.541,0.816 -3.892,1.001 -2.405,-0.039 -4.305,-1.288 -6.097,-2.806 -1.184,-1.103 -1.619,-2.522 -2.685,-3.691 -0.166,-0.417 -0.133,-0.934 -0.319,-1.352 0.305,-0.471 0.634,-1.068 1.287,-1.05 1.717,0.665 1.487,2.636 2.436,3.857 1.672,1.4 3.391,2.8 5.743,2.435 1.404,-0.385 2.674,-1.068 3.845,-2.032 L -2.434,5.66 c 0.095,-0.171 0,-0.37 -0.17,-0.489 -3.507,-1.515 -7.678,-2.185 -9.766,-6.125 -0.171,-0.352 -0.151,-0.77 -0.405,-1.083 -0.314,-1.135 -0.367,-2.739 0.6,-3.642 0.888,-0.617 1.809,-1.32 2.894,-1.534 1.753,-0.403 3.17,0.532 4.805,0.684 0.504,0.318 1.221,0.166 1.669,0.603 2.206,1.017 4.111,2.754 5.979,4.406 0.886,0.281 0.268,1.335 0.686,1.885 0.119,0.599 -0.366,0.984 -0.769,1.322"
             style="fill:#1092d5;fill-opacity:1;fill-rule:nonzero;stroke:none"
             id="path1625" /></g></g></g><g
       id="g1627"><g
         id="g1629"
         clip-path="url(#clipPath1633)"><g
           id="g1635"
           transform="translate(206.5269,60.7832)"><path
             d="m 0,0 c -2.003,5.23 -3.821,10.593 -7.928,14.199 -0.338,0.495 -1.017,0.822 -1.63,0.57 -0.924,-0.338 -2.455,-0.052 -2.826,-1.373 -0.626,-2.466 -1.839,-4.842 -1.79,-7.378 -0.49,-1.326 -0.036,-2.758 -0.496,-4.077 -0.207,-0.281 -0.497,-0.047 -0.707,0.089 -1.473,4.324 -3.142,8.628 -4.744,13.033 -0.176,1.058 -1.009,2.328 -0.174,3.098 -0.414,0.058 -0.456,0.527 -0.82,0.712 -1.611,0.8 -3.657,-0.299 -4.357,-1.881 2.316,-7.694 5.488,-15.123 8.368,-22.575 1.359,-4.333 3.744,-7.954 5.061,-12.211 0.295,-0.571 0.921,-0.684 1.466,-0.816 1.308,-0.122 1.753,1.161 2.556,1.834 0.074,0.869 0.985,1.465 0.627,2.358 -1.878,1.779 -2.039,4.74 -2.803,7.192 -0.823,5.071 -0.499,9.952 -0.264,14.888 0.074,0.334 0.008,0.882 0.455,1.006 1.229,-0.344 1.622,-1.769 2.321,-2.767 1.027,-2.605 2.476,-4.982 3.237,-7.748 1.413,-2.76 2.052,-6.125 3.473,-8.908 0.614,-1.018 0.47,-2.647 1.866,-3.084 1.589,-0.015 2.127,1.549 3.13,2.417 0.007,0.598 0.783,0.958 0.549,1.512 C 2.129,-7.325 1.602,-3.244 0,0"
             style="fill:#f9a721;fill-opacity:1;fill-rule:nonzero;stroke:none"
             id="path1637" /></g><g
           id="g1639"
           transform="translate(343.8213,100.8086)"><path
             d="m 0,0 c -7.688,3.537 -15.376,6.906 -22.809,11.459 l -0.19,0.299 c 1.6,1.758 3.119,3.813 4.737,5.628 2.068,1.79 3.582,4.483 6.225,5.397 0.815,1.035 2.323,2.061 2.171,3.533 -0.838,0.792 -2.162,1.057 -3.236,0.53 -0.62,-0.558 -1.267,-1.145 -1.794,-1.907 -2.526,-2.175 -4.78,-4.803 -7.067,-7.355 -0.911,-0.773 -1.046,-2.214 -2.308,-2.473 -0.594,0.37 -0.63,1.196 -1.038,1.76 -0.182,1.803 -1.295,3.187 -1.694,4.946 -0.8,1.217 -1.202,2.703 -1.79,4.096 -0.25,1.373 -0.728,2.784 -0.912,4.281 l -0.402,0.4 c -0.914,-0.026 -1.894,0.468 -2.67,-0.287 -0.822,-0.397 -1.17,-1.235 -1.238,-2.085 0.626,-1.329 0.717,-2.757 1.22,-4.167 1.408,-4.11 2.94,-8.166 4.823,-11.992 0.24,-1.042 -0.956,-1.923 -0.447,-3.083 0.462,-1.336 2.548,-1.183 2.815,-2.691 1.747,-4.574 3.996,-8.752 5.728,-13.304 0.865,-1.26 0.306,-4.03 2.582,-4.007 0.559,0.598 1.993,0.359 1.862,1.528 0.716,0.963 1.314,2.126 1.137,3.262 -0.922,0.502 -1.121,1.466 -1.424,2.356 -1.796,2.118 -2.455,5.001 -3.845,7.362 l 0.134,0.303 c 0.187,0.032 0.426,0.105 0.603,0.055 5.415,-2.776 11.181,-5.159 16.376,-8.728 1.774,-0.43 2.587,1.354 3.414,2.48 0.285,0.578 0.366,1.202 0.386,1.874 C 0.979,-0.183 0.468,-0.108 0,0"
             style="fill:#f9a721;fill-opacity:1;fill-rule:nonzero;stroke:none"
             id="path1641" /></g><g
           id="g1643"
           transform="translate(228.6748,58.6025)"><path
             d="m 0,0 c -0.208,-1.441 -2.062,-1.113 -3.223,-1.459 -1.266,-0.532 -2.735,-0.242 -4.033,-0.48 -2.844,0.145 -6.222,1.413 -7.447,4.282 -0.325,2.011 1.801,2.932 3.082,3.869 1.398,0.456 3.092,2.032 4.493,0.531 L -6.446,6.509 C -5.956,6.1 -5.351,5.986 -4.745,6.205 -3.867,6.454 -3.409,7.566 -2.399,7.41 -1.547,5.911 -1.09,4.191 -0.454,2.58 -0.349,1.683 0.341,0.858 0,0 m 0.67,9.631 c -0.007,0.23 0.137,0.27 0.194,0.487 -0.122,0.153 -0.363,0.229 -0.545,0.334 -1.13,1.702 -1.92,3.569 -3.626,4.95 -2.657,2.489 -5.868,4.321 -9.39,4.494 -2.625,0.071 -5.073,-0.792 -6.54,-2.845 -0.627,-1.466 -1.887,-3.26 -0.558,-4.726 1.775,-1.075 1.756,1.56 2.767,2.29 -0.098,0.305 -0.211,0.713 0.143,0.945 0.974,0.685 2.174,1.041 3.484,1.003 3.703,-0.275 7.307,-2.907 9.406,-6.01 -0.047,-0.131 -0.154,-0.315 -0.298,-0.329 -1.895,-0.016 -4.045,-0.039 -5.905,-0.703 -2.712,-0.806 -4.86,-2.6 -6.878,-4.615 -0.817,-1.468 -1.551,-2.945 -1.012,-4.779 1.114,-2.295 3.644,-3.888 6.001,-4.559 4.467,-1.031 9.662,0.511 14.193,1.072 l 0.549,0.528 C 3.041,-1.813 4.964,-0.785 3.688,0.373 3.042,3.668 1.962,6.728 0.67,9.631"
             style="fill:#f9a721;fill-opacity:1;fill-rule:nonzero;stroke:none"
             id="path1645" /></g><g
           id="g1647"
           transform="translate(307.7031,103.6182)"><path
             d="m 0,0 c -1.096,0.856 -2.758,1.256 -3.604,2.306 0.942,2.075 4.471,1.676 5.559,3.626 0.152,0.291 0.838,0.302 0.704,0.72 -2.121,1.46 -5.273,-0.5 -7.139,-1.794 -1.47,-1.344 -3.529,-2.433 -4.037,-4.313 0.537,-1.122 1.379,-2.174 2.715,-2.656 2.63,-1.984 5.9,-3.392 8.344,-5.52 1.742,-1.798 4.329,-3.45 4.151,-6.234 -0.417,-0.745 -0.528,-1.604 -1.268,-2.246 -0.248,-0.191 -0.718,-0.518 -1.087,-0.356 -0.239,0.072 -0.678,-0.099 -0.777,-0.374 0.082,-0.809 -1.498,-1.826 -0.371,-2.318 1.059,-0.686 2.341,0.166 3.435,0.596 1.833,1.488 3.225,3.435 4.105,5.441 1.031,2.227 -0.206,4.408 -1.558,6.053 C 6.842,-4.102 3.115,-2.29 0,0"
             style="fill:#f9a721;fill-opacity:1;fill-rule:nonzero;stroke:none"
             id="path1649" /></g><g
           id="g1651"
           transform="translate(241.0322,86.5449)"><path
             d="m 0,0 c -1.045,0.142 -2.056,-0.354 -2.539,-1.296 -0.893,-2.101 -2.486,-3.903 -3.258,-6.036 -0.601,-0.94 -0.547,-2.185 -1.128,-3.125 -0.247,-0.339 -0.555,0.082 -0.677,0.304 -0.607,1.5 -1.285,2.973 -1.205,4.757 -0.263,0.392 -0.423,0.784 -0.512,1.226 -0.158,0.783 -0.981,0.995 -1.667,0.98 -1.215,0.315 -2.136,-0.761 -2.784,-1.653 -0.311,-0.97 0.187,-1.758 0.588,-2.525 1.614,-5.151 4.01,-9.976 6.164,-14.915 0.563,-1.113 1.303,-2.172 1.646,-3.373 0.544,-0.838 1.143,-1.408 2.243,-1.162 1.208,0.49 1.987,1.815 2.691,2.83 0.282,0.922 -0.661,1.377 -1.135,2.069 -2.998,5.394 -2.682,13.436 1.408,18.238 0.748,0.986 2.388,1.444 2.32,2.884 C 1.653,-0.201 0.788,0.207 0,0"
             style="fill:#f9a721;fill-opacity:1;fill-rule:nonzero;stroke:none"
             id="path1653" /></g><g
           id="g1655"
           transform="translate(342.8838,125.4775)"><path
             d="M 0,0 1.29,0.103 C 2.046,1.156 2.384,2.581 1.853,3.866 2.771,5.658 0.94,7.271 0.943,9.097 0.615,9.41 -0.057,9.379 -0.396,9.717 -0.684,9.734 -1.073,9.466 -1.327,9.808 -2.636,9.42 -3.283,7.974 -3.359,6.678 -2.427,4.393 -1.801,1.687 0,0"
             style="fill:#f9a721;fill-opacity:1;fill-rule:nonzero;stroke:none"
             id="path1657" /></g><g
           id="g1659"
           transform="translate(350.0674,101.0928)"><path
             d="M 0,0 C 1.022,-0.333 1.998,-1.735 3.228,-1.04 4.227,-0.638 4.019,0.584 4.076,1.441 4.777,2.067 3.619,2.938 4.497,3.576 4.39,3.782 4.363,4.02 4.198,4.144 1.248,4.851 0.182,7.734 -1.429,9.924 -3.241,12.659 -3.79,16.168 -4.581,19.157 -5.658,19.903 -7.626,20.294 -8.405,18.8 -9.361,17.363 -8.566,15.278 -7.756,13.841 -6.632,8.196 -3.471,3.796 0,0"
             style="fill:#f9a721;fill-opacity:1;fill-rule:nonzero;stroke:none"
             id="path1661" /></g><g
           id="g1663"
           transform="translate(370.3516,134.957)"><path
             d="M 0,0 1.194,0.104 C 1.886,1.086 2.189,2.403 1.684,3.59 2.521,5.253 0.814,6.731 0.809,8.42 0.505,8.707 -0.118,8.673 -0.436,8.985 -0.697,8.998 -1.06,8.749 -1.296,9.059 -2.502,8.688 -3.089,7.353 -3.152,6.151 -2.271,4.045 -1.671,1.548 0,0"
             style="fill:#f9a721;fill-opacity:1;fill-rule:nonzero;stroke:none"
             id="path1665" /></g><g
           id="g1667"
           transform="translate(380.9512,90.2119)"><path
             d="m 0,0 c 0.042,0.868 0.169,1.796 0.999,2.234 0.46,1.625 1.758,3.005 1.786,4.776 0.619,1.88 1.151,4.016 1.111,6 0.795,4.589 -1.224,8.82 -3.278,12.998 -1.85,2.799 -3.294,5.815 -4.819,8.753 -0.672,1.473 -2.09,2.21 -2.862,3.693 -0.296,0.66 -0.111,1.436 0.155,2.13 0.576,0.095 1.085,0.435 1.499,0.745 1.133,0.091 1.979,-0.53 2.748,-1.284 C -2.036,37.194 0.555,35.029 1.77,32.347 4.47,27.619 7.579,22.945 8.846,17.88 8.851,17.411 8.65,17.073 8.895,16.658 9.001,13.741 8.97,10.935 8.4,8.142 7.944,6.714 7.684,4.922 6.917,3.491 6.581,2.282 5.764,1.409 5.373,0.233 4.557,-0.95 3.227,-2.44 1.606,-2.036 0.924,-1.478 0.095,-1.041 0,0"
             style="fill:#f9a721;fill-opacity:1;fill-rule:nonzero;stroke:none"
             id="path1669" /></g><g
           id="g1671"
           transform="translate(266.6416,92.4863)"><path
             d="M 0,0 C 0.705,1.521 1.15,3.188 2.56,4.078 3.355,4.871 4.264,5.55 5.461,5.932 6.298,5.912 7.281,5.861 7.973,5.203 8.134,4.839 8.654,4.584 8.454,4.107 6.767,1.526 4.054,-0.708 0.747,-0.791 0.398,-0.636 -0.155,-0.486 0,0 m 16.925,-10.919 c -0.644,-0.084 -0.685,-0.681 -0.924,-1.109 -0.232,-0.223 -0.501,-0.277 -0.789,-0.228 -0.809,-1.65 -2.739,-2.177 -4.421,-2.811 -2.433,-0.201 -5.288,0.6 -7.095,2.426 -0.631,0.903 -1.473,1.592 -1.843,2.752 -0.446,1.423 -1.409,2.78 -1.737,4.181 0.065,0.491 -0.44,0.997 -0.063,1.475 1.063,0.445 2.365,0.848 3.536,1.134 2.508,1.303 4.932,2.643 6.459,4.944 0.928,1.513 2.613,3.405 1.488,5.195 C 10.934,7.817 9.72,8.168 8.805,8.58 5.124,9.317 1.159,6.886 -0.941,4.098 c -1.778,-1.876 -2.83,-4.667 -2.663,-7.183 -0.386,-2.718 0.467,-5.329 1.485,-8.081 l 0.261,-0.281 c 1.003,-2.307 2.391,-4.379 4.805,-5.441 3.92,-2.256 8.372,-1.426 11.991,0.966 0.301,0.159 0.374,0.567 0.795,0.571 0.696,0.774 1.434,1.481 1.953,2.413 0.012,0.386 -0.096,0.792 0.021,1.2 0.057,0.487 -0.406,0.651 -0.782,0.819"
             style="fill:#f9a721;fill-opacity:1;fill-rule:nonzero;stroke:none"
             id="path1673" /></g><g
           id="g1675"
           transform="translate(255.5537,90.335)"><path
             d="m 0,0 c 0.923,-1.171 0.19,-2.408 -0.247,-3.371 -2.392,-0.024 -3.308,-2.048 -4.35,-3.72 -1.856,-3.977 -1.558,-8.583 1.246,-11.998 1.607,-1.715 4.369,-2.672 6.572,-2.157 2.687,0.294 4.413,3.981 6.849,2.182 0.047,-1.82 -1.139,-2.908 -2.275,-4.134 -3.2,-2.327 -7.19,-2.552 -10.669,-0.751 -3.98,2.496 -7.037,8.058 -6.209,12.847 1.253,4.31 2.983,9.68 7.437,11.442 z"
             style="fill:#f9a721;fill-opacity:1;fill-rule:nonzero;stroke:none"
             id="path1677" /></g><g
           id="g1679"
           transform="translate(294.3311,105.7549)"><path
             d="M 0,0 C -1.048,0.14 -2.056,-0.354 -2.537,-1.298 -3.431,-3.4 -5.024,-5.2 -5.795,-7.334 c -0.601,-0.941 -0.549,-2.184 -1.128,-3.124 -0.249,-0.338 -0.558,0.081 -0.678,0.303 -0.608,1.5 -1.286,2.974 -1.206,4.756 -0.263,0.392 -0.422,0.787 -0.512,1.227 -0.156,0.784 -0.981,0.994 -1.666,0.98 -1.213,0.315 -2.134,-0.761 -2.783,-1.653 -0.31,-0.971 0.186,-1.758 0.585,-2.523 1.617,-5.153 4.013,-9.977 6.164,-14.915 0.566,-1.113 1.303,-2.174 1.646,-3.373 0.545,-0.837 1.144,-1.41 2.246,-1.163 1.208,0.491 1.984,1.814 2.689,2.829 0.284,0.921 -0.66,1.379 -1.135,2.068 -2.999,5.396 -2.681,13.438 1.41,18.238 0.746,0.987 2.39,1.445 2.32,2.884 C 1.655,-0.205 0.786,0.205 0,0"
             style="fill:#f9a721;fill-opacity:1;fill-rule:nonzero;stroke:none"
             id="path1681" /></g><g
           id="g1683"
           transform="translate(358.3789,123.5322)"><path
             d="M 0,0 C 0.702,1.521 1.146,3.189 2.557,4.081 3.354,4.873 4.264,5.552 5.459,5.935 6.298,5.913 7.277,5.86 7.973,5.206 8.134,4.84 8.651,4.587 8.453,4.107 6.766,1.526 4.053,-0.709 0.744,-0.793 0.396,-0.634 -0.157,-0.484 0,0 m 16.923,-10.919 c -0.644,-0.083 -0.684,-0.679 -0.926,-1.106 -0.229,-0.226 -0.498,-0.279 -0.784,-0.232 -0.813,-1.649 -2.743,-2.173 -4.424,-2.809 -2.435,-0.199 -5.286,0.602 -7.097,2.425 -0.63,0.904 -1.475,1.593 -1.841,2.754 -0.447,1.422 -1.41,2.78 -1.736,4.182 0.062,0.49 -0.442,0.997 -0.064,1.473 1.063,0.446 2.366,0.847 3.533,1.133 2.51,1.304 4.935,2.644 6.46,4.945 0.931,1.511 2.616,3.405 1.488,5.198 C 10.932,7.82 9.719,8.17 8.8,8.582 5.121,9.319 1.159,6.887 -0.945,4.098 -2.721,2.221 -3.772,-0.569 -3.607,-3.083 c -0.382,-2.721 0.468,-5.33 1.484,-8.082 l 0.264,-0.281 c 1,-2.307 2.391,-4.377 4.803,-5.437 3.921,-2.26 8.373,-1.43 11.992,0.964 0.298,0.157 0.371,0.565 0.793,0.569 0.694,0.775 1.434,1.48 1.953,2.413 0.011,0.386 -0.097,0.791 0.02,1.199 0.059,0.49 -0.401,0.652 -0.779,0.819"
             style="fill:#f9a721;fill-opacity:1;fill-rule:nonzero;stroke:none"
             id="path1685" /></g></g></g></g></svg>
